SplineFontDB: 3.0
FontName: CinzelDecorative-Regular
FullName: CinzelDecorative-Regular
FamilyName: Cinzel Decorative
Weight: Book
Copyright: Copyright (c) 2012 Natanael Gama (info@ndiscovered.com), with Reserved Font Name 'Cinzel'
Version: 1.001;PS 001.001;hotconv 1.0.56;makeotf.lib2.0.21325
ItalicAngle: 0
UnderlinePosition: -50
UnderlineWidth: 50
Ascent: 800
Descent: 200
sfntRevision: 0x00010041
LayerCount: 2
Layer: 0 1 "Back"  1
Layer: 1 1 "Fore"  0
XUID: [1021 602 1626792694 5632545]
FSType: 0
OS2Version: 3
OS2_WeightWidthSlopeOnly: 0
OS2_UseTypoMetrics: 1
CreationTime: 1336739549
ModificationTime: 1349490217
PfmFamily: 81
TTFWeight: 400
TTFWidth: 5
LineGap: 0
VLineGap: 0
Panose: 0 0 5 0 0 0 0 0 0 0
OS2TypoAscent: 976
OS2TypoAOffset: 0
OS2TypoDescent: -372
OS2TypoDOffset: 0
OS2TypoLinegap: 0
OS2WinAscent: 976
OS2WinAOffset: 0
OS2WinDescent: 372
OS2WinDOffset: 0
HheadAscent: 976
HheadAOffset: 0
HheadDescent: -372
HheadDOffset: 0
OS2SubXSize: 650
OS2SubYSize: 600
OS2SubXOff: 0
OS2SubYOff: 75
OS2SupXSize: 650
OS2SupYSize: 600
OS2SupXOff: 0
OS2SupYOff: 350
OS2StrikeYSize: 50
OS2StrikeYPos: 300
OS2Vendor: 'UKWN'
OS2CodePages: 20000093.00000000
OS2UnicodeRanges: 00000007.00000000.00000000.00000000
Lookup: 258 0 0 "'kern' Horizontal Kerning lookup 0"  {"'kern' Horizontal Kerning lookup 0 per glyph data 0"  "'kern' Horizontal Kerning lookup 0 kerning class 1"  } ['kern' ('DFLT' <'dflt' > 'grek' <'dflt' > 'latn' <'dflt' > ) ]
DEI: 91125
KernClass2: 63+ 46 "'kern' Horizontal Kerning lookup 0 kerning class 1" 
 28 Tcedilla Tcaron Tbar uni021A
 73 U Ugrave Uacute Ucircumflex Udieresis Umacron Uring Uhungarumlaut Uogonek
 1 V
 4 nine
 37 W Wcircumflex Wgrave Wacute Wdieresis
 1 X
 37 Y Yacute Ycircumflex Ydieresis Ygrave
 49 comma period quotesinglbase quotedblbase ellipsis
 26 Z Zacute Zdotaccent Zcaron
 5 seven
 73 a agrave aacute acircumflex atilde adieresis aring amacron abreve aogonek
 1 b
 35 c ccedilla cacute cdotaccent ccaron
 4 five

StartChar: exclam
Encoding: 33 33 4
Width: 230
GlyphClass: 2
Flags: W
LayerCount: 2
Fore
SplineSet
140 403 m 1,0,-1
 119 170 l 1,1,-1
 109 170 l 1,2,-1
 89 403 l 1,3,-1
 77 702 l 1,4,-1
 152 702 l 1,5,-1
 140 403 l 1,0,-1
115 -4 m 128,-1,7
 96 -4 96 -4 83 9 c 128,-1,8
 70 22 70 22 70 41 c 128,-1,9
 70 60 70 60 83 73 c 128,-1,10
 96 86 96 86 115 86 c 128,-1,11
 134 86 134 86 147 73 c 128,-1,12
 160 60 160 60 160 41 c 128,-1,13
 160 22 160 22 147 9 c 128,-1,6
 134 -4 134 -4 115 -4 c 128,-1,7
EndSplineSet
EndChar

StartChar: quotedbl
Encoding: 34 34 5
Width: 315
GlyphClass: 2
Flags: W
LayerCount: 2
Fore
SplineSet
50 505 m 1,0,1
 68 590 68 590 68 629.5 c 128,-1,2
 68 669 68 669 66 700 c 1,3,-1
 136 714 l 1,4,5
 136 709 136 709 136 693 c 128,-1,6
 136 677 136 677 130.5 640.5 c 128,-1,7
 125 604 125 604 106.5 560 c 128,-1,8
 88 516 88 516 59 500 c 1,9,-1
 50 505 l 1,0,1
180 505 m 1,10,11
 198 590 198 590 198 629.5 c 128,-1,12
 198 669 198 669 196 700 c 1,13,-1
 266 714 l 1,14,15
 266 709 266 709 266 693 c 128,-1,16
 266 677 266 677 260.5 640.5 c 128,-1,17
 255 604 255 604 236.5 560 c 128,-1,18
 218 516 218 516 189 500 c 1,19,-1
 180 505 l 1,10,11
EndSplineSet
EndChar

StartChar: numbersign
Encoding: 35 35 6
Width: 536
GlyphClass: 2
Flags: W
LayerCount: 2
Fore
SplineSet
516 467 m 1,0,-1
 403 467 l 1,1,-1
 365 247 l 1,2,-1
 472 247 l 1,3,-1
 472 217 l 1,4,-1
 359 217 l 1,5,-1
 321 0 l 1,6,-1
 289 0 l 1,7,-1
 327 217 l 1,8,-1
 159 217 l 1,9,-1
 121 0 l 1,10,-1
 89 0 l 1,11,-1
 127 217 l 1,12,-1
 20 217 l 1,13,-1
 20 247 l 1,14,-1
 133 247 l 1,15,-1
 171 467 l 1,16,-1
 64 467 l 1,17,-1
 64 497 l 1,18,-1
 177 497 l 1,19,-1
 212 700 l 1,20,-1
 244 700 l 1,21,-1
 209 497 l 1,22,-1
 377 497 l 1,23,-1
 412 700 l 1,24,-1
 444 700 l 1,25,-1
 409 497 l 1,26,-1
 516 497 l 1,27,-1
 516 467 l 1,0,-1
333 247 m 1,28,-1
 371 467 l 1,29,-1
 203 467 l 1,30,-1
 165 247 l 1,31,-1
 333 247 l 1,28,-1
EndSplineSet
EndChar

StartChar: dollar
Encoding: 36 36 7
Width: 469
GlyphClass: 2
Flags: W
LayerCount: 2
Fore
SplineSet
59 41 m 1,0,1
 55 55 55 55 55 95 c 128,-1,2
 55 135 55 135 70 180 c 1,3,-1
 79 180 l 1,4,5
 78 169 78 169 78 159 c 0,6,7
 78 105 78 105 106 66 c 128,-1,8
 134 27 134 27 190 18 c 1,9,-1
 215 339 l 1,10,-1
 126 421 l 2,11,12
 72 471 72 471 72 543.5 c 128,-1,13
 72 616 72 616 121 665 c 128,-1,14
 170 714 170 714 243 714 c 1,15,-1
 249 788 l 1,16,-1
 279 787 l 1,17,-1
 274 713 l 1,18,19
 306 710 306 710 335 704 c 1,20,-1
 373 704 l 1,21,-1
 373 581 l 1,22,-1
 364 581 l 1,23,24
 364 637 364 637 320 665 c 0,25,26
 299 678 299 678 271 682 c 1,27,-1
 250 402 l 1,28,-1
 365 295 l 2,29,30
 415 249 415 249 415 182 c 128,-1,31
 415 115 415 115 392 73 c 0,32,33
 344 -13 344 -13 218 -14 c 1,34,-1
 211 -102 l 1,35,-1
 181 -99 l 1,36,-1
 188 -11 l 1,37,38
 99 -1 99 -1 59 41 c 1,0,1
161 647.5 m 128,-1,40
 128 614 128 614 128 564 c 128,-1,41
 128 514 128 514 169 477 c 1,42,-1
 221 428 l 1,43,-1
 241 683 l 1,44,39
 194 681 194 681 161 647.5 c 128,-1,40
318 55 m 128,-1,46
 357 92 357 92 357 149.5 c 128,-1,47
 357 207 357 207 318 243 c 2,48,-1
 243 313 l 1,49,-1
 220 16 l 1,50,45
 279 18 279 18 318 55 c 128,-1,46
EndSplineSet
EndChar

StartChar: percent
Encoding: 37 37 8
Width: 684
GlyphClass: 2
Flags: W
LayerCount: 2
Fore
SplineSet
311 660 m 1,0,1
 327 629 327 629 327 596 c 0,2,3
 327 476 327 476 261 408 c 0,4,5
 215 361 215 361 154 361 c 128,-1,6
 93 361 93 361 64 408 c 0,7,8
 44 440 44 440 44 476 c 0,9,10
 44 598 44 598 109 665 c 1,11,12
 155 714 155 714 218 714 c 0,13,14
 235 714 235 714 253.5 709 c 128,-1,15
 272 704 272 704 311 681 c 1,16,17
 355 657 355 657 381.5 657 c 128,-1,18
 408 657 408 657 430.5 664.5 c 128,-1,19
 453 672 453 672 484.5 690 c 128,-1,20
 516 708 516 708 519 709 c 1,21,-1
 541 700 l 1,22,-1
 168 -11 l 1,23,-1
 143 0 l 1,24,-1
 499 676 l 1,25,26
 496 675 496 675 482.5 667.5 c 128,-1,27
 469 660 469 660 463.5 657.5 c 128,-1,28
 458 655 458 655 445 649.5 c 128,-1,29
 432 644 432 644 423 642 c 0,30,31
 398 636 398 636 373.5 638 c 128,-1,32
 349 640 349 640 311 660 c 1,0,1
269 537 m 0,33,34
 275 571 275 571 275 600 c 128,-1,35
 275 629 275 629 267 652 c 0,36,37
 252 694 252 694 213 694 c 0,38,39
 153 694 153 694 119 603 c 0,40,41
 96 541 96 541 96 493 c 128,-1,42
 96 445 96 445 104 423 c 0,43,44
 119 381 119 381 158 381 c 128,-1,45
 197 381 197 381 226.5 423 c 128,-1,46
 256 465 256 465 269 537 c 0,33,34
531 339 m 128,-1,48
 592 339 592 339 621 291 c 0,49,50
 641 259 641 259 641 224 c 0,51,52
 641 101 641 101 575 34 c 0,53,54
 529 -14 529 -14 468 -14 c 128,-1,55
 407 -14 407 -14 378 34 c 0,56,57
 358 66 358 66 358 101 c 0,58,59
 358 224 358 224 423 291 c 0,60,47
 470 339 470 339 531 339 c 128,-1,48
583 162 m 0,61,62
 589 196 589 196 589 225.5 c 128,-1,63
 589 255 589 255 581 277 c 0,64,65
 566 319 566 319 527 319 c 128,-1,66
 488 319 488 319 458.5 277 c 128,-1,67
 429 235 429 235 416 162 c 0,68,69
 410 129 410 129 410 99.5 c 128,-1,70
 410 70 410 70 418 48 c 0,71,72
 433 6 433 6 472 6 c 128,-1,73
 511 6 511 6 540.5 48 c 128,-1,74
 570 90 570 90 583 162 c 0,61,62
EndSplineSet
EndChar

StartChar: ampersand
Encoding: 38 38 9
Width: 818
GlyphClass: 2
Flags: W
LayerCount: 2
Fore
SplineSet
1144 -70 m 1,0,1
 1056 -146 1056 -146 949 -146 c 0,2,3
 873 -146 873 -146 784 -105 c 1,4,5
 730 -79 730 -79 684 -43.5 c 128,-1,6
 638 -8 638 -8 571 47 c 1,7,8
 480 -13 480 -13 366 -13 c 0,9,10
 309 -13 309 -13 254 3 c 0,11,12
 174 25 174 25 120 81 c 0,13,14
 64 139 64 139 64 222 c 0,15,16
 64 286 64 286 94.5 333.5 c 128,-1,17
 125 381 125 381 179 409 c 1,18,19
 136 475 136 475 136 546.5 c 128,-1,20
 136 618 136 618 186 666 c 128,-1,21
 236 714 236 714 326 714 c 0,22,23
 440 714 440 714 503 643 c 1,24,-1
 489 530 l 1,25,-1
 479 530 l 1,26,27
 476 601 476 601 436 642.5 c 128,-1,28
 396 684 396 684 335 684 c 128,-1,29
 274 684 274 684 239 645.5 c 128,-1,30
 204 607 204 607 204 550 c 0,31,32
 204 486 204 486 244.5 432 c 128,-1,33
 285 378 285 378 378.5 297 c 128,-1,34
 472 216 472 216 601 107 c 1,35,36
 655 156 655 156 690 223 c 0,37,38
 738 312 738 312 738 417 c 0,39,40
 738 467 738 467 726 516 c 0,41,42
 708 591 708 591 648 662 c 128,-1,43
 588 733 588 733 492 783 c 1,44,-1
 497 789 l 1,45,46
 581 755 581 755 640 701 c 0,47,48
 766 586 766 586 766 410 c 0,49,50
 766 300 766 300 707 194 c 0,51,52
 673 134 673 134 624 88 c 1,53,-1
 688 36 l 2,54,55
 790 -46 790 -46 892 -81 c 0,56,57
 939 -97 939 -97 1002 -97 c 128,-1,58
 1065 -97 1065 -97 1139 -61 c 1,59,-1
 1144 -70 l 1,0,1
223 72 m 0,60,61
 294 18 294 18 384 18 c 0,62,63
 471 18 471 18 548 66 c 1,64,65
 409 182 409 182 323 257 c 128,-1,66
 237 332 237 332 196 385 c 1,67,68
 136 329 136 329 136 233 c 128,-1,69
 136 137 136 137 223 72 c 0,60,61
EndSplineSet
EndChar

StartChar: quotesingle
Encoding: 39 39 10
Width: 170
GlyphClass: 2
Flags: W
LayerCount: 2
Fore
SplineSet
35 505 m 1,0,1
 53 590 53 590 53 629.5 c 128,-1,2
 53 669 53 669 51 700 c 1,3,-1
 121 714 l 1,4,5
 121 709 121 709 121 693 c 128,-1,6
 121 677 121 677 115.5 640.5 c 128,-1,7
 110 604 110 604 91.5 560 c 128,-1,8
 73 516 73 516 44 500 c 1,9,-1
 35 505 l 1,0,1
EndSplineSet
EndChar

StartChar: parenleft
Encoding: 40 40 11
Width: 338
GlyphClass: 2
Flags: W
LayerCount: 2
Fore
SplineSet
204.5 73.5 m 128,-1,1
 249 -51 249 -51 307 -91 c 1,2,-1
 301 -100 l 1,3,4
 215 -55 215 -55 153 68 c 0,5,6
 90 194 90 194 90 335.5 c 128,-1,7
 90 477 90 477 152 589 c 128,-1,8
 214 701 214 701 303 732 c 1,9,-1
 309 724 l 1,10,11
 246 694 246 694 203 586 c 128,-1,12
 160 478 160 478 160 338 c 128,-1,0
 160 198 160 198 204.5 73.5 c 128,-1,1
EndSplineSet
EndChar

StartChar: parenright
Encoding: 41 41 12
Width: 338
GlyphClass: 2
Flags: W
LayerCount: 2
Fore
SplineSet
135.5 586 m 128,-1,1
 92 694 92 694 30 724 c 1,2,-1
 36 732 l 1,3,4
 125 701 125 701 187 589 c 128,-1,5
 249 477 249 477 249 340 c 0,6,7
 249 194 249 194 186 69.5 c 128,-1,8
 123 -55 123 -55 38 -100 c 1,9,-1
 32 -91 l 1,10,11
 90 -51 90 -51 133 71 c 1,12,13
 179 198 179 198 179 338 c 128,-1,0
 179 478 179 478 135.5 586 c 128,-1,1
EndSplineSet
EndChar

StartChar: asterisk
Encoding: 42 42 13
Width: 386
GlyphClass: 2
Flags: W
LayerCount: 2
Fore
SplineSet
348 623 m 1,0,-1
 248 604 l 1,1,-1
 200 605 l 1,2,-1
 239 579 l 1,3,-1
 310 505 l 1,4,-1
 291 474 l 1,5,-1
 256 466 l 1,6,-1
 207 555 l 1,7,-1
 194 601 l 1,8,-1
 180 555 l 1,9,-1
 132 466 l 1,10,-1
 97 474 l 1,11,-1
 78 504 l 1,12,-1
 148 579 l 1,13,-1
 187 605 l 1,14,-1
 140 604 l 1,15,-1
 39 623 l 1,16,-1
 36 658 l 1,17,-1
 60 685 l 1,18,-1
 152 642 l 1,19,-1
 190 613 l 1,20,-1
 174 658 l 1,21,-1
 160 759 l 1,22,-1
 193 773 l 1,23,-1
 226 759 l 1,24,-1
 214 658 l 1,25,-1
 198 613 l 1,26,-1
 235 642 l 1,27,-1
 327 686 l 1,28,-1
 351 659 l 1,29,-1
 348 623 l 1,0,-1
EndSplineSet
EndChar

StartChar: plus
Encoding: 43 43 14
Width: 481
GlyphClass: 2
Flags: W
LayerCount: 2
Fore
SplineSet
442 332 m 1,0,-1
 442 287 l 1,1,-1
 263 287 l 1,2,-1
 263 109 l 1,3,-1
 218 109 l 1,4,-1
 218 287 l 1,5,-1
 40 287 l 1,6,-1
 40 332 l 1,7,-1
 218 332 l 1,8,-1
 218 511 l 1,9,-1
 263 511 l 1,10,-1
 263 332 l 1,11,-1
 442 332 l 1,0,-1
EndSplineSet
EndChar

StartChar: comma
Encoding: 44 44 15
Width: 185
GlyphClass: 2
Flags: W
LayerCount: 2
Fore
SplineSet
45 -81 m 1,0,1
 72 -72 72 -72 81.5 -56 c 128,-1,2
 91 -40 91 -40 91 -32 c 0,3,4
 91 -7 91 -7 71 15 c 1,5,6
 56 33 56 33 54 40 c 0,7,8
 51 54 51 54 56 66 c 0,9,10
 65 86 65 86 89 86 c 0,11,12
 119 86 119 86 130 58.5 c 128,-1,13
 141 31 141 31 141 14 c 0,14,15
 141 -38 141 -38 104 -67 c 1,16,17
 79 -88 79 -88 47 -89 c 1,18,-1
 45 -81 l 1,0,1
EndSplineSet
EndChar

StartChar: hyphen
Encoding: 45 45 16
Width: 380
GlyphClass: 2
Flags: W
LayerCount: 2
Fore
SplineSet
34 292 m 1,0,-1
 40 314 l 1,1,-1
 340 314 l 1,2,-1
 346 292 l 1,3,-1
 340 269 l 1,4,-1
 40 269 l 1,5,-1
 34 292 l 1,0,-1
EndSplineSet
EndChar

StartChar: period
Encoding: 46 46 17
Width: 179
GlyphClass: 2
Flags: W
LayerCount: 2
Fore
SplineSet
90 -4 m 128,-1,1
 71 -4 71 -4 58 9 c 128,-1,2
 45 22 45 22 45 41 c 128,-1,3
 45 60 45 60 58 73 c 128,-1,4
 71 86 71 86 90 86 c 128,-1,5
 109 86 109 86 122 73 c 128,-1,6
 135 60 135 60 135 41 c 128,-1,7
 135 22 135 22 122 9 c 128,-1,0
 109 -4 109 -4 90 -4 c 128,-1,1
EndSplineSet
EndChar

StartChar: slash
Encoding: 47 47 18
Width: 406
GlyphClass: 2
Flags: W
LayerCount: 2
Fore
SplineSet
7 5 m 1,0,-1
 368 714 l 1,1,-1
 399 696 l 1,2,-1
 38 -14 l 1,3,-1
 7 5 l 1,0,-1
EndSplineSet
EndChar

StartChar: zero
Encoding: 48 48 19
Width: 670
GlyphClass: 2
Flags: W
LayerCount: 2
Fore
SplineSet
335 614 m 128,-1,1
 463 614 463 614 541.5 527.5 c 128,-1,2
 620 441 620 441 620 300 c 128,-1,3
 620 159 620 159 541.5 72.5 c 128,-1,4
 463 -14 463 -14 335 -14 c 128,-1,5
 207 -14 207 -14 128.5 72.5 c 128,-1,6
 50 159 50 159 50 300 c 128,-1,7
 50 441 50 441 128.5 527.5 c 128,-1,0
 207 614 207 614 335 614 c 128,-1,1
335 584 m 128,-1,9
 238 584 238 584 179 506 c 128,-1,10
 120 428 120 428 120 300 c 128,-1,11
 120 172 120 172 179 94 c 128,-1,12
 238 16 238 16 335 16 c 0,13,14
 399 16 399 16 448 51.5 c 128,-1,15
 497 87 497 87 523.5 151.5 c 128,-1,16
 550 216 550 216 550 300 c 0,17,18
 550 428 550 428 491 506 c 128,-1,8
 432 584 432 584 335 584 c 128,-1,9
EndSplineSet
EndChar

StartChar: one
Encoding: 49 49 20
Width: 344
GlyphClass: 2
Flags: W
LayerCount: 2
Fore
SplineSet
143 64 m 2,0,-1
 143 537 l 2,1,2
 143 559 143 559 126.5 574.5 c 128,-1,3
 110 590 110 590 88 590 c 2,4,-1
 67 590 l 1,5,-1
 67 600 l 1,6,-1
 283 600 l 1,7,-1
 283 590 l 1,8,-1
 262 590 l 2,9,10
 240 590 240 590 224 574 c 128,-1,11
 208 558 208 558 208 536 c 2,12,-1
 208 64 l 2,13,14
 208 33 208 33 236 17 c 0,15,16
 248 10 248 10 263 10 c 2,17,-1
 284 10 l 1,18,-1
 284 0 l 1,19,-1
 67 0 l 1,20,-1
 68 10 l 1,21,-1
 89 10 l 2,22,23
 111 10 111 10 127 26 c 128,-1,24
 143 42 143 42 143 64 c 2,0,-1
EndSplineSet
EndChar

StartChar: two
Encoding: 50 50 21
Width: 553
GlyphClass: 2
Flags: W
LayerCount: 2
Fore
SplineSet
253 614 m 0,0,1
 354 614 354 614 414 568 c 128,-1,2
 474 522 474 522 474 443 c 0,3,4
 474 374 474 374 424 305 c 0,5,6
 406 280 406 280 392.5 262.5 c 128,-1,7
 379 245 379 245 353.5 220 c 128,-1,8
 328 195 328 195 314 181.5 c 128,-1,9
 300 168 300 168 271 144 c 128,-1,10
 242 120 242 120 231 111.5 c 128,-1,11
 220 103 220 103 191.5 81 c 128,-1,12
 163 59 163 59 159 56 c 1,13,-1
 393 56 l 2,14,15
 436 56 436 56 459.5 71.5 c 128,-1,16
 483 87 483 87 511 130 c 1,17,-1
 521 130 l 1,18,-1
 473 0 l 1,19,-1
 58 0 l 1,20,-1
 58 9 l 1,21,22
 399 289 399 289 399 441 c 0,23,24
 399 510 399 510 360.5 548.5 c 128,-1,25
 322 587 322 587 257 587 c 0,26,27
 183 587 183 587 140.5 552.5 c 128,-1,28
 98 518 98 518 100 455 c 1,29,-1
 90 455 l 1,30,-1
 73 557 l 1,31,32
 101 582 101 582 152.5 598 c 128,-1,33
 204 614 204 614 253 614 c 0,0,1
EndSplineSet
EndChar

StartChar: three
Encoding: 51 51 22
Width: 503
GlyphClass: 2
Flags: W
LayerCount: 2
Fore
SplineSet
61 541 m 1,0,1
 124 612 124 612 233 612 c 0,2,3
 311 612 311 612 362.5 571 c 128,-1,4
 414 530 414 530 414 466 c 128,-1,5
 414 402 414 402 371 352 c 128,-1,6
 328 302 328 302 277 297 c 1,7,8
 341 286 341 286 387 238.5 c 128,-1,9
 433 191 433 191 433 124.5 c 128,-1,10
 433 58 433 58 403 7 c 0,11,12
 340 -100 340 -100 203 -130 c 0,13,14
 165 -138 165 -138 129.5 -138 c 128,-1,15
 94 -138 94 -138 60 -132 c 1,16,-1
 62 -122 l 1,17,18
 67 -122 67 -122 72 -122 c 0,19,20
 145 -122 145 -122 210.5 -93 c 128,-1,21
 276 -64 276 -64 317 -7.5 c 128,-1,22
 358 49 358 49 358 125 c 128,-1,23
 358 201 358 201 302 242.5 c 128,-1,24
 246 284 246 284 153 284 c 1,25,-1
 155 294 l 1,26,27
 155 294 155 294 156 294 c 0,28,29
 201 294 201 294 243 313.5 c 128,-1,30
 285 333 285 333 311.5 371 c 128,-1,31
 338 409 338 409 338 455 c 0,32,33
 338 511 338 511 306 546.5 c 128,-1,34
 274 582 274 582 213.5 582 c 128,-1,35
 153 582 153 582 120.5 546.5 c 128,-1,36
 88 511 88 511 88 458 c 0,37,38
 88 453 88 453 88 448 c 1,39,-1
 78 448 l 1,40,-1
 61 541 l 1,0,1
EndSplineSet
EndChar

StartChar: four
Encoding: 52 52 23
Width: 583
GlyphClass: 2
Flags: W
LayerCount: 2
Fore
SplineSet
416 149 m 1,0,-1
 416 -37 l 2,1,2
 416 -59 416 -59 428 -70 c 0,3,4
 448 -90 448 -90 471 -90 c 2,5,-1
 482 -90 l 1,6,-1
 482 -100 l 1,7,-1
 284 -100 l 1,8,-1
 285 -90 l 1,9,-1
 295 -90 l 2,10,11
 318 -90 318 -90 334 -75 c 128,-1,12
 350 -60 350 -60 351 -38 c 1,13,-1
 351 149 l 1,14,-1
 40 149 l 1,15,-1
 40 159 l 1,16,-1
 406 614 l 1,17,-1
 416 614 l 1,18,-1
 416 204 l 1,19,-1
 459 204 l 2,20,21
 485 204 485 204 494.5 208 c 128,-1,22
 504 212 504 212 514 224 c 1,23,-1
 524 224 l 1,24,-1
 503 149 l 1,25,-1
 416 149 l 1,0,-1
351 204 m 1,26,-1
 351 496 l 1,27,-1
 115 204 l 1,28,-1
 351 204 l 1,26,-1
EndSplineSet
EndChar

StartChar: five
Encoding: 53 53 24
Width: 498
GlyphClass: 2
Flags: W
LayerCount: 2
Fore
SplineSet
108 351 m 1,0,1
 164 363 164 363 209.5 363 c 128,-1,2
 255 363 255 363 294 349 c 0,3,4
 423 303 423 303 423 165 c 0,5,6
 423 109 423 109 404.5 63.5 c 128,-1,7
 386 18 386 18 359 -11.5 c 128,-1,8
 332 -41 332 -41 298 -65 c 128,-1,9
 264 -89 264 -89 229 -102 c 0,10,11
 140 -133 140 -133 98 -133 c 0,12,13
 74 -133 74 -133 50 -131 c 1,14,-1
 52 -121 l 1,15,16
 54 -121 54 -121 67.5 -121 c 128,-1,17
 81 -121 81 -121 115 -111.5 c 128,-1,18
 149 -102 149 -102 188.5 -80 c 128,-1,19
 228 -58 228 -58 262 -28 c 128,-1,20
 296 2 296 2 320 48 c 0,21,22
 348 102 348 102 348 159.5 c 128,-1,23
 348 217 348 217 313 258 c 0,24,25
 270 308 270 308 182 308 c 0,26,27
 130 308 130 308 66 289 c 1,28,-1
 57 293 l 1,29,-1
 135 564 l 1,30,-1
 333 579 l 1,31,32
 387 579 387 579 412 629 c 1,33,-1
 422 629 l 1,34,-1
 389 524 l 1,35,-1
 154 509 l 1,36,-1
 108 351 l 1,0,1
EndSplineSet
EndChar

StartChar: six
Encoding: 54 54 25
Width: 560
GlyphClass: 2
Flags: W
LayerCount: 2
Fore
SplineSet
296 367 m 0,0,1
 224 367 224 367 185 315 c 1,2,-1
 179 324 l 1,3,4
 210 361 210 361 251 382.5 c 128,-1,5
 292 404 292 404 334 404 c 128,-1,6
 376 404 376 404 413 386 c 128,-1,7
 450 368 450 368 476 324 c 1,8,9
 505 271 505 271 505 195 c 128,-1,10
 505 119 505 119 449 53 c 0,11,12
 392 -15 392 -15 291.5 -15 c 128,-1,13
 191 -15 191 -15 128 60.5 c 128,-1,14
 65 136 65 136 65 264 c 0,15,16
 65 373 65 373 102 477 c 0,17,18
 138 577 138 577 213 648 c 0,19,20
 289 721 289 721 401 734 c 1,21,-1
 405 727 l 1,22,23
 335 705 335 705 283.5 660 c 128,-1,24
 232 615 232 615 201 553 c 0,25,26
 140 433 140 433 140 272 c 0,27,28
 140 155 140 155 180 85 c 128,-1,29
 220 15 220 15 291 15 c 128,-1,30
 362 15 362 15 396 68.5 c 128,-1,31
 430 122 430 122 430 196 c 0,32,33
 430 305 430 305 368 346 c 0,34,35
 338 367 338 367 296 367 c 0,0,1
EndSplineSet
EndChar

StartChar: seven
Encoding: 55 55 26
Width: 502
GlyphClass: 2
Flags: W
LayerCount: 2
Fore
SplineSet
120 545 m 2,0,1
 91 545 91 545 74 530.5 c 128,-1,2
 57 516 57 516 45 485 c 1,3,-1
 35 485 l 1,4,-1
 63 598 l 1,5,-1
 463 598 l 1,6,-1
 355 310 l 2,7,8
 325 229 325 229 281.5 100.5 c 128,-1,9
 238 -28 238 -28 221 -100 c 1,10,11
 221 -100 221 -100 151 -100 c 1,12,13
 264 184 264 184 314 314 c 2,14,-1
 402 545 l 1,15,-1
 120 545 l 2,0,1
EndSplineSet
EndChar

StartChar: eight
Encoding: 56 56 27
Width: 552
GlyphClass: 2
Flags: W
LayerCount: 2
Fore
SplineSet
433 38.5 m 128,-1,1
 374 -14 374 -14 275.5 -14 c 128,-1,2
 177 -14 177 -14 118.5 38.5 c 128,-1,3
 60 91 60 91 60 171 c 0,4,5
 60 240 60 240 97 286.5 c 128,-1,6
 134 333 134 333 204 366 c 1,7,8
 96 444 96 444 96 547 c 0,9,10
 96 619 96 619 145 666 c 0,11,12
 195 714 195 714 276 714 c 128,-1,13
 357 714 357 714 406.5 669 c 128,-1,14
 456 624 456 624 456 545 c 0,15,16
 456 485 456 485 424 439.5 c 128,-1,17
 392 394 392 394 333 373 c 1,18,19
 424 328 424 328 458 283 c 1,20,21
 492 236 492 236 492 175 c 0,22,0
 492 91 492 91 433 38.5 c 128,-1,1
171 560 m 0,23,24
 171 462 171 462 274 403 c 1,25,-1
 296 391 l 1,26,27
 381 454 381 454 381 553 c 0,28,29
 381 613 381 613 353 648.5 c 128,-1,30
 325 684 325 684 276 684 c 128,-1,31
 227 684 227 684 199 647.5 c 128,-1,32
 171 611 171 611 171 560 c 0,23,24
135 168 m 0,33,34
 135 99 135 99 172.5 57.5 c 128,-1,35
 210 16 210 16 277.5 16 c 128,-1,36
 345 16 345 16 381 58.5 c 128,-1,37
 417 101 417 101 417 161 c 0,38,39
 417 197 417 197 408.5 214.5 c 128,-1,40
 400 232 400 232 393.5 242 c 128,-1,41
 387 252 387 252 376.5 261.5 c 128,-1,42
 366 271 366 271 358 277.5 c 128,-1,43
 350 284 350 284 336.5 291.5 c 128,-1,44
 323 299 323 299 315 303.5 c 128,-1,45
 307 308 307 308 292 315 c 0,46,47
 257 333 257 333 234 347 c 1,48,49
 135 280 135 280 135 168 c 0,33,34
EndSplineSet
EndChar

StartChar: nine
Encoding: 57 57 28
Width: 560
GlyphClass: 2
Flags: W
LayerCount: 2
Fore
SplineSet
229 195 m 0,0,1
 128 195 128 195 82 276 c 0,2,3
 56 323 56 323 56 391 c 0,4,5
 56 488 56 488 114 549 c 0,6,7
 174 612 174 612 273.5 612 c 128,-1,8
 373 612 373 612 434 536.5 c 128,-1,9
 495 461 495 461 495 324 c 0,10,11
 495 194 495 194 443 82 c 0,12,13
 385 -45 385 -45 283 -100 c 0,14,15
 226 -131 226 -131 159 -137 c 1,16,-1
 156 -130 l 1,17,18
 224 -111 224 -111 276 -66.5 c 128,-1,19
 328 -22 328 -22 359 40 c 0,20,21
 420 161 420 161 420 302 c 0,22,23
 420 582 420 582 266 582 c 0,24,25
 198 582 198 582 164.5 530 c 128,-1,26
 131 478 131 478 131 402 c 0,27,28
 131 323 131 323 166.5 276.5 c 128,-1,29
 202 230 202 230 263 230 c 0,30,31
 307 230 307 230 345 255 c 0,32,33
 362 266 362 266 376 282 c 1,34,-1
 381 273 l 1,35,36
 352 236 352 236 311 215.5 c 128,-1,37
 270 195 270 195 229 195 c 0,0,1
EndSplineSet
EndChar

StartChar: colon
Encoding: 58 58 29
Width: 179
GlyphClass: 2
Flags: W
LayerCount: 2
Fore
SplineSet
90 379 m 128,-1,1
 71 379 71 379 58 392 c 128,-1,2
 45 405 45 405 45 423.5 c 128,-1,3
 45 442 45 442 58 455.5 c 128,-1,4
 71 469 71 469 90 469 c 128,-1,5
 109 469 109 469 122 455.5 c 128,-1,6
 135 442 135 442 135 423.5 c 128,-1,7
 135 405 135 405 122 392 c 128,-1,0
 109 379 109 379 90 379 c 128,-1,1
90 -4 m 128,-1,9
 71 -4 71 -4 58 9 c 128,-1,10
 45 22 45 22 45 41 c 128,-1,11
 45 60 45 60 58 73 c 128,-1,12
 71 86 71 86 90 86 c 128,-1,13
 109 86 109 86 122 73 c 128,-1,14
 135 60 135 60 135 41 c 128,-1,15
 135 22 135 22 122 9 c 128,-1,8
 109 -4 109 -4 90 -4 c 128,-1,9
EndSplineSet
EndChar

StartChar: semicolon
Encoding: 59 59 30
Width: 184
GlyphClass: 2
Flags: W
LayerCount: 2
Fore
SplineSet
90 407 m 128,-1,1
 71 407 71 407 58 420.5 c 128,-1,2
 45 434 45 434 45 452.5 c 128,-1,3
 45 471 45 471 58 484 c 128,-1,4
 71 497 71 497 90 497 c 128,-1,5
 109 497 109 497 122 484 c 128,-1,6
 135 471 135 471 135 452.5 c 128,-1,7
 135 434 135 434 122 420.5 c 128,-1,0
 109 407 109 407 90 407 c 128,-1,1
45 -81 m 1,8,9
 72 -72 72 -72 81.5 -56 c 128,-1,10
 91 -40 91 -40 91 -32 c 0,11,12
 91 -7 91 -7 71 15 c 1,13,14
 56 33 56 33 54 40 c 0,15,16
 51 54 51 54 56 66 c 0,17,18
 65 86 65 86 89 86 c 0,19,20
 119 86 119 86 130 58.5 c 128,-1,21
 141 31 141 31 141 14 c 0,22,23
 141 -38 141 -38 104 -67 c 1,24,25
 79 -88 79 -88 47 -89 c 1,26,-1
 45 -81 l 1,8,9
EndSplineSet
EndChar

StartChar: less
Encoding: 60 60 31
Width: 481
GlyphClass: 2
Flags: W
LayerCount: 2
Fore
SplineSet
442 523 m 1,0,-1
 442 475 l 1,1,-1
 99 310 l 1,2,-1
 442 144 l 1,3,-1
 442 96 l 1,4,-1
 40 287 l 1,5,-1
 40 332 l 1,6,-1
 442 523 l 1,0,-1
EndSplineSet
EndChar

StartChar: equal
Encoding: 61 61 32
Width: 481
GlyphClass: 2
Flags: W
LayerCount: 2
Fore
SplineSet
40 364 m 1,0,-1
 40 409 l 1,1,-1
 442 409 l 1,2,-1
 442 364 l 1,3,-1
 40 364 l 1,0,-1
40 189 m 1,4,-1
 40 234 l 1,5,-1
 442 234 l 1,6,-1
 442 189 l 1,7,-1
 40 189 l 1,4,-1
EndSplineSet
EndChar

StartChar: greater
Encoding: 62 62 33
Width: 481
GlyphClass: 2
Flags: W
LayerCount: 2
Fore
SplineSet
40 523 m 1,0,-1
 442 332 l 1,1,-1
 442 287 l 1,2,-1
 40 96 l 1,3,-1
 40 144 l 1,4,-1
 382 310 l 1,5,-1
 40 475 l 1,6,-1
 40 523 l 1,0,-1
EndSplineSet
EndChar

StartChar: question
Encoding: 63 63 34
Width: 413
GlyphClass: 2
Flags: W
LayerCount: 2
Fore
SplineSet
168 714 m 0,0,1
 259 714 259 714 311 669 c 128,-1,2
 363 624 363 624 363 544 c 0,3,4
 363 482 363 482 323 433 c 0,5,6
 290 392 290 392 257 362 c 0,7,8
 198 308 198 308 186 267 c 1,9,10
 179 247 179 247 179 222.5 c 128,-1,11
 179 198 179 198 196 175 c 1,12,-1
 190 170 l 1,13,14
 146 211 146 211 146 266 c 0,15,16
 146 311 146 311 196 369 c 0,17,18
 217 393 217 393 238 419 c 0,19,20
 288 480 288 480 288 544 c 0,21,22
 288 633 288 633 232 667 c 0,23,24
 205 684 205 684 168 684 c 0,25,26
 108 684 108 684 74 643.5 c 128,-1,27
 40 603 40 603 40 536 c 0,28,29
 40 533 40 533 40 530 c 1,30,-1
 30 530 l 1,31,-1
 20 625 l 1,32,33
 43 667 43 667 81.5 690.5 c 128,-1,34
 120 714 120 714 168 714 c 0,0,1
180.5 -4 m 128,-1,36
 162 -4 162 -4 148.5 9 c 128,-1,37
 135 22 135 22 135 41 c 128,-1,38
 135 60 135 60 148.5 73 c 128,-1,39
 162 86 162 86 180.5 86 c 128,-1,40
 199 86 199 86 212 73 c 128,-1,41
 225 60 225 60 225 41 c 128,-1,42
 225 22 225 22 212 9 c 128,-1,35
 199 -4 199 -4 180.5 -4 c 128,-1,36
EndSplineSet
EndChar

StartChar: at
Encoding: 64 64 35
Width: 977
GlyphClass: 2
Flags: W
LayerCount: 2
Fore
SplineSet
59 240 m 128,-1,1
 59 314 59 314 91 395 c 1,2,3
 156 549 156 549 298 630 c 0,4,5
 408 693 408 693 540 693 c 0,6,7
 748 693 748 693 849 562 c 0,8,9
 917 473 917 473 917 357 c 0,10,11
 917 275 917 275 892 202.5 c 128,-1,12
 867 130 867 130 833 78 c 128,-1,13
 799 26 799 26 754 -15 c 0,14,15
 661 -100 661 -100 520 -119 c 0,16,17
 493 -123 493 -123 455 -123 c 0,18,19
 336 -123 336 -123 194 -63 c 1,20,-1
 190 -53 l 1,21,22
 312 -98 312 -98 416 -98 c 0,23,24
 465 -98 465 -98 510 -88 c 0,25,26
 650 -57 650 -57 740.5 49.5 c 128,-1,27
 831 156 831 156 850 309 c 0,28,29
 853 338 853 338 853 382 c 128,-1,30
 853 426 853 426 836 478 c 0,31,32
 811 554 811 554 754 600 c 0,33,34
 679 662 679 662 559.5 662 c 128,-1,35
 440 662 440 662 343 606 c 0,36,37
 220 534 220 534 156 390 c 0,38,39
 115 299 115 299 115 220 c 0,40,41
 115 175 115 175 130 145 c 0,42,43
 150 103 150 103 192 103 c 0,44,45
 224 103 224 103 247.5 122 c 128,-1,46
 271 141 271 141 284.5 154 c 128,-1,47
 298 167 298 167 314.5 188 c 128,-1,48
 331 209 331 209 341 222.5 c 128,-1,49
 351 236 351 236 367 259 c 128,-1,50
 383 282 383 282 390 291 c 2,51,-1
 572 541 l 1,52,-1
 579 541 l 1,53,-1
 620 137 l 2,54,55
 623 114 623 114 634.5 102 c 128,-1,56
 646 90 646 90 661 90 c 2,57,-1
 666 90 l 1,58,-1
 665 83 l 1,59,-1
 507 83 l 1,60,-1
 508 90 l 1,61,-1
 515 90 l 2,62,63
 528 90 528 90 542 100.5 c 128,-1,64
 556 111 556 111 556 127 c 2,65,-1
 550 234 l 1,66,-1
 386 234 l 1,67,68
 326 150 326 150 283 112 c 0,69,70
 240 73 240 73 188 73 c 128,-1,71
 136 73 136 73 97.5 119.5 c 128,-1,0
 59 166 59 166 59 240 c 128,-1,1
538 451 m 1,72,-1
 402 257 l 1,73,-1
 549 257 l 1,74,-1
 538 451 l 1,72,-1
EndSplineSet
EndChar

StartChar: A
Encoding: 65 65 36
Width: 712
GlyphClass: 2
Flags: W
LayerCount: 2
Fore
SplineSet
118 734 m 1,0,1
 183 761 183 761 243 761 c 0,2,3
 293 761 293 761 346 724 c 0,4,5
 375 704 375 704 411 646 c 0,6,7
 435 606 435 606 472 501 c 2,8,-1
 594 155 l 1,9,10
 636 39 636 39 679.5 -29.5 c 128,-1,11
 723 -98 723 -98 759 -132.5 c 128,-1,12
 795 -167 795 -167 834 -181 c 128,-1,13
 873 -195 873 -195 898.5 -195 c 128,-1,14
 924 -195 924 -195 944 -191 c 1,15,-1
 945 -201 l 1,16,17
 897 -217 897 -217 851 -217 c 128,-1,18
 805 -217 805 -217 759 -193.5 c 128,-1,19
 713 -170 713 -170 673 -128 c 1,20,21
 587 -41 587 -41 527 137 c 2,22,-1
 488 251 l 1,23,-1
 214 251 l 1,24,-1
 145 73 l 2,25,26
 140 61 140 61 140 49 c 128,-1,27
 140 37 140 37 150.5 23.5 c 128,-1,28
 161 10 161 10 183 10 c 2,29,-1
 191 10 l 1,30,-1
 191 0 l 1,31,-1
 -10 0 l 1,32,-1
 -10 10 l 1,33,-1
 -1 10 l 2,34,35
 23 10 23 10 46 24.5 c 128,-1,36
 69 39 69 39 84 68 c 1,37,-1
 332 662 l 1,38,39
 278 739 278 739 198 739 c 0,40,41
 162 739 162 739 121 724 c 1,42,-1
 118 734 l 1,0,1
225 281 m 1,43,-1
 478 281 l 1,44,-1
 399 514 l 2,45,46
 376 581 376 581 357 619 c 1,47,-1
 225 281 l 1,43,-1
EndSplineSet
EndChar

StartChar: B
Encoding: 66 66 37
Width: 594
GlyphClass: 2
Flags: W
LayerCount: 2
Fore
SplineSet
395 436 m 0,0,1
 377 417 377 417 354 408 c 1,2,3
 452 394 452 394 503 338.5 c 128,-1,4
 554 283 554 283 554 203 c 0,5,6
 554 106 554 106 476 46 c 128,-1,7
 398 -14 398 -14 271 -14 c 128,-1,8
 144 -14 144 -14 72 48.5 c 128,-1,9
 0 111 0 111 0 225 c 0,10,11
 0 231 0 231 0 237 c 1,12,-1
 11 239 l 1,13,14
 31 90 31 90 135 46 c 1,15,-1
 135 628 l 1,16,17
 133 655 133 655 114.5 672.5 c 128,-1,18
 96 690 96 690 70 690 c 2,19,-1
 58 690 l 1,20,-1
 58 700 l 1,21,-1
 226 700 l 2,22,23
 320 700 320 700 376.5 657 c 128,-1,24
 433 614 433 614 433 544.5 c 128,-1,25
 433 475 433 475 395 436 c 0,0,1
200 668 m 1,26,-1
 200 28 l 1,27,28
 233 23 233 23 276 23 c 0,29,30
 372 23 372 23 425.5 74.5 c 128,-1,31
 479 126 479 126 479 208 c 0,32,33
 479 252 479 252 462.5 286 c 128,-1,34
 446 320 446 320 421 339 c 0,35,36
 355 390 355 390 235 390 c 0,37,38
 234 390 234 390 234 390 c 1,39,-1
 233 399 l 2,40,41
 234 399 234 399 234 399 c 2,42,43
 285 399 285 399 321.5 432.5 c 128,-1,44
 358 466 358 466 358 536 c 0,45,46
 358 668 358 668 213 668 c 1,47,-1
 213 668 l 1,48,-1
 200 668 l 1,26,-1
EndSplineSet
EndChar

StartChar: C
Encoding: 67 67 38
Width: 821
GlyphClass: 2
Flags: W
LayerCount: 2
Fore
SplineSet
797 351 m 0,0,1
 797 179 797 179 704.5 82.5 c 128,-1,2
 612 -14 612 -14 443 -14 c 0,3,4
 329 -14 329 -14 237.5 34 c 128,-1,5
 146 82 146 82 95.5 165 c 128,-1,6
 45 248 45 248 45 350.5 c 128,-1,7
 45 453 45 453 95 536 c 128,-1,8
 145 619 145 619 233 666.5 c 128,-1,9
 321 714 321 714 429 714 c 0,10,11
 497 714 497 714 567.5 695.5 c 128,-1,12
 638 677 638 677 685 646 c 1,13,-1
 705 505 l 1,14,-1
 696 505 l 1,15,16
 675 589 675 589 599 636.5 c 128,-1,17
 523 684 523 684 430 684 c 0,18,19
 297 684 297 684 208.5 589.5 c 128,-1,20
 120 495 120 495 120 352 c 128,-1,21
 120 209 120 209 211.5 112.5 c 128,-1,22
 303 16 303 16 451 16 c 128,-1,23
 599 16 599 16 692.5 112 c 128,-1,24
 786 208 786 208 786 375 c 1,25,-1
 796 375 l 1,26,27
 797 363 797 363 797 351 c 0,0,1
EndSplineSet
EndChar

StartChar: D
Encoding: 68 68 39
Width: 838
GlyphClass: 2
Flags: W
LayerCount: 2
Fore
SplineSet
-100 554 m 1,0,1
 -71 639 -71 639 -3 671 c 128,-1,2
 65 703 65 703 238 703 c 0,3,4
 274 703 274 703 420 700 c 0,5,6
 526 697 526 697 607 654 c 128,-1,7
 688 611 688 611 733.5 532.5 c 128,-1,8
 779 454 779 454 779 350 c 0,9,10
 779 193 779 193 679.5 96.5 c 128,-1,11
 580 0 580 0 420 0 c 2,12,-1
 81 0 l 1,13,-1
 82 10 l 1,14,-1
 94 10 l 2,15,16
 119 10 119 10 137 26.5 c 128,-1,17
 155 43 155 43 158 67 c 1,18,-1
 158 670 l 1,19,20
 33 667 33 667 -19 631 c 0,21,22
 -46 612 -46 612 -60 594.5 c 128,-1,23
 -74 577 -74 577 -89 550 c 1,24,-1
 -100 554 l 1,0,1
223 670 m 1,25,-1
 223 30 l 1,26,-1
 420 30 l 2,27,28
 547 30 547 30 625.5 118 c 128,-1,29
 704 206 704 206 704 350 c 0,30,31
 704 445 704 445 668.5 517.5 c 128,-1,32
 633 590 633 590 568.5 630 c 128,-1,33
 504 670 504 670 420 670 c 2,34,-1
 223 670 l 1,25,-1
EndSplineSet
EndChar

StartChar: E
Encoding: 69 69 40
Width: 607
GlyphClass: 2
Flags: W
LayerCount: 2
Fore
SplineSet
73 10 m 2,0,1
 99 10 99 10 117.5 28.5 c 128,-1,2
 136 47 136 47 137 73 c 1,3,-1
 137 633 l 2,4,5
 137 657 137 657 118 673.5 c 128,-1,6
 99 690 99 690 73 690 c 2,7,-1
 61 690 l 1,8,-1
 60 700 l 1,9,-1
 263 700 l 2,10,11
 294 700 294 700 330.5 706 c 128,-1,12
 367 712 367 712 382 718 c 1,13,-1
 382 592 l 1,14,-1
 372 592 l 1,15,-1
 372 610 l 2,16,17
 372 634 372 634 355.5 651 c 128,-1,18
 339 668 339 668 316 669 c 1,19,-1
 202 669 l 1,20,-1
 202 360 l 1,21,-1
 392 360 l 1,22,23
 412 361 412 361 426 375 c 128,-1,24
 440 389 440 389 440 410 c 2,25,-1
 440 424 l 1,26,-1
 450 424 l 1,27,-1
 450 266 l 1,28,-1
 440 266 l 1,29,-1
 440 281 l 2,30,31
 440 301 440 301 426.5 315 c 128,-1,32
 413 329 413 329 393 330 c 1,33,-1
 202 330 l 1,34,-1
 202 31 l 1,35,-1
 415 31 l 2,36,37
 489 31 489 31 528 64 c 128,-1,38
 567 97 567 97 593 162 c 1,39,-1
 603 162 l 1,40,-1
 545 0 l 1,41,-1
 60 0 l 1,42,-1
 60 10 l 1,43,-1
 73 10 l 2,0,1
EndSplineSet
EndChar

StartChar: F
Encoding: 70 70 41
Width: 579
GlyphClass: 2
Flags: W
LayerCount: 2
Fore
SplineSet
569 281 m 2,0,1
 569 301 569 301 555.5 315 c 128,-1,2
 542 329 542 329 522 330 c 1,3,-1
 202 330 l 1,4,-1
 202 73 l 2,5,6
 202 47 202 47 221 28.5 c 128,-1,7
 240 10 240 10 266 10 c 2,8,-1
 279 10 l 1,9,-1
 279 0 l 1,10,-1
 60 0 l 1,11,-1
 60 10 l 1,12,-1
 73 10 l 2,13,14
 99 10 99 10 117.5 28.5 c 128,-1,15
 136 47 136 47 137 73 c 1,16,-1
 137 633 l 2,17,18
 137 657 137 657 117.5 673.5 c 128,-1,19
 98 690 98 690 73 690 c 2,20,-1
 61 690 l 1,21,-1
 60 700 l 1,22,-1
 353 700 l 2,23,24
 396 700 396 700 429 707 c 128,-1,25
 462 714 462 714 472 718 c 1,26,-1
 472 605 l 1,27,-1
 462 605 l 1,28,-1
 462 620 l 2,29,30
 462 640 462 640 448 654.5 c 128,-1,31
 434 669 434 669 413 669 c 2,32,-1
 202 669 l 1,33,-1
 202 360 l 1,34,-1
 521 360 l 1,35,36
 541 361 541 361 555 375 c 128,-1,37
 569 389 569 389 569 410 c 2,38,-1
 569 424 l 1,39,-1
 579 424 l 1,40,-1
 579 266 l 1,41,-1
 569 266 l 1,42,-1
 569 281 l 2,0,1
EndSplineSet
EndChar

StartChar: G
Encoding: 71 71 42
Width: 846
GlyphClass: 2
Flags: W
LayerCount: 2
Fore
SplineSet
969 -174 m 0,0,1
 842 -174 842 -174 761 -93 c 0,2,3
 701 -33 701 -33 682 58 c 1,4,5
 587 -14 587 -14 449 -14 c 0,6,7
 340 -14 340 -14 250.5 33.5 c 128,-1,8
 161 81 161 81 110.5 164 c 128,-1,9
 60 247 60 247 60 351 c 128,-1,10
 60 455 60 455 110.5 538.5 c 128,-1,11
 161 622 161 622 250 668 c 128,-1,12
 339 714 339 714 449 714 c 0,13,14
 587 714 587 714 692 646 c 1,15,-1
 712 505 l 1,16,-1
 703 505 l 1,17,18
 673 621 673 621 567 663 c 0,19,20
 515 684 515 684 449 684 c 0,21,22
 314 684 314 684 224.5 590 c 128,-1,23
 135 496 135 496 135 351.5 c 128,-1,24
 135 207 135 207 225 112 c 128,-1,25
 315 17 315 17 449 16 c 0,26,27
 514 16 514 16 573 39 c 128,-1,28
 632 62 632 62 674 103 c 1,29,-1
 674 280 l 2,30,31
 674 302 674 302 661 313.5 c 128,-1,32
 648 325 648 325 624 325 c 2,33,-1
 608 325 l 1,34,-1
 608 335 l 1,35,-1
 804 335 l 1,36,-1
 804 325 l 1,37,-1
 789 325 l 2,38,39
 764 325 764 325 751 313.5 c 128,-1,40
 738 302 738 302 739 280 c 1,41,-1
 739 126 l 1,42,43
 745 -32 745 -32 842 -100 c 0,44,45
 910 -148 910 -148 1018 -148 c 0,46,47
 1063 -148 1063 -148 1116 -139 c 1,48,-1
 1117 -149 l 1,49,50
 1037 -174 1037 -174 969 -174 c 0,0,1
EndSplineSet
EndChar

StartChar: H
Encoding: 72 72 43
Width: 813
GlyphClass: 2
Flags: W
LayerCount: 2
Fore
SplineSet
729 10 m 2,0,-1
 741 10 l 1,1,-1
 741 0 l 1,2,-1
 523 0 l 1,3,-1
 523 10 l 1,4,-1
 536 10 l 2,5,6
 561 10 561 10 579.5 27.5 c 128,-1,7
 598 45 598 45 600 71 c 1,8,-1
 600 331 l 1,9,-1
 213 331 l 1,10,-1
 213 70 l 2,11,12
 213 -70 213 -70 145 -118 c 0,13,14
 114 -140 114 -140 65 -151 c 1,15,-1
 60 -142 l 1,16,17
 105 -118 105 -118 126.5 -68 c 128,-1,18
 148 -18 148 -18 148 70 c 2,19,-1
 148 628 l 2,20,21
 148 654 148 654 129 672 c 128,-1,22
 110 690 110 690 84 690 c 2,23,-1
 72 690 l 1,24,-1
 72 700 l 1,25,-1
 290 700 l 1,26,-1
 290 690 l 1,27,-1
 277 690 l 2,28,29
 251 690 251 690 232.5 672 c 128,-1,30
 214 654 214 654 213 628 c 1,31,-1
 213 361 l 1,32,-1
 600 361 l 1,33,-1
 600 610 l 1,34,35
 601 738 601 738 657 788 c 0,36,37
 691 818 691 818 749 831 c 1,38,-1
 754 822 l 1,39,40
 709 798 709 798 687 748 c 128,-1,41
 665 698 665 698 665 610 c 2,42,-1
 665 73 l 2,43,44
 665 47 665 47 683.5 28.5 c 128,-1,45
 702 10 702 10 729 10 c 2,0,-1
EndSplineSet
EndChar

StartChar: I
Encoding: 73 73 44
Width: 393
GlyphClass: 2
Flags: W
LayerCount: 2
Fore
SplineSet
321 10 m 2,0,-1
 334 10 l 1,1,-1
 334 0 l 1,2,-1
 115 0 l 1,3,-1
 115 10 l 1,4,-1
 128 10 l 2,5,6
 154 10 154 10 173 28.5 c 128,-1,7
 192 47 192 47 192 73 c 2,8,-1
 192 673 l 1,9,-1
 85 667 l 2,10,11
 -16 661 -16 661 -16 594 c 0,12,13
 -16 567 -16 567 1.5 548 c 128,-1,14
 19 529 19 529 57 527 c 1,15,-1
 57 521 l 1,16,17
 43 518 43 518 29 518 c 0,18,19
 -15 518 -15 518 -37 553 c 0,20,21
 -50 573 -50 573 -50 597 c 0,22,23
 -50 682 -50 682 79 696 c 0,24,25
 80 696 80 696 178.5 702.5 c 128,-1,26
 277 709 277 709 334 720 c 1,27,-1
 336 710 l 1,28,29
 293 703 293 703 275 681 c 128,-1,30
 257 659 257 659 257 620 c 2,31,-1
 257 73 l 1,32,33
 258 47 258 47 276.5 28.5 c 128,-1,34
 295 10 295 10 321 10 c 2,0,-1
EndSplineSet
EndChar

StartChar: J
Encoding: 74 74 45
Width: 339
GlyphClass: 2
Flags: W
LayerCount: 2
Fore
SplineSet
-80 -135 m 1,0,1
 -53 -144 -53 -144 -26.5 -144 c 128,-1,2
 0 -144 0 -144 29 -133 c 128,-1,3
 58 -122 58 -122 82 -98.5 c 128,-1,4
 106 -75 106 -75 121.5 -28 c 128,-1,5
 137 19 137 19 137 83 c 2,6,-1
 137 627 l 1,7,8
 136 653 136 653 117.5 671.5 c 128,-1,9
 99 690 99 690 73 690 c 2,10,-1
 60 690 l 1,11,-1
 60 700 l 1,12,-1
 279 700 l 1,13,-1
 279 690 l 1,14,-1
 266 690 l 2,15,16
 240 690 240 690 221.5 672 c 128,-1,17
 203 654 203 654 202 627 c 1,18,-1
 202 80 l 2,19,20
 202 12 202 12 181 -39 c 128,-1,21
 160 -90 160 -90 128 -116 c 0,22,23
 68 -163 68 -163 -5 -163 c 0,24,25
 -48 -163 -48 -163 -84 -146 c 1,26,-1
 -80 -135 l 1,0,1
EndSplineSet
EndChar

StartChar: K
Encoding: 75 75 46
Width: 669
GlyphClass: 2
Flags: W
LayerCount: 2
Fore
SplineSet
266 10 m 2,0,-1
 279 10 l 1,1,-1
 279 0 l 1,2,-1
 60 0 l 1,3,-1
 60 10 l 1,4,-1
 73 10 l 2,5,6
 99 10 99 10 117.5 28.5 c 128,-1,7
 136 47 136 47 137 73 c 1,8,-1
 137 628 l 1,9,10
 136 654 136 654 117.5 672 c 128,-1,11
 99 690 99 690 73 690 c 2,12,-1
 60 690 l 1,13,-1
 60 700 l 1,14,-1
 279 700 l 1,15,-1
 279 690 l 1,16,-1
 266 690 l 2,17,18
 240 690 240 690 221.5 672 c 128,-1,19
 203 654 203 654 202 628 c 1,20,-1
 202 73 l 2,21,22
 202 47 202 47 221 28.5 c 128,-1,23
 240 10 240 10 266 10 c 2,0,-1
959 -150 m 1,24,-1
 959 -160 l 1,25,26
 921 -169 921 -169 883 -169 c 0,27,28
 719 -169 719 -169 565 -5 c 2,29,-1
 234 348 l 1,30,-1
 470 644 l 2,31,32
 478 654 478 654 478 662 c 128,-1,33
 478 670 478 670 475 676 c 0,34,35
 467 691 467 691 446 691 c 2,36,-1
 436 691 l 1,37,-1
 436 700 l 1,38,-1
 647 700 l 1,39,-1
 647 691 l 1,40,-1
 643 691 l 2,41,42
 577 691 577 691 535 644 c 2,43,-1
 302 375 l 1,44,-1
 642 12 l 2,45,46
 708 -59 708 -59 790.5 -104.5 c 128,-1,47
 873 -150 873 -150 959 -150 c 1,24,-1
EndSplineSet
EndChar

StartChar: L
Encoding: 76 76 47
Width: 401
GlyphClass: 2
Flags: W
LayerCount: 2
Fore
SplineSet
250 -19 m 0,0,1
 463 -93 463 -93 569.5 -119.5 c 128,-1,2
 676 -146 676 -146 752.5 -146 c 128,-1,3
 829 -146 829 -146 921 -111 c 1,4,-1
 926 -119 l 1,5,6
 804 -203 804 -203 680 -203 c 0,7,8
 553 -203 553 -203 391 -124 c 0,9,10
 266 -62 266 -62 236 -49 c 0,11,12
 129 -1 129 -1 60 0 c 1,13,-1
 60 10 l 1,14,-1
 73 10 l 2,15,16
 99 10 99 10 117.5 28 c 128,-1,17
 136 46 136 46 137 73 c 1,18,-1
 137 627 l 1,19,20
 136 653 136 653 117.5 671.5 c 128,-1,21
 99 690 99 690 73 690 c 2,22,-1
 60 690 l 1,23,-1
 60 700 l 1,24,-1
 279 700 l 1,25,-1
 279 690 l 1,26,-1
 266 690 l 2,27,28
 240 690 240 690 221 671.5 c 128,-1,29
 202 653 202 653 202 627 c 2,30,-1
 202 50 l 2,31,32
 202 32 202 32 204 22.5 c 128,-1,33
 206 13 206 13 217 1 c 128,-1,34
 228 -11 228 -11 250 -19 c 0,0,1
EndSplineSet
EndChar

StartChar: M
Encoding: 77 77 48
Width: 931
GlyphClass: 2
Flags: W
LayerCount: 2
Fore
SplineSet
1100 -162 m 0,0,1
 1106 -162 1106 -162 1112 -162 c 1,2,-1
 1112 -172 l 1,3,4
 1084 -176 1084 -176 1049.5 -176 c 128,-1,5
 1015 -176 1015 -176 964.5 -161 c 128,-1,6
 914 -146 914 -146 873 -105 c 0,7,8
 789 -21 789 -21 771 113 c 2,9,-1
 710 558 l 1,10,-1
 502 88 l 2,11,12
 474 27 474 27 468 -14 c 1,13,-1
 458 -14 l 1,14,-1
 199 549 l 1,15,-1
 155 52 l 2,16,17
 153 35 153 35 165.5 22 c 128,-1,18
 178 9 178 9 193 9 c 1,19,20
 193 9 193 9 193 9 c 1,21,-1
 209 9 l 1,22,-1
 209 0 l 1,23,-1
 15 0 l 1,24,-1
 15 10 l 1,25,-1
 31 10 l 2,26,27
 58 10 58 10 78.5 26.5 c 128,-1,28
 99 43 99 43 104 70 c 1,29,-1
 167 616 l 1,30,31
 79 789 79 789 -44 789 c 0,32,33
 -55 789 -55 789 -67 788 c 1,34,-1
 -67 798 l 1,35,36
 -40 805 -40 805 -23 805 c 128,-1,37
 -6 805 -6 805 14 803.5 c 128,-1,38
 34 802 34 802 61 794 c 128,-1,39
 88 786 88 786 112 770.5 c 128,-1,40
 136 755 136 755 154 738.5 c 128,-1,41
 172 722 172 722 188 702 c 0,42,43
 215 666 215 666 231 633 c 2,44,-1
 472 111 l 1,45,-1
 741 714 l 1,46,-1
 750 714 l 1,47,-1
 843 122 l 2,48,49
 864 -18 864 -18 933.5 -90 c 128,-1,50
 1003 -162 1003 -162 1100 -162 c 0,0,1
EndSplineSet
EndChar

StartChar: N
Encoding: 78 78 49
Width: 841
GlyphClass: 2
Flags: W
LayerCount: 2
Fore
SplineSet
1054 -152 m 1,0,1
 974 -177 974 -177 910 -161 c 1,2,3
 843 -143 843 -143 794 -105 c 1,4,5
 747 -67 747 -67 698 -14 c 2,6,-1
 171 570 l 1,7,-1
 171 70 l 1,8,9
 172 35 172 35 202 18 c 0,10,11
 216 10 216 10 232 10 c 2,12,-1
 251 10 l 1,13,-1
 251 0 l 1,14,-1
 45 0 l 1,15,-1
 45 10 l 1,16,-1
 64 10 l 2,17,18
 89 10 89 10 107 27.5 c 128,-1,19
 125 45 125 45 125 71 c 2,20,-1
 125 620 l 1,21,22
 120 627 120 627 105 646.5 c 128,-1,23
 90 666 90 666 80 678 c 128,-1,24
 70 690 70 690 53 709.5 c 128,-1,25
 36 729 36 729 21.5 741 c 128,-1,26
 7 753 7 753 -12 769 c 1,27,28
 -42 792 -42 792 -76 802 c 128,-1,29
 -110 812 -110 812 -133.5 812 c 128,-1,30
 -157 812 -157 812 -184 804 c 1,31,-1
 -188 814 l 1,32,33
 -140 834 -140 834 -95.5 834 c 128,-1,34
 -51 834 -51 834 -19 823.5 c 128,-1,35
 13 813 13 813 50 786 c 128,-1,36
 87 759 87 759 110.5 736 c 128,-1,37
 134 713 134 713 167 676 c 2,38,-1
 671 116 l 1,39,-1
 671 629 l 1,40,41
 670 655 670 655 652 672.5 c 128,-1,42
 634 690 634 690 609 690 c 2,43,-1
 590 690 l 1,44,-1
 590 700 l 1,45,-1
 796 700 l 1,46,-1
 796 690 l 1,47,-1
 778 690 l 2,48,49
 753 690 753 690 735 672.5 c 128,-1,50
 717 655 717 655 716 630 c 1,51,-1
 716 65 l 1,52,53
 726 54 726 54 744.5 32 c 128,-1,54
 763 10 763 10 770.5 1 c 128,-1,55
 778 -8 778 -8 793 -25 c 128,-1,56
 808 -42 808 -42 818.5 -51.5 c 128,-1,57
 829 -61 829 -61 844.5 -75.5 c 128,-1,58
 860 -90 860 -90 873.5 -98.5 c 128,-1,59
 887 -107 887 -107 904 -118 c 0,60,61
 928 -132 928 -132 958.5 -139 c 128,-1,62
 989 -146 989 -146 1008.5 -146 c 128,-1,63
 1028 -146 1028 -146 1050 -142 c 1,64,-1
 1054 -152 l 1,0,1
EndSplineSet
EndChar

StartChar: O
Encoding: 79 79 50
Width: 929
GlyphClass: 2
Flags: W
LayerCount: 2
Fore
SplineSet
277 467 m 1,0,1
 273 480 273 480 273 489.5 c 128,-1,2
 273 499 273 499 274 511 c 128,-1,3
 275 523 275 523 278.5 544 c 128,-1,4
 282 565 282 565 292 585.5 c 128,-1,5
 302 606 302 606 315 625 c 128,-1,6
 328 644 328 644 348.5 660 c 128,-1,7
 369 676 369 676 394 688 c 0,8,9
 447 714 447 714 523 714 c 0,10,11
 676 714 676 714 772.5 612.5 c 128,-1,12
 869 511 869 511 869 353 c 128,-1,13
 869 195 869 195 755 90.5 c 128,-1,14
 641 -14 641 -14 466 -14 c 128,-1,15
 291 -14 291 -14 175.5 90 c 128,-1,16
 60 194 60 194 60 360 c 0,17,18
 60 467 60 467 110 550 c 128,-1,19
 160 633 160 633 253 680 c 1,20,-1
 259 671 l 1,21,22
 194 628 194 628 165.5 547 c 128,-1,23
 137 466 137 466 137 375 c 0,24,25
 137 206 137 206 229 111 c 128,-1,26
 321 16 321 16 465 16 c 128,-1,27
 609 16 609 16 700.5 111.5 c 128,-1,28
 792 207 792 207 792 363 c 0,29,30
 792 498 792 498 719.5 591 c 128,-1,31
 647 684 647 684 515 684 c 0,32,33
 456 684 456 684 408 663 c 0,34,35
 321 626 321 626 293 541 c 0,36,37
 285 516 285 516 285 498 c 128,-1,38
 285 480 285 480 287 469 c 1,39,-1
 277 467 l 1,0,1
EndSplineSet
EndChar

StartChar: P
Encoding: 80 80 51
Width: 620
GlyphClass: 2
Flags: W
LayerCount: 2
Fore
SplineSet
352 716 m 0,0,1
 439 716 439 716 497 674 c 0,2,3
 575 618 575 618 575 499 c 0,4,5
 575 413 575 413 527 352 c 0,6,7
 475 287 475 287 382 287 c 0,8,9
 333 287 333 287 293 310.5 c 128,-1,10
 253 334 253 334 246 391 c 1,11,-1
 255 394 l 1,12,13
 266 351 266 351 306 334 c 0,14,15
 333 322 333 322 354 322 c 0,16,17
 436 322 436 322 473 386 c 0,18,19
 500 433 500 433 500 498 c 0,20,21
 500 602 500 602 442 648 c 0,22,23
 398 684 398 684 330 684 c 0,24,25
 314 684 314 684 302.5 682.5 c 128,-1,26
 291 681 291 681 202 666 c 1,27,-1
 202 73 l 1,28,29
 203 46 203 46 222 28 c 128,-1,30
 241 10 241 10 266 10 c 2,31,-1
 279 10 l 1,32,-1
 279 0 l 1,33,-1
 60 0 l 1,34,-1
 60 10 l 1,35,-1
 73 10 l 2,36,37
 98 10 98 10 117 28 c 128,-1,38
 136 46 136 46 137 73 c 1,39,-1
 137 614 l 2,40,41
 137 640 137 640 122 654.5 c 128,-1,42
 107 669 107 669 83 669 c 0,43,44
 78 669 78 669 73 668 c 2,45,-1
 61 667 l 1,46,-1
 59 677 l 1,47,48
 111 682 111 682 198.5 696.5 c 128,-1,49
 286 711 286 711 307 713.5 c 128,-1,50
 328 716 328 716 352 716 c 0,0,1
EndSplineSet
EndChar

StartChar: Q
Encoding: 81 81 52
Width: 919
GlyphClass: 2
Flags: W
LayerCount: 2
Fore
SplineSet
1348.5 -209 m 128,-1,1
 1294 -223 1294 -223 1251.5 -227 c 128,-1,2
 1209 -231 1209 -231 1176 -231 c 0,3,4
 1068 -231 1068 -231 955 -194 c 0,5,6
 911 -180 911 -180 807 -138 c 0,7,8
 547 -34 547 -34 445 -14 c 1,9,-1
 445 -4 l 1,10,11
 446 -4 446 -4 448 -4 c 0,12,13
 622 -4 622 -4 714 110 c 0,14,15
 782 195 782 195 782 338.5 c 128,-1,16
 782 482 782 482 692 584 c 0,17,18
 600 689 600 689 453 689 c 0,19,20
 364 689 364 689 289 647 c 128,-1,21
 214 605 214 605 170.5 527 c 128,-1,22
 127 449 127 449 127 351 c 0,23,24
 127 284 127 284 150 226 c 128,-1,25
 173 168 173 168 214 131 c 0,26,27
 273 77 273 77 351 77 c 0,28,29
 393 77 393 77 435 96 c 0,30,31
 497 124 497 124 518 190 c 1,32,-1
 527 187 l 1,33,34
 508 115 508 115 449 76 c 0,35,36
 405 47 405 47 342 47 c 0,37,38
 322 47 322 47 299 50 c 0,39,40
 182 67 182 67 116 150.5 c 128,-1,41
 50 234 50 234 50 345 c 128,-1,42
 50 456 50 456 103.5 541.5 c 128,-1,43
 157 627 157 627 248.5 673 c 128,-1,44
 340 719 340 719 449 719 c 0,45,46
 570 719 570 719 664 668 c 128,-1,47
 758 617 758 617 808.5 532.5 c 128,-1,48
 859 448 859 448 859 347 c 0,49,50
 859 264 859 264 829.5 196.5 c 128,-1,51
 800 129 800 129 753 86 c 0,52,53
 659 0 659 0 541 -16 c 1,54,55
 622 -32 622 -32 792 -82.5 c 128,-1,56
 962 -133 962 -133 963 -133 c 0,57,58
 1107 -173 1107 -173 1240 -173 c 0,59,60
 1316 -173 1316 -173 1390 -158 c 1,61,62
 1496 -138 1496 -138 1551 -84 c 1,63,-1
 1555 -89 l 1,64,65
 1528 -132 1528 -132 1444 -174 c 0,66,0
 1403 -195 1403 -195 1348.5 -209 c 128,-1,1
EndSplineSet
EndChar

StartChar: R
Encoding: 82 82 53
Width: 652
GlyphClass: 2
Flags: W
LayerCount: 2
Fore
SplineSet
948 -170 m 1,0,1
 906 -181 906 -181 873.5 -181 c 128,-1,2
 841 -181 841 -181 816 -177 c 128,-1,3
 791 -173 791 -173 762.5 -161.5 c 128,-1,4
 734 -150 734 -150 709 -135 c 128,-1,5
 684 -120 684 -120 659 -98 c 1,6,7
 613 -61 613 -61 575.5 -18 c 128,-1,8
 538 25 538 25 431 143.5 c 128,-1,9
 324 262 324 262 289 301 c 128,-1,10
 254 340 254 340 235 342 c 1,11,-1
 235 352 l 1,12,13
 293 352 293 352 312.5 354.5 c 128,-1,14
 332 357 332 357 354 363.5 c 128,-1,15
 376 370 376 370 391 381 c 1,16,17
 450 419 450 419 450 507 c 0,18,19
 450 580 450 580 417.5 624 c 128,-1,20
 385 668 385 668 326 669 c 1,21,-1
 202 669 l 1,22,-1
 202 73 l 2,23,24
 202 48 202 48 220.5 29 c 128,-1,25
 239 10 239 10 266 10 c 2,26,-1
 278 10 l 1,27,-1
 279 0 l 1,28,-1
 60 0 l 1,29,-1
 60 10 l 1,30,-1
 73 10 l 2,31,32
 98 10 98 10 117 28 c 128,-1,33
 136 46 136 46 137 72 c 1,34,-1
 137 627 l 1,35,36
 136 653 136 653 117.5 671.5 c 128,-1,37
 99 690 99 690 73 690 c 2,38,-1
 60 690 l 1,39,-1
 60 700 l 1,40,-1
 330 700 l 2,41,42
 418 700 418 700 471.5 650.5 c 128,-1,43
 525 601 525 601 525 519.5 c 128,-1,44
 525 438 525 438 476 379.5 c 128,-1,45
 427 321 427 321 356 321 c 2,46,47
 356 321 356 321 355 321 c 1,48,49
 389 285 389 285 432 237 c 0,50,51
 605 46 605 46 654 -3 c 128,-1,52
 703 -52 703 -52 740.5 -83.5 c 128,-1,53
 778 -115 778 -115 807 -130 c 0,54,55
 866 -162 866 -162 924 -162 c 0,56,57
 936 -162 936 -162 948 -160 c 1,58,-1
 948 -170 l 1,0,1
EndSplineSet
EndChar

StartChar: S
Encoding: 83 83 54
Width: 549
GlyphClass: 2
Flags: W
LayerCount: 2
Fore
SplineSet
119 266 m 1,0,1
 67 198 67 198 67 119 c 0,2,3
 67 25 67 25 146 -27 c 0,4,5
 192 -58 192 -58 250.5 -58 c 128,-1,6
 309 -58 309 -58 352 -35 c 0,7,8
 433 7 433 7 443 106 c 0,9,10
 444 113 444 113 444 120 c 0,11,12
 444 157 444 157 423.5 200 c 128,-1,13
 403 243 403 243 357 279 c 2,14,-1
 177 421 l 2,15,16
 118 467 118 467 118 540 c 128,-1,17
 118 613 118 613 165 663.5 c 128,-1,18
 212 714 212 714 292 714 c 0,19,20
 332 714 332 714 379 704 c 1,21,-1
 419 704 l 1,22,-1
 421 581 l 1,23,-1
 411 581 l 1,24,25
 410 629 410 629 376.5 656.5 c 128,-1,26
 343 684 343 684 292.5 684 c 128,-1,27
 242 684 242 684 208 650.5 c 128,-1,28
 174 617 174 617 174 564.5 c 128,-1,29
 174 512 174 512 218 477 c 2,30,-1
 403 331 l 2,31,32
 513 244 513 244 513 121 c 0,33,34
 513 29 513 29 440 -37 c 0,35,36
 377 -94 377 -94 272 -94 c 0,37,38
 208 -94 208 -94 158 -70 c 0,39,40
 64 -26 64 -26 45 80 c 0,41,42
 42 96 42 96 42 120.5 c 128,-1,43
 42 145 42 145 56 187.5 c 128,-1,44
 70 230 70 230 110 273 c 1,45,-1
 119 266 l 1,0,1
EndSplineSet
EndChar

StartChar: T
Encoding: 84 84 55
Width: 618
GlyphClass: 2
Flags: W
LayerCount: 2
Fore
SplineSet
-59 501 m 1,0,1
 -90 538 -90 538 -90 574.5 c 128,-1,2
 -90 611 -90 611 -73 637.5 c 128,-1,3
 -56 664 -56 664 -18 682.5 c 128,-1,4
 20 701 20 701 68 701 c 2,5,-1
 478 701 l 2,6,7
 509 701 509 701 546.5 707 c 128,-1,8
 584 713 584 713 599 719 c 1,9,-1
 599 593 l 1,10,-1
 589 594 l 1,11,-1
 589 611 l 2,12,13
 589 635 589 635 572 652.5 c 128,-1,14
 555 670 555 670 532 671 c 1,15,-1
 342 671 l 1,16,-1
 342 72 l 1,17,18
 343 36 343 36 374 18 c 0,19,20
 389 10 389 10 406 10 c 2,21,-1
 419 10 l 1,22,-1
 419 0 l 1,23,-1
 200 0 l 1,24,-1
 200 10 l 1,25,-1
 213 10 l 2,26,27
 239 10 239 10 257.5 28 c 128,-1,28
 276 46 276 46 277 71 c 1,29,-1
 277 671 l 1,30,-1
 68 671 l 2,31,32
 -12 671 -12 671 -48 620 c 0,33,34
 -67 594 -67 594 -67 565.5 c 128,-1,35
 -67 537 -67 537 -51 506 c 1,36,-1
 -59 501 l 1,0,1
EndSplineSet
EndChar

StartChar: U
Encoding: 85 85 56
Width: 783
GlyphClass: 2
Flags: W
LayerCount: 2
Fore
SplineSet
887 872 m 0,0,1
 895 872 895 872 904 872 c 1,2,-1
 904 862 l 1,3,4
 794 862 794 862 730 789.5 c 128,-1,5
 666 717 666 717 666 580 c 2,6,-1
 666 247 l 2,7,8
 666 130 666 130 592 58 c 128,-1,9
 518 -14 518 -14 395 -14 c 128,-1,10
 272 -14 272 -14 195.5 57.5 c 128,-1,11
 119 129 119 129 119 246 c 2,12,-1
 119 641 l 2,13,14
 119 670 119 670 93 684 c 0,15,16
 81 690 81 690 66 690 c 2,17,-1
 50 690 l 1,18,-1
 50 700 l 1,19,-1
 253 700 l 1,20,-1
 253 690 l 1,21,-1
 237 690 l 2,22,23
 215 690 215 690 200 676.5 c 128,-1,24
 185 663 185 663 184 642 c 1,25,-1
 184 260 l 2,26,27
 184 151 184 151 242.5 84.5 c 128,-1,28
 301 18 301 18 396 18 c 0,29,30
 497 18 497 18 558 81 c 128,-1,31
 619 144 619 144 619 247 c 2,32,-1
 619 579 l 2,33,34
 619 726 619 726 693.5 799 c 128,-1,35
 768 872 768 872 887 872 c 0,0,1
EndSplineSet
EndChar

StartChar: V
Encoding: 86 86 57
Width: 718
GlyphClass: 2
Flags: W
LayerCount: 2
Fore
SplineSet
774 896 m 0,0,1
 808 919 808 919 855 932 c 128,-1,2
 902 945 902 945 931 945 c 128,-1,3
 960 945 960 945 968 945 c 1,4,-1
 968 935 l 1,5,6
 921 933 921 933 880 916.5 c 128,-1,7
 839 900 839 900 812.5 878.5 c 128,-1,8
 786 857 786 857 761 821.5 c 128,-1,9
 736 786 736 786 722.5 761 c 128,-1,10
 709 736 709 736 691 697 c 2,11,-1
 413 89 l 2,12,13
 376 8 376 8 376 -14 c 1,14,-1
 367 -14 l 1,15,-1
 86 627 l 2,16,17
 72 659 72 659 47.5 674.5 c 128,-1,18
 23 690 23 690 -2 690 c 2,19,-1
 -10 690 l 1,20,-1
 -10 700 l 1,21,-1
 215 700 l 1,22,-1
 215 690 l 1,23,-1
 206 690 l 2,24,25
 176 690 176 690 166 662 c 0,26,27
 164 656 164 656 164 648 c 128,-1,28
 164 640 164 640 169 628 c 2,29,-1
 378 104 l 1,30,-1
 626 697 l 2,31,32
 685 836 685 836 774 896 c 0,0,1
EndSplineSet
EndChar

StartChar: W
Encoding: 87 87 58
Width: 954
GlyphClass: 2
Flags: W
LayerCount: 2
Fore
SplineSet
1191 944 m 0,0,1
 1198 944 1198 944 1204 944 c 1,2,-1
 1204 934 l 1,3,4
 1157 932 1157 932 1115 912 c 128,-1,5
 1073 892 1073 892 1044 864.5 c 128,-1,6
 1015 837 1015 837 990 798 c 0,7,8
 950 736 950 736 922 656 c 2,9,-1
 730 99 l 1,10,11
 710 36 710 36 708 -12 c 1,12,-1
 699 -12 l 1,13,-1
 495 559 l 1,14,-1
 334 55 l 2,15,16
 298 -58 298 -58 218 -121 c 1,17,18
 160 -168 160 -168 88 -168 c 0,19,20
 63 -168 63 -168 35 -162 c 1,21,-1
 37 -152 l 1,22,23
 52 -155 52 -155 71.5 -155 c 128,-1,24
 91 -155 91 -155 123.5 -143 c 128,-1,25
 156 -131 156 -131 188 -100 c 0,26,27
 253 -37 253 -37 288 58 c 1,28,-1
 86 629 l 1,29,30
 74 659 74 659 49 674.5 c 128,-1,31
 24 690 24 690 -2 690 c 2,32,-1
 -10 690 l 1,33,-1
 -10 700 l 1,34,-1
 212 700 l 1,35,-1
 212 690 l 1,36,-1
 203 690 l 2,37,38
 182 690 182 690 171.5 676.5 c 128,-1,39
 161 663 161 663 161 651 c 128,-1,40
 161 639 161 639 164 629 c 2,41,-1
 316 142 l 1,42,-1
 502 716 l 1,43,-1
 511 715 l 1,44,-1
 709 161 l 1,45,-1
 857 656 l 2,46,47
 883 743 883 743 937 813 c 0,48,49
 1037 944 1037 944 1191 944 c 0,0,1
EndSplineSet
EndChar

StartChar: X
Encoding: 88 88 59
Width: 662
GlyphClass: 2
Flags: W
LayerCount: 2
Fore
SplineSet
659 10 m 2,0,-1
 673 10 l 1,1,-1
 673 0 l 1,2,-1
 429 0 l 1,3,-1
 429 10 l 1,4,-1
 441 10 l 2,5,6
 463 10 463 10 475 30 c 0,7,8
 482 41 482 41 482 51 c 128,-1,9
 482 61 482 61 477 71 c 1,10,-1
 323 314 l 1,11,-1
 130 31 l 2,12,13
 60 -71 60 -71 -11 -116 c 0,14,15
 -68 -151 -68 -151 -136 -151 c 0,16,17
 -154 -151 -154 -151 -172 -149 c 1,18,-1
 -172 -139 l 1,19,20
 -102 -136 -102 -136 -43 -84 c 0,21,22
 7 -39 7 -39 52 24 c 0,23,24
 61 35 61 35 80 62 c 2,25,-1
 292 362 l 1,26,-1
 122 631 l 1,27,28
 98 666 98 666 61 682 c 0,29,30
 41 690 41 690 21 690 c 2,31,-1
 7 690 l 1,32,-1
 7 700 l 1,33,-1
 249 700 l 1,34,-1
 249 690 l 1,35,-1
 237 690 l 2,36,37
 224 690 224 690 212 680 c 0,38,39
 187 659 187 659 201 629 c 1,40,-1
 336 417 l 1,41,-1
 528 690 l 2,42,43
 594 783 594 783 653 820 c 128,-1,44
 712 857 712 857 781 857 c 0,45,46
 794 857 794 857 807 856 c 1,47,-1
 807 846 l 1,48,49
 759 845 759 845 723 821 c 1,50,51
 704 807 704 807 690 797 c 128,-1,52
 676 787 676 787 657.5 765 c 128,-1,53
 639 743 639 743 630.5 733 c 128,-1,54
 622 723 622 723 603.5 697.5 c 128,-1,55
 585 672 585 672 581 667 c 2,56,-1
 365 371 l 1,57,-1
 558 68 l 1,58,59
 576 43 576 43 602.5 26.5 c 128,-1,60
 629 10 629 10 659 10 c 2,0,-1
EndSplineSet
EndChar

StartChar: Y
Encoding: 89 89 60
Width: 618
GlyphClass: 2
Flags: W
LayerCount: 2
Fore
SplineSet
-40 757 m 1,0,1
 -33 757 -33 757 -15 757 c 128,-1,2
 3 757 3 757 34 751 c 128,-1,3
 65 745 65 745 91.5 733.5 c 128,-1,4
 118 722 118 722 143.5 700.5 c 128,-1,5
 169 679 169 679 187 660.5 c 128,-1,6
 205 642 205 642 223.5 612 c 128,-1,7
 242 582 242 582 253.5 561 c 128,-1,8
 265 540 265 540 279 506 c 0,9,10
 297 463 297 463 308 431.5 c 128,-1,11
 319 400 319 400 320 397 c 128,-1,12
 321 394 321 394 323 390 c 0,13,14
 326 382 326 382 328 376 c 1,15,16
 331 383 331 383 342 413 c 128,-1,17
 353 443 353 443 362.5 467 c 128,-1,18
 372 491 372 491 392 535 c 128,-1,19
 412 579 412 579 428.5 604.5 c 128,-1,20
 445 630 445 630 471 663 c 128,-1,21
 497 696 497 696 523 714 c 0,22,23
 587 757 587 757 659 757 c 1,24,-1
 659 747 l 1,25,26
 603 747 603 747 544.5 688 c 128,-1,27
 486 629 486 629 444.5 545.5 c 128,-1,28
 403 462 403 462 376.5 372.5 c 128,-1,29
 350 283 350 283 350 220 c 2,30,-1
 350 73 l 2,31,32
 350 37 350 37 381 19 c 0,33,34
 396 10 396 10 414 10 c 2,35,-1
 426 10 l 1,36,-1
 426 0 l 1,37,-1
 208 0 l 1,38,-1
 208 10 l 1,39,-1
 221 10 l 2,40,41
 246 10 246 10 265 28 c 128,-1,42
 284 46 284 46 285 72 c 1,43,-1
 285 221 l 2,44,45
 285 288 285 288 257 378 c 128,-1,46
 229 468 229 468 185 550.5 c 128,-1,47
 141 633 141 633 80 690 c 128,-1,48
 19 747 19 747 -40 747 c 1,49,-1
 -40 757 l 1,0,1
EndSplineSet
EndChar

StartChar: Z
Encoding: 90 90 61
Width: 636
GlyphClass: 2
Flags: W
LayerCount: 2
Fore
SplineSet
996 -89 m 1,0,1
 903 -197 903 -197 746 -197 c 0,2,3
 626 -197 626 -197 501 -155 c 0,4,5
 359 -107 359 -107 277 -71 c 0,6,7
 123 -3 123 -3 72 0 c 1,8,-1
 60 0 l 1,9,-1
 60 9 l 1,10,-1
 480 671 l 1,11,-1
 143 671 l 1,12,13
 109 670 109 670 92 641 c 0,14,15
 84 627 84 627 84 611 c 2,16,-1
 84 593 l 1,17,-1
 74 593 l 1,18,-1
 74 719 l 1,19,20
 89 713 89 713 127 707 c 128,-1,21
 165 701 165 701 179.5 701 c 128,-1,22
 194 701 194 701 195 701 c 2,23,-1
 474 701 l 2,24,25
 516 701 516 701 545 706 c 128,-1,26
 574 711 574 711 580 714 c 1,27,-1
 580 705 l 1,28,-1
 143 15 l 1,29,30
 152 13 152 13 250 -19 c 0,31,32
 592 -131 592 -131 757 -131 c 0,33,34
 884 -131 884 -131 991 -81 c 1,35,-1
 996 -89 l 1,0,1
EndSplineSet
EndChar

StartChar: bracketleft
Encoding: 91 91 62
Width: 332
GlyphClass: 2
Flags: W
LayerCount: 2
Fore
SplineSet
120 -90 m 1,0,-1
 120 722 l 1,1,-1
 289 722 l 1,2,-1
 289 712 l 1,3,-1
 185 692 l 1,4,-1
 185 -60 l 1,5,-1
 292 -80 l 1,6,-1
 292 -90 l 1,7,-1
 120 -90 l 1,0,-1
EndSplineSet
EndChar

StartChar: backslash
Encoding: 92 92 63
Width: 406
GlyphClass: 2
Flags: W
LayerCount: 2
Fore
SplineSet
7 696 m 1,0,-1
 38 714 l 1,1,-1
 399 5 l 1,2,-1
 368 -14 l 1,3,-1
 7 696 l 1,0,-1
EndSplineSet
EndChar

StartChar: bracketright
Encoding: 93 93 64
Width: 332
GlyphClass: 2
Flags: W
LayerCount: 2
Fore
SplineSet
43 722 m 1,0,-1
 212 722 l 1,1,-1
 212 -90 l 1,2,-1
 40 -90 l 1,3,-1
 40 -80 l 1,4,-1
 147 -60 l 1,5,-1
 147 692 l 1,6,-1
 43 712 l 1,7,-1
 43 722 l 1,0,-1
EndSplineSet
EndChar

StartChar: asciicircum
Encoding: 94 94 65
Width: 523
GlyphClass: 2
Flags: W
LayerCount: 2
Fore
SplineSet
232 371 m 1,0,-1
 292 371 l 1,1,-1
 488 182 l 1,2,-1
 425 182 l 1,3,-1
 262 336 l 1,4,-1
 98 182 l 1,5,-1
 35 182 l 1,6,-1
 232 371 l 1,0,-1
EndSplineSet
EndChar

StartChar: underscore
Encoding: 95 95 66
Width: 500
GlyphClass: 2
Flags: W
LayerCount: 2
Fore
SplineSet
0 -90 m 1,0,-1
 0 -60 l 1,1,-1
 500 -60 l 1,2,-1
 500 -90 l 1,3,-1
 0 -90 l 1,0,-1
EndSplineSet
EndChar

StartChar: grave
Encoding: 96 96 67
Width: 439
GlyphClass: 2
Flags: W
LayerCount: 2
Fore
SplineSet
240 753 m 1,0,-1
 233 746 l 1,1,2
 152 784 152 784 72 831 c 1,3,4
 86 859 86 859 113 884 c 1,5,6
 176 823 176 823 240 753 c 1,0,-1
EndSplineSet
EndChar

StartChar: a
Encoding: 97 97 68
Width: 712
GlyphClass: 2
Flags: W
LayerCount: 2
Fore
SplineSet
715 10 m 2,0,-1
 723 10 l 1,1,-1
 723 0 l 1,2,-1
 498 0 l 1,3,-1
 498 10 l 1,4,-1
 507 10 l 2,5,6
 528 10 528 10 538.5 23.5 c 128,-1,7
 549 37 549 37 549 49 c 128,-1,8
 549 61 549 61 545 73 c 2,9,-1
 481 243 l 1,10,-1
 211 243 l 1,11,-1
 144 72 l 2,12,13
 140 60 140 60 140 48.5 c 128,-1,14
 140 37 140 37 150.5 23.5 c 128,-1,15
 161 10 161 10 182 10 c 2,16,-1
 191 10 l 1,17,-1
 191 0 l 1,18,-1
 -10 0 l 1,19,-1
 -10 10 l 1,20,-1
 -1 10 l 2,21,22
 24 10 24 10 48 26 c 128,-1,23
 72 42 72 42 87 73 c 1,24,-1
 313 611 l 1,25,26
 350 692 350 692 350 714 c 1,27,-1
 359 714 l 1,28,-1
 627 73 l 2,29,30
 641 42 641 42 665 26 c 128,-1,31
 689 10 689 10 715 10 c 2,0,-1
223 273 m 1,32,-1
 469 273 l 1,33,-1
 349 594 l 1,34,-1
 223 273 l 1,32,-1
EndSplineSet
EndChar

StartChar: b
Encoding: 98 98 69
Width: 586
GlyphClass: 2
Flags: W
LayerCount: 2
Fore
SplineSet
304 0 m 2,0,-1
 60 0 l 1,1,-1
 61 10 l 1,2,-1
 73 10 l 2,3,4
 99 10 99 10 117.5 28 c 128,-1,5
 136 46 136 46 137 72 c 1,6,-1
 137 628 l 1,7,8
 136 654 136 654 117.5 672 c 128,-1,9
 99 690 99 690 73 690 c 2,10,-1
 61 690 l 1,11,-1
 60 700 l 1,12,-1
 259 700 l 2,13,14
 362 700 362 700 419 654.5 c 128,-1,15
 476 609 476 609 476 533 c 0,16,17
 476 473 476 473 444 433.5 c 128,-1,18
 412 394 412 394 366 381 c 1,19,20
 445 369 445 369 491 316 c 128,-1,21
 537 263 537 263 537 182.5 c 128,-1,22
 537 102 537 102 475.5 51 c 128,-1,23
 414 0 414 0 304 0 c 2,0,-1
202 37 m 1,24,-1
 300 37 l 2,25,26
 301 37 301 37 302 37 c 0,27,28
 378 37 378 37 420 78 c 128,-1,29
 462 119 462 119 462 195 c 0,30,31
 462 238 462 238 447.5 270.5 c 128,-1,32
 433 303 433 303 411 322 c 0,33,34
 353 370 353 370 237 370 c 2,35,36
 237 370 237 370 236 370 c 1,37,-1
 236 379 l 1,38,39
 368 379 368 379 395 477 c 0,40,41
 401 499 401 499 401 526 c 0,42,43
 401 594 401 594 363.5 631 c 128,-1,44
 326 668 326 668 255 668 c 2,45,-1
 202 668 l 1,46,-1
 202 37 l 1,24,-1
EndSplineSet
EndChar

StartChar: c
Encoding: 99 99 70
Width: 760
GlyphClass: 2
Flags: W
LayerCount: 2
Fore
SplineSet
159.5 87 m 128,-1,1
 60 187 60 187 60 350.5 c 128,-1,2
 60 514 60 514 159.5 614 c 128,-1,3
 259 714 259 714 423 714 c 0,4,5
 557 714 557 714 660 646 c 1,6,-1
 680 505 l 1,7,-1
 671 505 l 1,8,9
 649 591 649 591 582 637.5 c 128,-1,10
 515 684 515 684 423 684 c 0,11,12
 292 684 292 684 213.5 593 c 128,-1,13
 135 502 135 502 135 352 c 128,-1,14
 135 202 135 202 212.5 110.5 c 128,-1,15
 290 19 290 19 417 16 c 1,16,17
 529 16 529 16 604 77 c 0,18,19
 685 143 685 143 702 292 c 1,20,-1
 710 292 l 1,21,-1
 698 135 l 1,22,23
 607 -14 607 -14 417 -14 c 1,24,0
 259 -13 259 -13 159.5 87 c 128,-1,1
EndSplineSet
EndChar

StartChar: d
Encoding: 100 100 71
Width: 807
GlyphClass: 2
Flags: W
LayerCount: 2
Fore
SplineSet
658.5 603.5 m 128,-1,1
 758 507 758 507 758 350 c 128,-1,2
 758 193 758 193 658.5 96.5 c 128,-1,3
 559 0 559 0 399 0 c 2,4,-1
 60 0 l 1,5,-1
 60 10 l 1,6,-1
 73 10 l 2,7,8
 99 10 99 10 117.5 28.5 c 128,-1,9
 136 47 136 47 137 73 c 1,10,-1
 137 633 l 2,11,12
 137 657 137 657 117.5 673.5 c 128,-1,13
 98 690 98 690 73 690 c 2,14,-1
 61 690 l 1,15,-1
 60 700 l 1,16,-1
 399 700 l 2,17,0
 559 700 559 700 658.5 603.5 c 128,-1,1
202 670 m 1,18,-1
 202 30 l 1,19,-1
 399 30 l 2,20,21
 483 30 483 30 547.5 70 c 128,-1,22
 612 110 612 110 647.5 182.5 c 128,-1,23
 683 255 683 255 683 350 c 0,24,25
 683 494 683 494 604.5 582 c 128,-1,26
 526 670 526 670 399 670 c 2,27,-1
 202 670 l 1,18,-1
EndSplineSet
EndChar

StartChar: e
Encoding: 101 101 72
Width: 577
GlyphClass: 2
Flags: W
LayerCount: 2
Fore
SplineSet
73 10 m 2,0,1
 99 10 99 10 117.5 28.5 c 128,-1,2
 136 47 136 47 137 73 c 1,3,-1
 137 633 l 2,4,5
 137 657 137 657 118 673.5 c 128,-1,6
 99 690 99 690 73 690 c 2,7,-1
 61 690 l 1,8,-1
 60 700 l 1,9,-1
 353 700 l 2,10,11
 384 700 384 700 420.5 706 c 128,-1,12
 457 712 457 712 472 718 c 1,13,-1
 472 592 l 1,14,-1
 462 592 l 1,15,-1
 462 610 l 2,16,17
 462 634 462 634 445.5 651 c 128,-1,18
 429 668 429 668 406 669 c 1,19,-1
 202 669 l 1,20,-1
 202 360 l 1,21,-1
 371 360 l 1,22,23
 391 361 391 361 405 375 c 128,-1,24
 419 389 419 389 419 410 c 2,25,-1
 419 424 l 1,26,-1
 429 424 l 1,27,-1
 429 266 l 1,28,-1
 419 266 l 1,29,-1
 419 281 l 2,30,31
 419 301 419 301 405.5 315 c 128,-1,32
 392 329 392 329 372 330 c 1,33,-1
 202 330 l 1,34,-1
 202 31 l 1,35,-1
 345 31 l 2,36,37
 419 31 419 31 458 64 c 128,-1,38
 497 97 497 97 523 162 c 1,39,-1
 533 162 l 1,40,-1
 475 0 l 1,41,-1
 60 0 l 1,42,-1
 60 10 l 1,43,-1
 73 10 l 2,0,1
EndSplineSet
EndChar

StartChar: f
Encoding: 102 102 73
Width: 541
GlyphClass: 2
Flags: W
LayerCount: 2
Fore
SplineSet
472 689 m 1,0,-1
 472 605 l 1,1,-1
 462 605 l 1,2,-1
 462 620 l 2,3,4
 462 640 462 640 448 654.5 c 128,-1,5
 434 669 434 669 413 669 c 2,6,-1
 202 669 l 1,7,-1
 202 360 l 1,8,-1
 371 360 l 1,9,10
 391 361 391 361 405 375 c 128,-1,11
 419 389 419 389 419 409 c 2,12,-1
 419 424 l 1,13,-1
 429 424 l 1,14,-1
 429 266 l 1,15,-1
 419 266 l 1,16,-1
 419 281 l 2,17,18
 419 301 419 301 405.5 315 c 128,-1,19
 392 329 392 329 372 330 c 1,20,-1
 202 330 l 1,21,-1
 202 73 l 2,22,23
 202 47 202 47 221 28.5 c 128,-1,24
 240 10 240 10 266 10 c 2,25,-1
 279 10 l 1,26,-1
 279 0 l 1,27,-1
 60 0 l 1,28,-1
 60 10 l 1,29,-1
 73 10 l 2,30,31
 99 10 99 10 117.5 28.5 c 128,-1,32
 136 47 136 47 137 73 c 1,33,-1
 137 633 l 2,34,35
 137 657 137 657 117.5 673.5 c 128,-1,36
 98 690 98 690 73 690 c 2,37,-1
 61 690 l 1,38,-1
 60 700 l 1,39,-1
 353 700 l 2,40,41
 384 700 384 700 420.5 706 c 128,-1,42
 457 712 457 712 472 718 c 1,43,-1
 472 689 l 1,0,-1
EndSplineSet
EndChar

StartChar: g
Encoding: 103 103 74
Width: 798
GlyphClass: 2
Flags: W
LayerCount: 2
Fore
SplineSet
159.5 87 m 128,-1,1
 60 187 60 187 60 350 c 128,-1,2
 60 513 60 513 159.5 613.5 c 128,-1,3
 259 714 259 714 419 714 c 0,4,5
 557 714 557 714 662 646 c 1,6,-1
 682 505 l 1,7,-1
 673 505 l 1,8,9
 651 591 651 591 584.5 637.5 c 128,-1,10
 518 684 518 684 419 684 c 0,11,12
 292 684 292 684 213.5 592 c 128,-1,13
 135 500 135 500 135 350 c 128,-1,14
 135 200 135 200 213.5 108.5 c 128,-1,15
 292 17 292 17 419 16 c 0,16,17
 484 16 484 16 542.5 39 c 128,-1,18
 601 62 601 62 645 103 c 1,19,-1
 645 280 l 2,20,21
 645 302 645 302 631.5 313.5 c 128,-1,22
 618 325 618 325 594 325 c 2,23,-1
 578 325 l 1,24,-1
 578 335 l 1,25,-1
 774 335 l 1,26,-1
 774 325 l 1,27,-1
 759 325 l 2,28,29
 734 325 734 325 721 313.5 c 128,-1,30
 708 302 708 302 709 280 c 1,31,-1
 709 115 l 1,32,33
 683 81 683 81 647 54 c 128,-1,34
 611 27 611 27 550.5 6.5 c 128,-1,35
 490 -14 490 -14 419 -14 c 0,36,0
 259 -13 259 -13 159.5 87 c 128,-1,1
EndSplineSet
EndChar

StartChar: h
Encoding: 104 104 75
Width: 813
GlyphClass: 2
Flags: W
LayerCount: 2
Fore
SplineSet
547 10 m 2,0,1
 573 10 573 10 591.5 28.5 c 128,-1,2
 610 47 610 47 611 72 c 1,3,-1
 611 331 l 1,4,-1
 202 331 l 1,5,-1
 202 72 l 2,6,7
 202 46 202 46 221 28 c 128,-1,8
 240 10 240 10 266 10 c 2,9,-1
 279 10 l 1,10,-1
 279 0 l 1,11,-1
 60 0 l 1,12,-1
 60 10 l 1,13,-1
 73 10 l 2,14,15
 99 10 99 10 117.5 28 c 128,-1,16
 136 46 136 46 137 72 c 1,17,-1
 137 628 l 1,18,19
 136 654 136 654 117.5 672 c 128,-1,20
 99 690 99 690 73 690 c 2,21,-1
 60 690 l 1,22,-1
 60 700 l 1,23,-1
 279 700 l 1,24,-1
 279 690 l 1,25,-1
 266 690 l 2,26,27
 240 690 240 690 221.5 672 c 128,-1,28
 203 654 203 654 202 628 c 1,29,-1
 202 361 l 1,30,-1
 611 361 l 1,31,-1
 611 628 l 1,32,33
 610 664 610 664 579 682 c 0,34,35
 564 690 564 690 547 690 c 2,36,-1
 534 690 l 1,37,-1
 534 700 l 1,38,-1
 753 700 l 1,39,-1
 753 690 l 1,40,-1
 740 690 l 2,41,42
 714 690 714 690 695.5 671.5 c 128,-1,43
 677 653 677 653 676 627 c 1,44,-1
 676 72 l 1,45,46
 677 46 677 46 695.5 28 c 128,-1,47
 714 10 714 10 740 10 c 2,48,-1
 753 10 l 1,49,-1
 753 0 l 1,50,-1
 534 0 l 1,51,-1
 534 10 l 1,52,-1
 547 10 l 2,0,1
EndSplineSet
EndChar

StartChar: i
Encoding: 105 105 76
Width: 338
GlyphClass: 2
Flags: W
LayerCount: 2
Fore
SplineSet
73 10 m 2,0,1
 99 10 99 10 117.5 28.5 c 128,-1,2
 136 47 136 47 137 73 c 1,3,-1
 137 628 l 1,4,5
 136 654 136 654 117.5 672 c 128,-1,6
 99 690 99 690 73 690 c 2,7,-1
 60 690 l 1,8,-1
 60 700 l 1,9,-1
 279 700 l 1,10,-1
 279 690 l 1,11,-1
 266 690 l 2,12,13
 240 690 240 690 221.5 672 c 128,-1,14
 203 654 203 654 202 628 c 1,15,-1
 202 73 l 2,16,17
 202 47 202 47 221 28.5 c 128,-1,18
 240 10 240 10 266 10 c 2,19,-1
 279 10 l 1,20,-1
 279 0 l 1,21,-1
 60 0 l 1,22,-1
 60 10 l 1,23,-1
 73 10 l 2,0,1
EndSplineSet
EndChar

StartChar: j
Encoding: 106 106 77
Width: 324
GlyphClass: 2
Flags: W
LayerCount: 2
Fore
SplineSet
266 690 m 2,0,1
 230 690 230 690 211 659 c 0,2,3
 203 645 203 645 202 627 c 1,4,-1
 202 0 l 2,5,6
 202 -84 202 -84 149.5 -142 c 128,-1,7
 97 -200 97 -200 20 -200 c 1,8,-1
 20 -191 l 1,9,10
 69 -174 69 -174 103 -117.5 c 128,-1,11
 137 -61 137 -61 137 3 c 2,12,-1
 137 627 l 1,13,14
 136 653 136 653 117.5 671.5 c 128,-1,15
 99 690 99 690 73 690 c 2,16,-1
 60 690 l 1,17,-1
 60 700 l 1,18,-1
 279 700 l 1,19,-1
 279 690 l 1,20,-1
 266 690 l 2,0,1
EndSplineSet
EndChar

StartChar: k
Encoding: 107 107 78
Width: 657
GlyphClass: 2
Flags: W
LayerCount: 2
Fore
SplineSet
266 10 m 2,0,-1
 279 10 l 1,1,-1
 279 0 l 1,2,-1
 60 0 l 1,3,-1
 60 10 l 1,4,-1
 73 10 l 2,5,6
 99 10 99 10 117.5 28.5 c 128,-1,7
 136 47 136 47 137 73 c 1,8,-1
 137 628 l 1,9,10
 136 654 136 654 117.5 672 c 128,-1,11
 99 690 99 690 73 690 c 2,12,-1
 60 690 l 1,13,-1
 60 700 l 1,14,-1
 279 700 l 1,15,-1
 279 690 l 1,16,-1
 266 690 l 2,17,18
 240 690 240 690 221.5 672 c 128,-1,19
 203 654 203 654 202 628 c 1,20,-1
 202 73 l 2,21,22
 202 47 202 47 221 28.5 c 128,-1,23
 240 10 240 10 266 10 c 2,0,-1
668 0 m 1,24,-1
 625 0 l 2,25,26
 523 0 523 0 475 57 c 2,27,-1
 234 348 l 1,28,-1
 470 644 l 2,29,30
 478 654 478 654 478 662 c 128,-1,31
 478 670 478 670 475 676 c 0,32,33
 467 691 467 691 446 691 c 2,34,-1
 436 691 l 1,35,-1
 436 700 l 1,36,-1
 647 700 l 1,37,-1
 647 691 l 1,38,-1
 643 691 l 2,39,40
 577 691 577 691 535 644 c 1,41,-1
 300 372 l 1,42,-1
 573 51 l 1,43,44
 613 11 613 11 668 10 c 1,45,-1
 668 0 l 1,24,-1
EndSplineSet
EndChar

StartChar: l
Encoding: 108 108 79
Width: 562
GlyphClass: 2
Flags: W
LayerCount: 2
Fore
SplineSet
73 10 m 2,0,1
 99 10 99 10 117.5 28.5 c 128,-1,2
 136 47 136 47 137 73 c 1,3,-1
 137 627 l 1,4,5
 136 653 136 653 117.5 671.5 c 128,-1,6
 99 690 99 690 73 690 c 2,7,-1
 60 690 l 1,8,-1
 60 700 l 1,9,-1
 279 700 l 1,10,-1
 279 690 l 1,11,-1
 266 690 l 2,12,13
 230 690 230 690 211 659 c 0,14,15
 202 644 202 644 202 627 c 2,16,-1
 202 31 l 1,17,-1
 345 31 l 2,18,19
 419 31 419 31 458 64 c 128,-1,20
 497 97 497 97 523 162 c 1,21,-1
 533 162 l 1,22,-1
 475 0 l 1,23,-1
 60 0 l 1,24,-1
 60 10 l 1,25,-1
 73 10 l 2,0,1
EndSplineSet
EndChar

StartChar: m
Encoding: 109 109 80
Width: 931
GlyphClass: 2
Flags: W
LayerCount: 2
Fore
SplineSet
900 10 m 2,0,-1
 916 10 l 1,1,-1
 916 0 l 1,2,-1
 699 0 l 1,3,-1
 699 9 l 1,4,-1
 714 9 l 2,5,6
 731 9 731 9 743 22 c 128,-1,7
 755 35 755 35 753 52 c 2,8,-1
 708 555 l 1,9,-1
 498 88 l 2,10,11
 470 27 470 27 464 -14 c 1,12,-1
 454 -14 l 1,13,-1
 198 541 l 1,14,-1
 155 52 l 2,15,16
 153 36 153 36 165 22.5 c 128,-1,17
 177 9 177 9 194 9 c 2,18,-1
 209 9 l 1,19,-1
 209 0 l 1,20,-1
 15 0 l 1,21,-1
 15 10 l 1,22,-1
 31 10 l 2,23,24
 59 10 59 10 79.5 27 c 128,-1,25
 100 44 100 44 104 73 c 2,26,-1
 179 714 l 1,27,-1
 189 714 l 1,28,-1
 468 111 l 1,29,-1
 741 714 l 1,30,-1
 750 714 l 1,31,-1
 827 73 l 2,32,33
 831 44 831 44 852 27 c 128,-1,34
 873 10 873 10 900 10 c 2,0,-1
EndSplineSet
EndChar

StartChar: n
Encoding: 110 110 81
Width: 841
GlyphClass: 2
Flags: W
LayerCount: 2
Fore
SplineSet
778 690 m 2,0,1
 753 690 753 690 735 672.5 c 128,-1,2
 717 655 717 655 716 630 c 1,3,-1
 716 114 l 2,4,5
 716 56 716 56 723 4 c 1,6,-1
 725 -14 l 1,7,-1
 716 -14 l 1,8,-1
 171 568 l 1,9,-1
 171 70 l 2,10,11
 171 45 171 45 189 27.5 c 128,-1,12
 207 10 207 10 232 10 c 2,13,-1
 251 10 l 1,14,-1
 251 0 l 1,15,-1
 45 0 l 1,16,-1
 45 10 l 1,17,-1
 64 10 l 2,18,19
 89 10 89 10 107 27.5 c 128,-1,20
 125 45 125 45 125 71 c 2,21,-1
 125 590 l 2,22,23
 125 651 125 651 118 699 c 2,24,-1
 116 715 l 1,25,-1
 126 715 l 1,26,-1
 671 133 l 1,27,-1
 671 629 l 1,28,29
 670 655 670 655 652 672.5 c 128,-1,30
 634 690 634 690 609 690 c 2,31,-1
 590 690 l 1,32,-1
 590 700 l 1,33,-1
 796 700 l 1,34,-1
 796 690 l 1,35,-1
 778 690 l 2,0,1
EndSplineSet
EndChar

StartChar: o
Encoding: 111 111 82
Width: 848
GlyphClass: 2
Flags: W
LayerCount: 2
Fore
SplineSet
424.5 714 m 128,-1,1
 595 714 595 714 702 613.5 c 128,-1,2
 809 513 809 513 809 350 c 128,-1,3
 809 187 809 187 702 86.5 c 128,-1,4
 595 -14 595 -14 424.5 -14 c 128,-1,5
 254 -14 254 -14 147 86.5 c 128,-1,6
 40 187 40 187 40 350 c 128,-1,7
 40 513 40 513 147 613.5 c 128,-1,0
 254 714 254 714 424.5 714 c 128,-1,1
424 16 m 128,-1,9
 562 16 562 16 646.5 108 c 128,-1,10
 731 200 731 200 731 350 c 128,-1,11
 731 500 731 500 646.5 592 c 128,-1,12
 562 684 562 684 424 684 c 128,-1,13
 286 684 286 684 201.5 592 c 128,-1,14
 117 500 117 500 117 350 c 128,-1,15
 117 200 117 200 201.5 108 c 128,-1,8
 286 16 286 16 424 16 c 128,-1,9
EndSplineSet
EndChar

StartChar: p
Encoding: 112 112 83
Width: 577
GlyphClass: 2
Flags: W
LayerCount: 2
Fore
SplineSet
527 507 m 0,0,1
 527 463 527 463 509 425 c 0,2,3
 476 354 476 354 393 326 c 0,4,5
 364 316 364 316 343 316 c 0,6,7
 281 316 281 316 236 339 c 1,8,-1
 236 349 l 1,9,10
 309 333 309 333 371 365 c 0,11,12
 426 393 426 393 446 457 c 0,13,14
 452 477 452 477 452 495 c 128,-1,15
 452 513 452 513 452 517 c 0,16,17
 450 587 450 587 415 628.5 c 128,-1,18
 380 670 380 670 317 670 c 2,19,-1
 202 670 l 1,20,-1
 202 73 l 1,21,22
 203 47 203 47 221.5 28.5 c 128,-1,23
 240 10 240 10 266 10 c 2,24,-1
 279 10 l 1,25,-1
 279 0 l 1,26,-1
 60 0 l 1,27,-1
 60 10 l 1,28,-1
 73 10 l 2,29,30
 99 10 99 10 117.5 28.5 c 128,-1,31
 136 47 136 47 137 73 c 1,32,-1
 137 632 l 1,33,34
 134 657 134 657 116 673.5 c 128,-1,35
 98 690 98 690 73 690 c 2,36,-1
 61 690 l 1,37,-1
 60 700 l 1,38,-1
 321 700 l 2,39,40
 417 700 417 700 472 648.5 c 128,-1,41
 527 597 527 597 527 507 c 0,0,1
EndSplineSet
EndChar

StartChar: q
Encoding: 113 113 84
Width: 867
GlyphClass: 2
Flags: W
LayerCount: 2
Fore
SplineSet
1223.5 -188.5 m 128,-1,1
 1177 -214 1177 -214 1130.5 -226.5 c 128,-1,2
 1084 -239 1084 -239 1048 -239 c 0,3,4
 932 -239 932 -239 828 -194 c 0,5,6
 790 -177 790 -177 703 -132 c 0,7,8
 506 -31 506 -31 408 -13 c 1,9,10
 248 -5 248 -5 149 94 c 128,-1,11
 50 193 50 193 50 353 c 128,-1,12
 50 513 50 513 156.5 613.5 c 128,-1,13
 263 714 263 714 434 714 c 128,-1,14
 605 714 605 714 712 613.5 c 128,-1,15
 819 513 819 513 819 350 c 0,16,17
 819 207 819 207 735.5 111 c 128,-1,18
 652 15 652 15 513 -8 c 1,19,20
 618 -40 618 -40 836 -133 c 1,21,22
 942 -177 942 -177 1052 -177 c 0,23,24
 1114 -177 1114 -177 1177 -162 c 1,25,26
 1265 -139 1265 -139 1324 -84 c 1,27,-1
 1328 -89 l 1,28,29
 1320 -110 1320 -110 1295 -136.5 c 128,-1,0
 1270 -163 1270 -163 1223.5 -188.5 c 128,-1,1
127 350 m 128,-1,31
 127 200 127 200 211.5 108 c 128,-1,32
 296 16 296 16 434 16 c 128,-1,33
 572 16 572 16 656.5 108 c 128,-1,34
 741 200 741 200 741 350 c 128,-1,35
 741 500 741 500 656.5 592 c 128,-1,36
 572 684 572 684 434 684 c 128,-1,37
 296 684 296 684 211.5 592 c 128,-1,30
 127 500 127 500 127 350 c 128,-1,31
EndSplineSet
EndChar

StartChar: r
Encoding: 114 114 85
Width: 677
GlyphClass: 2
Flags: W
LayerCount: 2
Fore
SplineSet
266 669 m 2,0,-1
 202 669 l 1,1,-1
 202 73 l 2,2,3
 202 47 202 47 220.5 28.5 c 128,-1,4
 239 10 239 10 266 10 c 2,5,-1
 278 10 l 1,6,-1
 279 0 l 1,7,-1
 60 0 l 1,8,-1
 60 10 l 1,9,-1
 73 10 l 2,10,11
 99 10 99 10 117.5 28 c 128,-1,12
 136 46 136 46 137 72 c 1,13,-1
 137 627 l 1,14,15
 136 653 136 653 117.5 671.5 c 128,-1,16
 99 690 99 690 73 690 c 2,17,-1
 60 690 l 1,18,-1
 60 700 l 1,19,-1
 330 700 l 2,20,21
 421 700 421 700 473 649.5 c 128,-1,22
 525 599 525 599 525 518.5 c 128,-1,23
 525 438 525 438 475.5 379.5 c 128,-1,24
 426 321 426 321 355 321 c 1,25,26
 370 314 370 314 390.5 293.5 c 128,-1,27
 411 273 411 273 427 251 c 0,28,29
 513 128 513 128 539 99.5 c 128,-1,30
 565 71 565 71 576 60.5 c 128,-1,31
 587 50 587 50 600 40 c 128,-1,32
 613 30 613 30 626 24 c 0,33,34
 655 10 655 10 688 10 c 1,35,-1
 688 0 l 1,36,-1
 633 0 l 2,37,38
 590 0 590 0 553 15.5 c 128,-1,39
 516 31 516 31 497.5 47.5 c 128,-1,40
 479 64 479 64 465.5 79.5 c 128,-1,41
 452 95 452 95 391 183 c 128,-1,42
 330 271 330 271 320 283.5 c 128,-1,43
 310 296 310 296 299 308 c 0,44,45
 267 342 267 342 235 342 c 1,46,-1
 235 352 l 1,47,48
 243 351 243 351 256 351 c 128,-1,49
 269 351 269 351 288 352 c 0,50,51
 412 355 412 355 444 456 c 0,52,53
 450 476 450 476 450 493.5 c 128,-1,54
 450 511 450 511 450 516 c 0,55,56
 448 583 448 583 415 624 c 128,-1,57
 382 665 382 665 326 668 c 0,58,59
 302 669 302 669 266 669 c 2,0,-1
EndSplineSet
EndChar

StartChar: s
Encoding: 115 115 86
Width: 476
GlyphClass: 2
Flags: W
LayerCount: 2
Fore
SplineSet
61 41 m 1,0,1
 58 55 58 55 58 95 c 128,-1,2
 58 135 58 135 73 180 c 1,3,-1
 82 180 l 1,4,5
 81 169 81 169 81 158 c 0,6,7
 81 97 81 97 118 56.5 c 128,-1,8
 155 16 155 16 216 16 c 0,9,10
 279 16 279 16 319.5 54 c 128,-1,11
 360 92 360 92 360 149.5 c 128,-1,12
 360 207 360 207 321 243 c 2,13,-1
 129 421 l 2,14,15
 75 471 75 471 75 542 c 128,-1,16
 75 613 75 613 122.5 663.5 c 128,-1,17
 170 714 170 714 251 714 c 0,18,19
 289 714 289 714 337 704 c 1,20,-1
 376 704 l 1,21,-1
 376 581 l 1,22,-1
 367 581 l 1,23,24
 367 628 367 628 334.5 656 c 128,-1,25
 302 684 302 684 251 684 c 128,-1,26
 200 684 200 684 165.5 650 c 128,-1,27
 131 616 131 616 131 565 c 128,-1,28
 131 514 131 514 171 477 c 2,29,-1
 368 295 l 2,30,31
 418 249 418 249 418 169 c 128,-1,32
 418 89 418 89 367 37.5 c 128,-1,33
 316 -14 316 -14 231 -14 c 0,34,35
 187 -14 187 -14 137.5 -0.5 c 128,-1,36
 88 13 88 13 61 41 c 1,0,1
EndSplineSet
EndChar

StartChar: t
Encoding: 116 116 87
Width: 618
GlyphClass: 2
Flags: W
LayerCount: 2
Fore
SplineSet
589 611 m 2,0,1
 589 635 589 635 572 652.5 c 128,-1,2
 555 670 555 670 532 671 c 1,3,-1
 342 671 l 1,4,-1
 342 72 l 1,5,6
 343 46 343 46 361.5 28 c 128,-1,7
 380 10 380 10 406 10 c 2,8,-1
 419 10 l 1,9,-1
 419 0 l 1,10,-1
 200 0 l 1,11,-1
 200 10 l 1,12,-1
 213 10 l 2,13,14
 239 10 239 10 257.5 28 c 128,-1,15
 276 46 276 46 277 71 c 1,16,-1
 277 671 l 1,17,-1
 87 671 l 1,18,19
 63 670 63 670 46.5 652.5 c 128,-1,20
 30 635 30 635 30 611 c 2,21,-1
 30 594 l 1,22,-1
 20 593 l 1,23,-1
 20 719 l 1,24,25
 35 713 35 713 72 707 c 128,-1,26
 109 701 109 701 140 701 c 2,27,-1
 478 701 l 2,28,29
 527 701 527 701 559.5 708.5 c 128,-1,30
 592 716 592 716 599 719 c 1,31,-1
 599 593 l 1,32,-1
 589 594 l 1,33,-1
 589 611 l 2,0,1
EndSplineSet
EndChar

StartChar: u
Encoding: 117 117 88
Width: 785
GlyphClass: 2
Flags: W
LayerCount: 2
Fore
SplineSet
735 690 m 1,0,-1
 719 690 l 2,1,2
 698 690 698 690 682.5 676.5 c 128,-1,3
 667 663 667 663 666 643 c 1,4,-1
 666 247 l 2,5,6
 666 130 666 130 592 58 c 128,-1,7
 518 -14 518 -14 395 -14 c 128,-1,8
 272 -14 272 -14 195.5 57.5 c 128,-1,9
 119 129 119 129 119 246 c 2,10,-1
 119 640 l 2,11,12
 119 670 119 670 93 684 c 0,13,14
 81 690 81 690 66 690 c 2,15,-1
 50 690 l 1,16,-1
 50 700 l 1,17,-1
 253 700 l 1,18,-1
 253 690 l 1,19,-1
 237 690 l 2,20,21
 215 690 215 690 200 676.5 c 128,-1,22
 185 663 185 663 184 642 c 1,23,-1
 184 260 l 2,24,25
 184 151 184 151 242.5 84 c 128,-1,26
 301 17 301 17 399 17 c 128,-1,27
 497 17 497 17 558 80.5 c 128,-1,28
 619 144 619 144 619 247 c 2,29,-1
 619 642 l 1,30,31
 618 663 618 663 603 676.5 c 128,-1,32
 588 690 588 690 566 690 c 2,33,-1
 550 690 l 1,34,-1
 550 700 l 1,35,-1
 735 700 l 1,36,-1
 735 690 l 1,0,-1
EndSplineSet
EndChar

StartChar: v
Encoding: 118 118 89
Width: 740
GlyphClass: 2
Flags: W
LayerCount: 2
Fore
SplineSet
549 700 m 1,0,-1
 750 700 l 1,1,-1
 750 690 l 1,2,-1
 741 690 l 2,3,4
 716 690 716 690 692 674.5 c 128,-1,5
 668 659 668 659 654 628 c 2,6,-1
 413 89 l 2,7,8
 376 8 376 8 376 -14 c 1,9,-1
 367 -14 l 1,10,-1
 86 627 l 2,11,12
 72 659 72 659 47.5 674.5 c 128,-1,13
 23 690 23 690 -2 690 c 2,14,-1
 -10 690 l 1,15,-1
 -10 700 l 1,16,-1
 215 700 l 1,17,-1
 215 690 l 1,18,-1
 206 690 l 2,19,20
 185 690 185 690 174.5 676.5 c 128,-1,21
 164 663 164 663 164 651.5 c 128,-1,22
 164 640 164 640 169 628 c 2,23,-1
 378 104 l 1,24,-1
 596 628 l 2,25,26
 600 640 600 640 600 651.5 c 128,-1,27
 600 663 600 663 589.5 676.5 c 128,-1,28
 579 690 579 690 558 690 c 2,29,-1
 549 690 l 1,30,-1
 549 700 l 1,0,-1
EndSplineSet
EndChar

StartChar: w
Encoding: 119 119 90
Width: 982
GlyphClass: 2
Flags: W
LayerCount: 2
Fore
SplineSet
795 700 m 1,0,-1
 992 700 l 1,1,-1
 992 690 l 1,2,-1
 984 690 l 2,3,4
 958 690 958 690 932.5 674.5 c 128,-1,5
 907 659 907 659 896 628 c 1,6,-1
 730 99 l 2,7,8
 710 36 710 36 708 -12 c 1,9,-1
 699 -12 l 1,10,-1
 495 560 l 1,11,-1
 343 99 l 1,12,13
 324 37 324 37 322 -12 c 1,14,-1
 313 -12 l 1,15,-1
 86 629 l 1,16,17
 74 659 74 659 49 674.5 c 128,-1,18
 24 690 24 690 -2 690 c 2,19,-1
 -10 690 l 1,20,-1
 -10 700 l 1,21,-1
 212 700 l 1,22,-1
 212 690 l 1,23,-1
 203 690 l 2,24,25
 182 690 182 690 171.5 676.5 c 128,-1,26
 161 663 161 663 161 651 c 128,-1,27
 161 639 161 639 164 629 c 2,28,-1
 316 142 l 1,29,-1
 502 716 l 1,30,-1
 511 715 l 1,31,-1
 708 162 l 1,32,-1
 842 630 l 2,33,34
 845 641 845 641 845 652.5 c 128,-1,35
 845 664 845 664 835 677 c 128,-1,36
 825 690 825 690 804 690 c 2,37,-1
 795 690 l 1,38,-1
 795 700 l 1,0,-1
EndSplineSet
EndChar

StartChar: x
Encoding: 120 120 91
Width: 662
GlyphClass: 2
Flags: W
LayerCount: 2
Fore
SplineSet
673 0 m 1,0,-1
 429 0 l 1,1,-1
 429 10 l 1,2,-1
 441 10 l 2,3,4
 463 10 463 10 475 30 c 0,5,6
 482 41 482 41 482 51 c 128,-1,7
 482 61 482 61 477 71 c 1,8,-1
 323 314 l 1,9,-1
 169 72 l 2,10,11
 163 62 163 62 163 51.5 c 128,-1,12
 163 41 163 41 170 31 c 0,13,14
 183 10 183 10 204 10 c 2,15,-1
 217 10 l 1,16,-1
 217 0 l 1,17,-1
 -10 0 l 1,18,-1
 -10 10 l 1,19,-1
 4 10 l 2,20,21
 34 10 34 10 61 27 c 128,-1,22
 88 44 88 44 106 69 c 1,23,-1
 297 354 l 1,24,-1
 122 631 l 1,25,26
 104 656 104 656 77.5 673 c 128,-1,27
 51 690 51 690 21 690 c 2,28,-1
 7 690 l 1,29,-1
 7 700 l 1,30,-1
 249 700 l 1,31,-1
 249 690 l 1,32,-1
 237 690 l 2,33,34
 216 690 216 690 203 670 c 0,35,36
 196 659 196 659 196 649 c 128,-1,37
 196 639 196 639 201 629 c 1,38,-1
 339 413 l 1,39,-1
 475 628 l 2,40,41
 481 638 481 638 481 648.5 c 128,-1,42
 481 659 481 659 475 669 c 0,43,44
 463 690 463 690 441 690 c 2,45,-1
 429 690 l 1,46,-1
 429 700 l 1,47,-1
 654 700 l 1,48,-1
 654 690 l 1,49,-1
 640 690 l 2,50,51
 610 690 610 690 583.5 673 c 128,-1,52
 557 656 557 656 539 631 c 2,53,-1
 364 373 l 1,54,-1
 558 68 l 1,55,56
 582 34 582 34 619 18 c 0,57,58
 639 10 639 10 659 10 c 2,59,-1
 673 10 l 1,60,-1
 673 0 l 1,0,-1
EndSplineSet
EndChar

StartChar: y
Encoding: 121 121 92
Width: 661
GlyphClass: 2
Flags: W
LayerCount: 2
Fore
SplineSet
672 690 m 1,0,-1
 658 690 l 2,1,2
 628 690 628 690 601.5 673.5 c 128,-1,3
 575 657 575 657 557 632 c 1,4,-1
 360 312 l 1,5,-1
 360 73 l 2,6,7
 360 47 360 47 378.5 28.5 c 128,-1,8
 397 10 397 10 424 10 c 2,9,-1
 436 10 l 1,10,-1
 436 0 l 1,11,-1
 218 0 l 1,12,-1
 218 10 l 1,13,-1
 231 10 l 2,14,15
 257 10 257 10 275.5 28 c 128,-1,16
 294 46 294 46 295 72 c 1,17,-1
 295 313 l 1,18,-1
 104 632 l 2,19,20
 89 656 89 656 61.5 673 c 128,-1,21
 34 690 34 690 4 690 c 2,22,-1
 -10 690 l 1,23,-1
 -10 700 l 1,24,-1
 236 700 l 1,25,-1
 236 690 l 1,26,-1
 223 690 l 2,27,28
 201 690 201 690 189 670 c 0,29,30
 183 659 183 659 183 648.5 c 128,-1,31
 183 638 183 638 188 628 c 2,32,-1
 338 348 l 1,33,-1
 498 629 l 2,34,35
 503 639 503 639 503 649 c 128,-1,36
 503 659 503 659 496 670 c 0,37,38
 484 690 484 690 462 690 c 2,39,-1
 450 690 l 1,40,-1
 450 700 l 1,41,-1
 672 700 l 1,42,-1
 672 690 l 1,0,-1
EndSplineSet
EndChar

StartChar: z
Encoding: 122 122 93
Width: 651
GlyphClass: 2
Flags: W
LayerCount: 2
Fore
SplineSet
84 611 m 2,0,-1
 84 593 l 1,1,-1
 74 593 l 1,2,-1
 74 719 l 1,3,4
 89 713 89 713 127 707 c 128,-1,5
 165 701 165 701 179.5 701 c 128,-1,6
 194 701 194 701 195 701 c 2,7,-1
 474 701 l 2,8,9
 523 701 523 701 549 706.5 c 128,-1,10
 575 712 575 712 580 714 c 1,11,-1
 580 705 l 1,12,-1
 152 30 l 1,13,-1
 470 30 l 2,14,15
 523 30 523 30 557.5 64 c 128,-1,16
 592 98 592 98 607 154 c 1,17,-1
 617 154 l 1,18,-1
 584 0 l 1,19,-1
 60 0 l 1,20,-1
 60 9 l 1,21,-1
 480 671 l 1,22,-1
 143 671 l 1,23,24
 118 670 118 670 101 653 c 128,-1,25
 84 636 84 636 84 611 c 2,0,-1
EndSplineSet
EndChar

StartChar: braceleft
Encoding: 123 123 94
Width: 432
GlyphClass: 2
Flags: W
LayerCount: 2
Fore
SplineSet
398 768 m 1,0,-1
 393 761 l 1,1,2
 362 769 362 769 337 769 c 0,3,4
 293 769 293 769 266 741 c 0,5,6
 231 705 231 705 231 608 c 1,7,-1
 233 529 l 1,8,9
 233 482 233 482 225 438 c 0,10,11
 219 407 219 407 200.5 381.5 c 128,-1,12
 182 356 182 356 154 343.5 c 128,-1,13
 126 331 126 331 99 331 c 0,14,15
 52 331 52 331 24 364 c 0,16,17
 7 385 7 385 0 418 c 1,18,-1
 8 421 l 1,19,20
 14 399 14 399 29 382 c 0,21,22
 54 353 54 353 87 353 c 0,23,24
 129 353 129 353 155 392 c 0,25,26
 161 401 161 401 164.5 416.5 c 128,-1,27
 168 432 168 432 170 443 c 128,-1,28
 172 454 172 454 172.5 473.5 c 128,-1,29
 173 493 173 493 172.5 503 c 128,-1,30
 172 513 172 513 171 534.5 c 128,-1,31
 170 556 170 556 169.5 565.5 c 128,-1,32
 169 575 169 575 169 608 c 128,-1,33
 169 641 169 641 180 683 c 0,34,35
 209 796 209 796 305 796 c 0,36,37
 348 796 348 796 398 768 c 1,0,-1
393 -121 m 1,38,-1
 398 -128 l 1,39,40
 347 -156 347 -156 300 -156 c 0,41,42
 284 -156 284 -156 265 -149 c 0,43,44
 201 -128 201 -128 180 -43 c 0,45,46
 169 1 169 1 169 36 c 128,-1,47
 169 71 169 71 171 105 c 0,48,49
 172 126 172 126 172.5 136.5 c 128,-1,50
 173 147 173 147 172.5 166.5 c 128,-1,51
 172 186 172 186 170 197 c 128,-1,52
 168 208 168 208 164.5 223.5 c 128,-1,53
 161 239 161 239 154.5 248.5 c 128,-1,54
 148 258 148 258 138.5 267 c 128,-1,55
 129 276 129 276 115 281.5 c 128,-1,56
 101 287 101 287 84 287 c 128,-1,57
 67 287 67 287 48 275 c 0,58,59
 17 254 17 254 7 219 c 1,60,-1
 0 222 l 1,61,62
 7 255 7 255 24 276 c 0,63,64
 51 310 51 310 99 310 c 0,65,66
 151 310 151 310 196 266 c 0,67,68
 204 258 204 258 210.5 244 c 128,-1,69
 217 230 217 230 221 222 c 128,-1,70
 225 214 225 214 227.5 196 c 128,-1,71
 230 178 230 178 231 171.5 c 128,-1,72
 232 165 232 165 232 144 c 128,-1,73
 232 123 232 123 232 119 c 128,-1,74
 232 115 232 115 231 86.5 c 128,-1,75
 230 58 230 58 230 44 c 0,76,77
 230 -75 230 -75 276 -109 c 0,78,79
 294 -123 294 -123 313 -126.5 c 128,-1,80
 332 -130 332 -130 348 -130 c 128,-1,81
 364 -130 364 -130 393 -121 c 1,38,-1
EndSplineSet
EndChar

StartChar: bar
Encoding: 124 124 95
Width: 245
GlyphClass: 2
Flags: W
LayerCount: 2
Fore
SplineSet
100 -180 m 1,0,-1
 100 700 l 1,1,-1
 145 700 l 1,2,-1
 145 -180 l 1,3,-1
 100 -180 l 1,0,-1
EndSplineSet
EndChar

StartChar: braceright
Encoding: 125 125 96
Width: 432
GlyphClass: 2
Flags: W
LayerCount: 2
Fore
SplineSet
202 608 m 1,0,1
 202 705 202 705 167 741 c 0,2,3
 126 783 126 783 40 761 c 1,4,-1
 35 768 l 1,5,6
 85 796 85 796 130 796 c 0,7,8
 146 796 146 796 164 790 c 0,9,10
 230 771 230 771 252 686 c 0,11,12
 264 641 264 641 264 604.5 c 128,-1,13
 264 568 264 568 262 538 c 0,14,15
 261 520 261 520 260.5 510 c 128,-1,16
 260 500 260 500 260 483 c 128,-1,17
 260 466 260 466 261 455.5 c 128,-1,18
 262 445 262 445 264.5 431 c 128,-1,19
 267 417 267 417 271 407.5 c 128,-1,20
 275 398 275 398 281 388 c 128,-1,21
 287 378 287 378 296 371 c 128,-1,22
 305 364 305 364 318.5 358.5 c 128,-1,23
 332 353 332 353 349 353 c 128,-1,24
 366 353 366 353 384 365 c 0,25,26
 415 386 415 386 424 421 c 1,27,-1
 432 418 l 1,28,29
 425 385 425 385 408 364 c 0,30,31
 381 331 381 331 333 331 c 0,32,33
 269 331 269 331 232 381 c 0,34,35
 199 427 199 427 199 529 c 1,36,-1
 202 608 l 1,0,1
35 -128 m 1,37,-1
 40 -121 l 1,38,39
 68 -130 68 -130 98.5 -130 c 128,-1,40
 129 -130 129 -130 157 -109 c 0,41,42
 176 -95 176 -95 186.5 -67 c 128,-1,43
 197 -39 197 -39 200 -11.5 c 128,-1,44
 203 16 203 16 203 37 c 128,-1,45
 203 58 203 58 201 92 c 0,46,47
 200 115 200 115 200 119 c 128,-1,48
 200 123 200 123 200 144 c 128,-1,49
 200 165 200 165 201.5 171.5 c 128,-1,50
 203 178 203 178 205.5 196 c 128,-1,51
 208 214 208 214 212 222 c 128,-1,52
 216 230 216 230 222 244 c 128,-1,53
 228 258 228 258 236.5 266 c 128,-1,54
 245 274 245 274 256 283 c 0,55,56
 290 310 290 310 339 310 c 0,57,58
 355 310 355 310 370 303 c 1,59,60
 419 284 419 284 432 222 c 1,61,-1
 425 219 l 1,62,63
 416 254 416 254 384 275 c 0,64,65
 366 287 366 287 346 287 c 0,66,67
 303 287 303 287 278 248 c 0,68,69
 272 239 272 239 268 223.5 c 128,-1,70
 264 208 264 208 262.5 197 c 128,-1,71
 261 186 261 186 260.5 166.5 c 128,-1,72
 260 147 260 147 260.5 136.5 c 128,-1,73
 261 126 261 126 262 105 c 128,-1,74
 263 84 263 84 263.5 74.5 c 128,-1,75
 264 65 264 65 264 33 c 128,-1,76
 264 1 264 1 254 -39 c 0,77,78
 225 -156 225 -156 129 -156 c 0,79,80
 86 -156 86 -156 35 -128 c 1,37,-1
EndSplineSet
EndChar

StartChar: asciitilde
Encoding: 126 126 97
Width: 493
GlyphClass: 2
Flags: W
LayerCount: 2
Fore
SplineSet
458 313 m 0,0,1
 458 274 458 274 435 249 c 0,2,3
 402 214 402 214 346 214 c 0,4,5
 310 214 310 214 260 248 c 0,6,7
 239 262 239 262 219 277 c 0,8,9
 167 313 167 313 138 313 c 128,-1,10
 109 313 109 313 95.5 294 c 128,-1,11
 82 275 82 275 82 255 c 128,-1,12
 82 235 82 235 85 219 c 1,13,-1
 40 219 l 1,14,15
 37 237 37 237 37 253 c 0,16,17
 37 295 37 295 59 321 c 0,18,19
 90 358 90 358 142 358 c 0,20,21
 186 358 186 358 250 309 c 0,22,23
 317 259 317 259 349 259 c 128,-1,24
 381 259 381 259 401 284 c 0,25,26
 414 299 414 299 414 317 c 128,-1,27
 414 335 414 335 408 353 c 1,28,-1
 453 353 l 1,29,30
 458 331 458 331 458 313 c 0,0,1
EndSplineSet
EndChar

StartChar: exclamdown
Encoding: 161 161 98
Width: 230
GlyphClass: 2
Flags: W
LayerCount: 2
Fore
SplineSet
115 706 m 128,-1,1
 134 706 134 706 147 692.5 c 128,-1,2
 160 679 160 679 160 660.5 c 128,-1,3
 160 642 160 642 147 629 c 128,-1,4
 134 616 134 616 115 616 c 128,-1,5
 96 616 96 616 83 629 c 128,-1,6
 70 642 70 642 70 660.5 c 128,-1,7
 70 679 70 679 83 692.5 c 128,-1,0
 96 706 96 706 115 706 c 128,-1,1
90 299 m 1,8,-1
 111 529 l 1,9,-1
 121 529 l 1,10,-1
 141 299 l 1,11,-1
 153 0 l 1,12,-1
 78 0 l 1,13,-1
 90 299 l 1,8,-1
EndSplineSet
EndChar

StartChar: cent
Encoding: 162 162 99
Width: 602
GlyphClass: 2
Flags: W
LayerCount: 2
Fore
SplineSet
115.5 159.5 m 128,-1,1
 50 231 50 231 50 352 c 128,-1,2
 50 473 50 473 127 545 c 128,-1,3
 204 617 204 617 336 617 c 1,4,-1
 343 701 l 1,5,-1
 373 700 l 1,6,-1
 367 615 l 1,7,8
 457 606 457 606 521 565 c 1,9,-1
 539 443 l 1,10,-1
 532 443 l 1,11,12
 501 572 501 572 364 586 c 1,13,-1
 325 105 l 1,14,15
 425 105 425 105 487 154 c 128,-1,16
 549 203 549 203 555 304 c 1,17,-1
 563 304 l 1,18,-1
 555 186 l 1,19,20
 522 133 522 133 462 104 c 128,-1,21
 402 75 402 75 322 75 c 1,22,-1
 315 -9 l 1,23,-1
 286 -6 l 1,24,-1
 293 77 l 1,25,0
 181 88 181 88 115.5 159.5 c 128,-1,1
125 346 m 0,26,27
 125 209 125 209 203 146 c 0,28,29
 241 116 241 116 295 108 c 1,30,-1
 334 587 l 1,31,32
 234 587 234 587 179.5 524 c 128,-1,33
 125 461 125 461 125 346 c 0,26,27
EndSplineSet
EndChar

StartChar: sterling
Encoding: 163 163 100
Width: 577
GlyphClass: 2
Flags: W
LayerCount: 2
Fore
SplineSet
337 46 m 0,0,1
 481 46 481 46 538 159 c 1,2,-1
 548 159 l 1,3,-1
 502 24 l 1,4,5
 427 -10 427 -10 346 -10 c 0,6,7
 293 -10 293 -10 199 17 c 0,8,9
 165 27 165 27 130 27 c 128,-1,10
 95 27 95 27 68 0 c 1,11,-1
 58 0 l 1,12,-1
 58 10 l 1,13,14
 100 44 100 44 129.5 128 c 128,-1,15
 159 212 159 212 160 329 c 1,16,-1
 50 329 l 1,17,-1
 62 365 l 1,18,-1
 159 365 l 1,19,20
 158 387 158 387 158 407 c 0,21,22
 158 695 158 695 360 714 c 0,23,24
 369 715 369 715 391 715 c 128,-1,25
 413 715 413 715 446.5 700 c 128,-1,26
 480 685 480 685 502 657 c 1,27,-1
 475 566 l 1,28,-1
 465 566 l 1,29,30
 467 579 467 579 467 592 c 0,31,32
 467 636 467 636 441.5 660.5 c 128,-1,33
 416 685 416 685 374 685 c 0,34,35
 330 685 330 685 302 666.5 c 128,-1,36
 274 648 274 648 259 621 c 0,37,38
 228 562 228 562 228 431 c 0,39,40
 228 400 228 400 229 365 c 1,41,-1
 413 365 l 1,42,-1
 400 329 l 1,43,-1
 229 329 l 1,44,45
 228 202 228 202 194 141 c 0,46,47
 176 109 176 109 163 93 c 128,-1,48
 150 77 150 77 125 54 c 1,49,50
 156 64 156 64 191.5 61 c 128,-1,51
 227 58 227 58 241 56 c 0,52,53
 311 46 311 46 337 46 c 0,0,1
EndSplineSet
EndChar

StartChar: currency
Encoding: 164 164 101
Width: 541
GlyphClass: 2
Flags: W
LayerCount: 2
Fore
SplineSet
410 193 m 1,0,1
 350 139 350 139 270 139 c 128,-1,2
 190 139 190 139 130 191 c 1,3,-1
 71 132 l 1,4,-1
 50 154 l 1,5,-1
 109 212 l 1,6,7
 56 272 56 272 56 352.5 c 128,-1,8
 56 433 56 433 110 493 c 1,9,-1
 50 553 l 1,10,-1
 71 574 l 1,11,-1
 131 514 l 1,12,13
 191 565 191 565 270 565 c 128,-1,14
 349 565 349 565 409 513 c 1,15,-1
 470 574 l 1,16,-1
 492 553 l 1,17,-1
 430 492 l 1,18,19
 482 432 482 432 482 352.5 c 128,-1,20
 482 273 482 273 431 214 c 1,21,-1
 492 154 l 1,22,-1
 470 132 l 1,23,-1
 410 193 l 1,0,1
269.5 169 m 128,-1,25
 345 169 345 169 398.5 222.5 c 128,-1,26
 452 276 452 276 452 352 c 128,-1,27
 452 428 452 428 398.5 481.5 c 128,-1,28
 345 535 345 535 269.5 535 c 128,-1,29
 194 535 194 535 140 481.5 c 128,-1,30
 86 428 86 428 86 352 c 128,-1,31
 86 276 86 276 140 222.5 c 128,-1,24
 194 169 194 169 269.5 169 c 128,-1,25
EndSplineSet
EndChar

StartChar: yen
Encoding: 165 165 102
Width: 661
GlyphClass: 2
Flags: W
LayerCount: 2
Fore
SplineSet
672 690 m 1,0,-1
 658 690 l 2,1,2
 628 690 628 690 601.5 673.5 c 128,-1,3
 575 657 575 657 557 632 c 1,4,-1
 423 415 l 1,5,-1
 550 415 l 1,6,-1
 550 385 l 1,7,-1
 405 385 l 1,8,-1
 360 312 l 1,9,-1
 360 295 l 1,10,-1
 550 295 l 1,11,-1
 550 265 l 1,12,-1
 360 265 l 1,13,-1
 360 72 l 2,14,15
 360 46 360 46 379 28 c 128,-1,16
 398 10 398 10 424 10 c 2,17,-1
 436 10 l 1,18,-1
 436 0 l 1,19,-1
 218 0 l 1,20,-1
 218 10 l 1,21,-1
 231 10 l 2,22,23
 257 10 257 10 275.5 28.5 c 128,-1,24
 294 47 294 47 295 73 c 1,25,-1
 295 265 l 1,26,-1
 105 265 l 1,27,-1
 105 295 l 1,28,-1
 295 295 l 1,29,-1
 295 313 l 1,30,-1
 252 385 l 1,31,-1
 105 385 l 1,32,-1
 105 415 l 1,33,-1
 234 415 l 1,34,-1
 104 632 l 2,35,36
 89 656 89 656 61.5 673 c 128,-1,37
 34 690 34 690 4 690 c 2,38,-1
 -10 690 l 1,39,-1
 -10 700 l 1,40,-1
 236 700 l 1,41,-1
 236 690 l 1,42,-1
 223 690 l 2,43,44
 201 690 201 690 189 670 c 0,45,46
 183 659 183 659 183 648.5 c 128,-1,47
 183 638 183 638 188 628 c 2,48,-1
 338 348 l 1,49,-1
 498 629 l 2,50,51
 503 639 503 639 503 649 c 128,-1,52
 503 659 503 659 496 670 c 0,53,54
 484 690 484 690 462 690 c 2,55,-1
 450 690 l 1,56,-1
 450 700 l 1,57,-1
 672 700 l 1,58,-1
 672 690 l 1,0,-1
EndSplineSet
EndChar

StartChar: brokenbar
Encoding: 166 166 103
Width: 245
GlyphClass: 2
Flags: W
LayerCount: 2
Fore
SplineSet
100 350 m 1,0,-1
 100 700 l 1,1,-1
 145 700 l 1,2,-1
 145 350 l 1,3,-1
 100 350 l 1,0,-1
100 -180 m 1,4,-1
 100 170 l 1,5,-1
 145 170 l 1,6,-1
 145 -180 l 1,7,-1
 100 -180 l 1,4,-1
EndSplineSet
EndChar

StartChar: section
Encoding: 167 167 104
Width: 511
GlyphClass: 2
Flags: W
LayerCount: 2
Fore
SplineSet
404 677 m 0,0,1
 421 659 421 659 421 645 c 0,2,3
 421 624 421 624 408 614 c 128,-1,4
 395 604 395 604 379.5 612 c 128,-1,5
 364 620 364 620 347 634 c 1,6,7
 303 674 303 674 261 674 c 0,8,9
 239 674 239 674 207 651.5 c 128,-1,10
 175 629 175 629 175 597 c 0,11,12
 175 529 175 529 336 367 c 0,13,14
 447 255 447 255 447 120 c 0,15,16
 447 39 447 39 402 -34 c 0,17,18
 364 -97 364 -97 303 -130 c 0,19,20
 258 -154 258 -154 202.5 -154 c 128,-1,21
 147 -154 147 -154 116 -121 c 0,22,23
 99 -103 99 -103 99 -89 c 0,24,25
 99 -66 99 -66 115 -54 c 0,26,27
 120 -50 120 -50 127.5 -50 c 128,-1,28
 135 -50 135 -50 152 -60.5 c 128,-1,29
 169 -71 169 -71 190 -90 c 1,30,31
 221 -116 221 -116 251 -116 c 128,-1,32
 281 -116 281 -116 307 -98 c 0,33,34
 342 -74 342 -74 342 -36 c 0,35,36
 342 40 342 40 179 197 c 0,37,38
 112 261 112 261 88.5 323.5 c 128,-1,39
 65 386 65 386 65 433 c 0,40,41
 65 506 65 506 108 582 c 1,42,43
 139 634 139 634 185 667 c 0,44,45
 247 711 247 711 310.5 711 c 128,-1,46
 374 711 374 711 404 677 c 0,0,1
139 583 m 1,47,48
 104 517 104 517 104 459 c 0,49,50
 104 357 104 357 224 248 c 0,51,52
 376 110 376 110 376 15 c 0,53,54
 376 0 376 0 371 -15 c 1,55,56
 407 41 407 41 407 98 c 0,57,58
 407 204 407 204 289 317 c 0,59,60
 169 433 169 433 146 506 c 0,61,62
 138 532 138 532 138 552 c 128,-1,63
 138 572 138 572 139 583 c 1,47,48
EndSplineSet
EndChar

StartChar: dieresis
Encoding: 168 168 105
Width: 600
GlyphClass: 2
Flags: W
LayerCount: 2
Fore
SplineSet
186 700 m 128,-1,1
 170 700 170 700 158.5 711.5 c 128,-1,2
 147 723 147 723 147 739 c 128,-1,3
 147 755 147 755 158.5 766.5 c 128,-1,4
 170 778 170 778 186 778 c 128,-1,5
 202 778 202 778 213.5 766.5 c 128,-1,6
 225 755 225 755 225 739 c 128,-1,7
 225 723 225 723 213.5 711.5 c 128,-1,0
 202 700 202 700 186 700 c 128,-1,1
374.5 700 m 128,-1,9
 358 700 358 700 347 711.5 c 128,-1,10
 336 723 336 723 336 739 c 128,-1,11
 336 755 336 755 347 766.5 c 128,-1,12
 358 778 358 778 374.5 778 c 128,-1,13
 391 778 391 778 402.5 766.5 c 128,-1,14
 414 755 414 755 414 739 c 128,-1,15
 414 723 414 723 402.5 711.5 c 128,-1,8
 391 700 391 700 374.5 700 c 128,-1,9
EndSplineSet
EndChar

StartChar: copyright
Encoding: 169 169 106
Width: 848
GlyphClass: 2
Flags: W
LayerCount: 2
Fore
SplineSet
424 714 m 128,-1,1
 575 714 575 714 681.5 607.5 c 128,-1,2
 788 501 788 501 788 350 c 128,-1,3
 788 199 788 199 681.5 92.5 c 128,-1,4
 575 -14 575 -14 424 -14 c 128,-1,5
 273 -14 273 -14 166.5 92.5 c 128,-1,6
 60 199 60 199 60 350 c 128,-1,7
 60 501 60 501 166.5 607.5 c 128,-1,0
 273 714 273 714 424 714 c 128,-1,1
424 677 m 128,-1,9
 335 677 335 677 259.5 633.5 c 128,-1,10
 184 590 184 590 140.5 514.5 c 128,-1,11
 97 439 97 439 97 350 c 128,-1,12
 97 261 97 261 140.5 185.5 c 128,-1,13
 184 110 184 110 259.5 66.5 c 128,-1,14
 335 23 335 23 424 23 c 128,-1,15
 513 23 513 23 588.5 66.5 c 128,-1,16
 664 110 664 110 707.5 185.5 c 128,-1,17
 751 261 751 261 751 350 c 128,-1,18
 751 439 751 439 707.5 514.5 c 128,-1,19
 664 590 664 590 588.5 633.5 c 128,-1,8
 513 677 513 677 424 677 c 128,-1,9
266.5 191 m 128,-1,21
 201 255 201 255 201 350.5 c 128,-1,22
 201 446 201 446 266.5 509.5 c 128,-1,23
 332 573 332 573 426.5 573 c 128,-1,24
 521 573 521 573 588 530 c 1,25,-1
 602 430 l 1,26,-1
 596 430 l 1,27,28
 583 484 583 484 538.5 515.5 c 128,-1,29
 494 547 494 547 427 547 c 128,-1,30
 360 547 360 547 313.5 490.5 c 128,-1,31
 267 434 267 434 267 350.5 c 128,-1,32
 267 267 267 267 313.5 211 c 128,-1,33
 360 155 360 155 421 154 c 128,-1,34
 482 153 482 153 521.5 169 c 128,-1,35
 561 185 561 185 586.5 222 c 128,-1,36
 612 259 612 259 616 316 c 1,37,-1
 622 316 l 1,38,-1
 615 219 l 1,39,40
 589 176 589 176 539.5 151.5 c 128,-1,41
 490 127 490 127 430 127 c 0,42,20
 332 127 332 127 266.5 191 c 128,-1,21
EndSplineSet
EndChar

StartChar: ordfeminine
Encoding: 170 170 107
Width: 368
GlyphClass: 2
Flags: W
LayerCount: 2
Fore
SplineSet
364 383 m 2,0,-1
 368 383 l 1,1,-1
 368 378 l 1,2,-1
 245 378 l 1,3,-1
 245 383 l 1,4,-1
 250 383 l 2,5,6
 265 383 265 383 271 400 c 0,7,8
 273 408 273 408 269 420 c 2,9,-1
 243 486 l 1,10,-1
 120 486 l 1,11,-1
 91 419 l 2,12,13
 85 403 85 403 92 393 c 128,-1,14
 99 383 99 383 110 383 c 2,15,-1
 114 383 l 1,16,-1
 114 378 l 1,17,-1
 0 378 l 1,18,-1
 0 383 l 1,19,-1
 4 383 l 2,20,21
 31 383 31 383 48 418 c 2,22,-1
 160 655 l 2,23,24
 180 699 180 699 181 714 c 1,25,-1
 186 714 l 1,26,-1
 321 420 l 2,27,28
 339 383 339 383 364 383 c 2,0,-1
130 510 m 1,29,-1
 234 510 l 1,30,-1
 184 638 l 1,31,-1
 130 510 l 1,29,-1
EndSplineSet
EndChar

StartChar: guillemotleft
Encoding: 171 171 108
Width: 425
GlyphClass: 2
Flags: W
LayerCount: 2
Fore
SplineSet
223 485 m 1,0,1
 179 373 179 373 105 292 c 1,2,3
 179 208 179 208 224 95 c 1,4,-1
 215 90 l 1,5,6
 139 209 139 209 40 292 c 1,7,8
 96 338 96 338 136.5 382 c 128,-1,9
 177 426 177 426 215 490 c 1,10,-1
 223 485 l 1,0,1
385 485 m 1,11,12
 341 373 341 373 267 292 c 1,13,14
 341 208 341 208 386 95 c 1,15,-1
 377 90 l 1,16,17
 301 209 301 209 202 292 c 1,18,19
 258 338 258 338 298.5 382 c 128,-1,20
 339 426 339 426 377 490 c 1,21,-1
 385 485 l 1,11,12
EndSplineSet
EndChar

StartChar: logicalnot
Encoding: 172 172 109
Width: 601
GlyphClass: 2
Flags: W
LayerCount: 2
Fore
SplineSet
40 397 m 1,0,-1
 562 397 l 1,1,-1
 562 195 l 1,2,-1
 517 195 l 1,3,-1
 517 352 l 1,4,-1
 40 352 l 1,5,-1
 40 397 l 1,0,-1
EndSplineSet
EndChar

StartChar: softhyphen
Encoding: 173 173 110
Width: 380
GlyphClass: 2
Flags: W
LayerCount: 2
Fore
SplineSet
34 292 m 1,0,-1
 40 314 l 1,1,-1
 340 314 l 1,2,-1
 346 292 l 1,3,-1
 340 269 l 1,4,-1
 40 269 l 1,5,-1
 34 292 l 1,0,-1
EndSplineSet
EndChar

StartChar: registered
Encoding: 174 174 111
Width: 245
GlyphClass: 2
Flags: W
LayerCount: 2
Fore
SplineSet
123 701 m 128,-1,1
 170 701 170 701 203 668 c 128,-1,2
 236 635 236 635 236 588 c 128,-1,3
 236 541 236 541 203 508 c 128,-1,4
 170 475 170 475 123 475 c 128,-1,5
 76 475 76 475 43 508 c 128,-1,6
 10 541 10 541 10 588 c 128,-1,7
 10 635 10 635 43 668 c 128,-1,0
 76 701 76 701 123 701 c 128,-1,1
122.5 495 m 128,-1,9
 161 495 161 495 188.5 522.5 c 128,-1,10
 216 550 216 550 216 588 c 128,-1,11
 216 626 216 626 188.5 653.5 c 128,-1,12
 161 681 161 681 122.5 681 c 128,-1,13
 84 681 84 681 57 653.5 c 128,-1,14
 30 626 30 626 30 588 c 128,-1,15
 30 550 30 550 57 522.5 c 128,-1,8
 84 495 84 495 122.5 495 c 128,-1,9
156.5 643 m 128,-1,17
 168 634 168 634 168 620.5 c 128,-1,18
 168 607 168 607 160 597.5 c 128,-1,19
 152 588 152 588 139 586 c 1,20,21
 147 585 147 585 156.5 570 c 128,-1,22
 166 555 166 555 172.5 546 c 128,-1,23
 179 537 179 537 188 534 c 1,24,-1
 188 532 l 1,25,-1
 176 532 l 2,26,27
 156 532 156 532 148 540 c 128,-1,28
 140 548 140 548 137 552 c 128,-1,29
 134 556 134 556 129 565 c 0,30,31
 116 590 116 590 112 590 c 1,32,-1
 112 592 l 1,33,-1
 122 592 l 1,34,35
 142 596 142 596 141.5 619 c 128,-1,36
 141 642 141 642 117 642 c 1,37,38
 117 642 117 642 117 642 c 1,39,-1
 105 643 l 1,40,-1
 105 545 l 2,41,42
 105 534 105 534 115 534 c 2,43,-1
 118 534 l 1,44,-1
 118 532 l 1,45,-1
 68 532 l 1,46,-1
 68 534 l 1,47,-1
 70 534 l 2,48,49
 80 534 80 534 81 544 c 1,50,-1
 81 639 l 1,51,52
 80 650 80 650 70 650 c 2,53,-1
 68 650 l 1,54,-1
 68 652 l 1,55,-1
 105 652 l 1,56,-1
 126 652 l 2,57,16
 145 652 145 652 156.5 643 c 128,-1,17
EndSplineSet
EndChar

StartChar: macron
Encoding: 175 175 112
Width: 600
GlyphClass: 2
Flags: W
LayerCount: 2
Fore
SplineSet
170 703 m 1,0,-1
 170 738 l 1,1,-1
 420 738 l 1,2,-1
 420 703 l 1,3,-1
 170 703 l 1,0,-1
EndSplineSet
EndChar

StartChar: degree
Encoding: 176 176 113
Width: 257
GlyphClass: 2
Flags: W
LayerCount: 2
Fore
SplineSet
128.5 664 m 128,-1,1
 169 664 169 664 198 635.5 c 128,-1,2
 227 607 227 607 227 566 c 128,-1,3
 227 525 227 525 198 496 c 128,-1,4
 169 467 169 467 128.5 467 c 128,-1,5
 88 467 88 467 59 496 c 128,-1,6
 30 525 30 525 30 566 c 128,-1,7
 30 607 30 607 59 635.5 c 128,-1,0
 88 664 88 664 128.5 664 c 128,-1,1
128.5 625 m 128,-1,9
 104 625 104 625 86.5 608 c 128,-1,10
 69 591 69 591 69 566 c 128,-1,11
 69 541 69 541 86.5 524 c 128,-1,12
 104 507 104 507 128.5 507 c 128,-1,13
 153 507 153 507 170.5 524 c 128,-1,14
 188 541 188 541 188 566 c 128,-1,15
 188 591 188 591 170.5 608 c 128,-1,8
 153 625 153 625 128.5 625 c 128,-1,9
EndSplineSet
EndChar

StartChar: plusminus
Encoding: 177 177 114
Width: 481
GlyphClass: 2
Flags: W
LayerCount: 2
Fore
SplineSet
263 402 m 1,0,-1
 442 402 l 1,1,-1
 442 357 l 1,2,-1
 263 357 l 1,3,-1
 263 179 l 1,4,-1
 218 179 l 1,5,-1
 218 357 l 1,6,-1
 40 357 l 1,7,-1
 40 402 l 1,8,-1
 218 402 l 1,9,-1
 218 581 l 1,10,-1
 263 581 l 1,11,-1
 263 402 l 1,0,-1
40 60 m 1,12,-1
 40 105 l 1,13,-1
 442 105 l 1,14,-1
 442 60 l 1,15,-1
 40 60 l 1,12,-1
EndSplineSet
EndChar

StartChar: twosuperior
Encoding: 178 178 115
Width: 375
GlyphClass: 2
Flags: W
LayerCount: 2
Fore
SplineSet
90.5 702 m 128,-1,1
 122 714 122 714 158.5 714 c 128,-1,2
 195 714 195 714 228.5 699 c 128,-1,3
 262 684 262 684 282 656 c 128,-1,4
 302 628 302 628 302 594.5 c 128,-1,5
 302 561 302 561 289 530.5 c 128,-1,6
 276 500 276 500 260.5 478 c 128,-1,7
 245 456 245 456 216 430 c 0,8,9
 180 398 180 398 148.5 375 c 128,-1,10
 117 352 117 352 113 350 c 1,11,-1
 251 350 l 2,12,13
 285 350 285 350 303 368 c 0,14,15
 315 381 315 381 329 406 c 1,16,-1
 335 406 l 1,17,-1
 304 308 l 1,18,-1
 30 308 l 1,19,-1
 30 315 l 1,20,21
 42 326 42 326 81 359.5 c 128,-1,22
 120 393 120 393 142 414.5 c 128,-1,23
 164 436 164 436 192 467 c 0,24,25
 247 530 247 530 247 583 c 128,-1,26
 247 636 247 636 221.5 662.5 c 128,-1,27
 196 689 196 689 156 689 c 0,28,29
 113 689 113 689 85 663.5 c 128,-1,30
 57 638 57 638 58 595 c 1,31,-1
 51 595 l 1,32,-1
 40 670 l 1,33,0
 59 690 59 690 90.5 702 c 128,-1,1
EndSplineSet
EndChar

StartChar: threesuperior
Encoding: 179 179 116
Width: 310
GlyphClass: 2
Flags: W
LayerCount: 2
Fore
SplineSet
40 675 m 1,0,1
 71 712 71 712 130 712 c 128,-1,2
 189 712 189 712 223.5 687 c 128,-1,3
 258 662 258 662 258 626.5 c 128,-1,4
 258 591 258 591 231.5 565 c 128,-1,5
 205 539 205 539 172 532 c 1,6,7
 212 527 212 527 242 501.5 c 128,-1,8
 272 476 272 476 272 439 c 0,9,10
 272 351 272 351 202 309 c 0,11,12
 155 280 155 280 93 280 c 0,13,14
 63 280 63 280 30 286 c 1,15,-1
 31 293 l 1,16,17
 36 293 36 293 40 293 c 0,18,19
 117 293 117 293 168 330 c 128,-1,20
 219 367 219 367 219 437 c 0,21,22
 219 523 219 523 89 523 c 1,23,-1
 90 529 l 1,24,25
 140 529 140 529 173 554 c 128,-1,26
 206 579 206 579 206 615.5 c 128,-1,27
 206 652 206 652 186 670 c 128,-1,28
 166 688 166 688 131 688 c 0,29,30
 58 688 58 688 58 618 c 0,31,32
 58 615 58 615 58 613 c 1,33,-1
 51 613 l 1,34,-1
 40 675 l 1,0,1
EndSplineSet
EndChar

StartChar: acute
Encoding: 180 180 117
Width: 439
GlyphClass: 2
Flags: W
LayerCount: 2
Fore
SplineSet
208 746 m 1,0,-1
 201 753 l 1,1,2
 277 835 277 835 328 884 c 1,3,4
 354 857 354 857 369 831 c 1,5,6
 304 794 304 794 208 746 c 1,0,-1
EndSplineSet
EndChar

StartChar: paragraph
Encoding: 182 182 118
Width: 520
GlyphClass: 2
Flags: W
LayerCount: 2
Fore
SplineSet
392 670 m 1,0,-1
 392 147 l 2,1,2
 392 88 392 88 382.5 55 c 128,-1,3
 373 22 373 22 344 -13 c 1,4,-1
 335 -5 l 1,5,6
 360 37 360 37 361 85 c 0,7,8
 362 100 362 100 362 145 c 2,9,-1
 362 670 l 1,10,-1
 279 670 l 1,11,-1
 279 0 l 2,12,13
 279 -93 279 -93 259 -133 c 0,14,15
 237 -176 237 -176 193 -199 c 1,16,-1
 186 -190 l 1,17,18
 227 -148 227 -148 237 -114.5 c 128,-1,19
 247 -81 247 -81 247 -47 c 128,-1,20
 247 -13 247 -13 246 0 c 1,21,-1
 246 333 l 1,22,23
 161 333 161 333 105.5 383 c 128,-1,24
 50 433 50 433 50 516 c 128,-1,25
 50 599 50 599 106.5 649.5 c 128,-1,26
 163 700 163 700 246 700 c 2,27,-1
 408 700 l 1,28,29
 408 700 408 700 415 700 c 128,-1,30
 422 700 422 700 424 700 c 128,-1,31
 426 700 426 700 432.5 700.5 c 128,-1,32
 439 701 439 701 443 702.5 c 128,-1,33
 447 704 447 704 453.5 705.5 c 128,-1,34
 460 707 460 707 465.5 710.5 c 128,-1,35
 471 714 471 714 477 718 c 0,36,37
 489 726 489 726 503 743 c 1,38,-1
 510 737 l 1,39,40
 481 672 481 672 405 670 c 1,41,-1
 392 670 l 1,0,-1
EndSplineSet
EndChar

StartChar: periodcentered
Encoding: 183 183 119
Width: 170
GlyphClass: 2
Flags: W
LayerCount: 2
Fore
SplineSet
61 363 m 0,0,1
 73 366 73 366 91 366 c 128,-1,2
 109 366 109 366 130.5 353 c 128,-1,3
 152 340 152 340 160 321 c 1,4,5
 152 302 152 302 130.5 289 c 128,-1,6
 109 276 109 276 85 276 c 128,-1,7
 61 276 61 276 39.5 289 c 128,-1,8
 18 302 18 302 10 321 c 1,9,10
 22 351 22 351 61 363 c 0,0,1
85 346 m 128,-1,12
 71 346 71 346 56.5 338.5 c 128,-1,13
 42 331 42 331 38 321 c 1,14,15
 42 311 42 311 56.5 303.5 c 128,-1,16
 71 296 71 296 85 296 c 128,-1,17
 99 296 99 296 113.5 303.5 c 128,-1,18
 128 311 128 311 132 321 c 1,19,20
 128 331 128 331 113.5 338.5 c 128,-1,11
 99 346 99 346 85 346 c 128,-1,12
EndSplineSet
EndChar

StartChar: cedilla
Encoding: 184 184 120
Width: 600
GlyphClass: 2
Flags: W
LayerCount: 2
Fore
SplineSet
282 -48 m 1,0,1
 313 -37 313 -37 338 -44 c 0,2,3
 387 -57 387 -57 387 -105 c 128,-1,4
 387 -153 387 -153 343 -174 c 0,5,6
 317 -186 317 -186 292.5 -186 c 128,-1,7
 268 -186 268 -186 246 -179 c 1,8,-1
 247 -169 l 1,9,10
 283 -169 283 -169 310 -154 c 128,-1,11
 337 -139 337 -139 337 -108 c 0,12,13
 337 -64 337 -64 286 -64 c 0,14,15
 269 -64 269 -64 253 -72 c 1,16,-1
 248 -62 l 1,17,-1
 296 1 l 1,18,-1
 323 1 l 1,19,-1
 282 -48 l 1,0,1
EndSplineSet
EndChar

StartChar: onesuperior
Encoding: 185 185 121
Width: 211
GlyphClass: 2
Flags: W
LayerCount: 2
Fore
SplineSet
191 315 m 1,0,-1
 191 308 l 1,1,-1
 45 308 l 1,2,-1
 45 315 l 1,3,-1
 59 315 l 2,4,5
 74 315 74 315 85 325.5 c 128,-1,6
 96 336 96 336 96 351 c 2,7,-1
 96 632 l 2,8,9
 96 665 96 665 65 665 c 2,10,-1
 40 665 l 1,11,-1
 40 671 l 1,12,13
 72 676 72 676 94 684.5 c 128,-1,14
 116 693 116 693 134 714 c 1,15,-1
 140 714 l 1,16,-1
 140 350 l 2,17,18
 140 336 140 336 151 325.5 c 128,-1,19
 162 315 162 315 177 315 c 2,20,-1
 191 315 l 1,0,-1
EndSplineSet
EndChar

StartChar: ordmasculine
Encoding: 186 186 122
Width: 412
GlyphClass: 2
Flags: W
LayerCount: 2
Fore
SplineSet
206 714 m 128,-1,1
 279 714 279 714 331 664 c 128,-1,2
 383 614 383 614 383 542 c 128,-1,3
 383 470 383 470 331 420 c 128,-1,4
 279 370 279 370 206 370 c 128,-1,5
 133 370 133 370 81.5 420 c 128,-1,6
 30 470 30 470 30 542 c 128,-1,7
 30 614 30 614 81.5 664 c 128,-1,0
 133 714 133 714 206 714 c 128,-1,1
206.5 391 m 128,-1,9
 259 391 259 391 293.5 434 c 128,-1,10
 328 477 328 477 328 542 c 128,-1,11
 328 607 328 607 293.5 650 c 128,-1,12
 259 693 259 693 206.5 693 c 128,-1,13
 154 693 154 693 119.5 650 c 128,-1,14
 85 607 85 607 85 542 c 128,-1,15
 85 477 85 477 119.5 434 c 128,-1,8
 154 391 154 391 206.5 391 c 128,-1,9
EndSplineSet
EndChar

StartChar: guillemotright
Encoding: 187 187 123
Width: 425
GlyphClass: 2
Flags: W
LayerCount: 2
Fore
SplineSet
202 95 m 1,0,1
 246 208 246 208 321 292 c 1,2,3
 247 373 247 373 203 485 c 1,4,-1
 211 490 l 1,5,6
 249 426 249 426 289.5 382 c 128,-1,7
 330 338 330 338 386 292 c 1,8,9
 287 209 287 209 211 90 c 1,10,-1
 202 95 l 1,0,1
40 95 m 1,11,12
 84 208 84 208 159 292 c 1,13,14
 85 373 85 373 41 485 c 1,15,-1
 49 490 l 1,16,17
 87 426 87 426 127.5 382 c 128,-1,18
 168 338 168 338 224 292 c 1,19,20
 125 209 125 209 49 90 c 1,21,-1
 40 95 l 1,11,12
EndSplineSet
EndChar

StartChar: onequarter
Encoding: 188 188 124
Width: 713
GlyphClass: 2
Flags: W
LayerCount: 2
Fore
SplineSet
578 714 m 1,0,-1
 602 697 l 1,1,-1
 125 -14 l 1,2,-1
 100 2 l 1,3,-1
 578 714 l 1,0,-1
211 308 m 1,4,-1
 65 308 l 1,5,-1
 65 315 l 1,6,-1
 79 315 l 2,7,8
 94 315 94 315 105 325.5 c 128,-1,9
 116 336 116 336 116 351 c 2,10,-1
 116 632 l 2,11,12
 116 665 116 665 85 665 c 2,13,-1
 60 665 l 1,14,-1
 60 671 l 1,15,16
 92 676 92 676 114 684.5 c 128,-1,17
 136 693 136 693 154 714 c 1,18,-1
 161 714 l 1,19,-1
 161 350 l 2,20,21
 161 336 161 336 171.5 325.5 c 128,-1,22
 182 315 182 315 197 315 c 2,23,-1
 211 315 l 1,24,-1
 211 308 l 1,4,-1
617 130 m 1,25,-1
 617 41 l 1,26,27
 618 27 618 27 628.5 16.5 c 128,-1,28
 639 6 639 6 654 6 c 2,29,-1
 661 6 l 1,30,-1
 661 -1 l 1,31,-1
 529 -1 l 1,32,-1
 529 6 l 1,33,-1
 536 6 l 2,34,35
 551 6 551 6 561.5 15.5 c 128,-1,36
 572 25 572 25 573 40 c 1,37,-1
 573 130 l 1,38,-1
 391 130 l 1,39,-1
 391 136 l 1,40,-1
 611 405 l 1,41,-1
 617 405 l 1,42,-1
 617 163 l 1,43,-1
 646 163 l 2,44,45
 663 163 663 163 669.5 166 c 128,-1,46
 676 169 676 169 683 177 c 1,47,-1
 689 177 l 1,48,-1
 675 130 l 1,49,-1
 617 130 l 1,25,-1
573 163 m 1,50,-1
 573 323 l 1,51,-1
 445 163 l 1,52,-1
 573 163 l 1,50,-1
EndSplineSet
EndChar

StartChar: onehalf
Encoding: 189 189 125
Width: 805
GlyphClass: 2
Flags: W
LayerCount: 2
Fore
SplineSet
577 714 m 1,0,-1
 601 697 l 1,1,-1
 124 -14 l 1,2,-1
 99 2 l 1,3,-1
 577 714 l 1,0,-1
211 315 m 1,4,-1
 211 308 l 1,5,-1
 65 308 l 1,6,-1
 65 315 l 1,7,-1
 79 315 l 2,8,9
 94 315 94 315 105 325.5 c 128,-1,10
 116 336 116 336 116 351 c 2,11,-1
 116 632 l 2,12,13
 116 665 116 665 85 665 c 2,14,-1
 60 665 l 1,15,-1
 60 671 l 1,16,17
 81 674 81 674 95 678 c 0,18,19
 131 687 131 687 154 714 c 1,20,-1
 160 714 l 1,21,-1
 160 350 l 2,22,23
 160 336 160 336 171 325.5 c 128,-1,24
 182 315 182 315 197 315 c 2,25,-1
 211 315 l 1,4,-1
583 406 m 0,26,27
 646 406 646 406 689 372 c 128,-1,28
 732 338 732 338 732 284 c 0,29,30
 732 183 732 183 601 84 c 0,31,32
 584 71 584 71 565.5 57.5 c 128,-1,33
 547 44 547 44 543 42 c 1,34,-1
 681 42 l 2,35,36
 709 42 709 42 724.5 53.5 c 128,-1,37
 740 65 740 65 759 98 c 1,38,-1
 765 98 l 1,39,-1
 734 0 l 1,40,-1
 460 0 l 1,41,-1
 460 7 l 1,42,43
 473 19 473 19 502.5 44.5 c 128,-1,44
 532 70 532 70 551.5 87.5 c 128,-1,45
 571 105 571 105 597 132 c 128,-1,46
 623 159 623 159 639 181 c 0,47,48
 677 235 677 235 677 281.5 c 128,-1,49
 677 328 677 328 651.5 354.5 c 128,-1,50
 626 381 626 381 586 381 c 0,51,52
 543 381 543 381 515 355.5 c 128,-1,53
 487 330 487 330 488 287 c 1,54,-1
 481 287 l 1,55,-1
 469 362 l 1,56,57
 489 382 489 382 520.5 394 c 128,-1,58
 552 406 552 406 583 406 c 0,26,27
EndSplineSet
EndChar

StartChar: threequarters
Encoding: 190 190 126
Width: 713
GlyphClass: 2
Flags: W
LayerCount: 2
Fore
SplineSet
621 714 m 1,0,-1
 645 697 l 1,1,-1
 168 -14 l 1,2,-1
 143 2 l 1,3,-1
 621 714 l 1,0,-1
40 675 m 1,4,5
 71 712 71 712 130 712 c 128,-1,6
 189 712 189 712 223.5 687 c 128,-1,7
 258 662 258 662 258 626.5 c 128,-1,8
 258 591 258 591 231.5 565 c 128,-1,9
 205 539 205 539 172 532 c 1,10,11
 228 525 228 525 257 484 c 0,12,13
 272 464 272 464 272 439 c 0,14,15
 272 351 272 351 202 309 c 0,16,17
 155 280 155 280 93 280 c 0,18,19
 63 280 63 280 30 286 c 1,20,-1
 31 293 l 1,21,22
 35 293 35 293 55 293 c 128,-1,23
 75 293 75 293 107 301.5 c 128,-1,24
 139 310 139 310 165 327 c 1,25,26
 219 365 219 365 219 437 c 0,27,28
 219 523 219 523 89 523 c 1,29,-1
 90 529 l 1,30,31
 140 529 140 529 173 554 c 128,-1,32
 206 579 206 579 206 615.5 c 128,-1,33
 206 652 206 652 186 670 c 128,-1,34
 166 688 166 688 131 688 c 0,35,36
 58 688 58 688 58 618 c 0,37,38
 58 615 58 615 58 613 c 1,39,-1
 51 613 l 1,40,-1
 40 675 l 1,4,5
622 130 m 1,41,-1
 622 41 l 2,42,43
 622 27 622 27 633 16.5 c 128,-1,44
 644 6 644 6 659 6 c 2,45,-1
 666 6 l 1,46,-1
 666 -1 l 1,47,-1
 534 -1 l 1,48,-1
 534 6 l 1,49,-1
 541 6 l 2,50,51
 556 6 556 6 566.5 15.5 c 128,-1,52
 577 25 577 25 578 40 c 1,53,-1
 578 130 l 1,54,-1
 396 130 l 1,55,-1
 396 136 l 1,56,-1
 616 405 l 1,57,-1
 622 405 l 1,58,-1
 622 163 l 1,59,-1
 651 163 l 2,60,61
 668 163 668 163 674.5 166 c 128,-1,62
 681 169 681 169 687 177 c 1,63,-1
 694 177 l 1,64,-1
 680 130 l 1,65,-1
 622 130 l 1,41,-1
578 163 m 1,66,-1
 578 323 l 1,67,-1
 450 163 l 1,68,-1
 578 163 l 1,66,-1
EndSplineSet
EndChar

StartChar: questiondown
Encoding: 191 191 127
Width: 433
GlyphClass: 2
Flags: W
LayerCount: 2
Fore
SplineSet
233 704 m 128,-1,1
 252 704 252 704 265 691 c 128,-1,2
 278 678 278 678 278 659 c 128,-1,3
 278 640 278 640 265 627 c 128,-1,4
 252 614 252 614 233 614 c 128,-1,5
 214 614 214 614 201 627 c 128,-1,6
 188 640 188 640 188 659 c 128,-1,7
 188 678 188 678 201 691 c 128,-1,0
 214 704 214 704 233 704 c 128,-1,1
393 75 m 1,8,9
 345 -14 345 -14 239 -14 c 0,10,11
 185 -14 185 -14 141 6 c 0,12,13
 50 48 50 48 50 156 c 0,14,15
 50 218 50 218 90 267 c 0,16,17
 124 308 124 308 156 338 c 0,18,19
 215 392 215 392 227 433 c 1,20,21
 235 453 235 453 235 477.5 c 128,-1,22
 235 502 235 502 217 525 c 1,23,-1
 223 530 l 1,24,25
 268 489 268 489 268 434 c 0,26,27
 268 389 268 389 217 331 c 0,28,29
 196 307 196 307 175 281 c 0,30,31
 125 220 125 220 125 155 c 128,-1,32
 125 90 125 90 157 53 c 128,-1,33
 189 16 189 16 247.5 16 c 128,-1,34
 306 16 306 16 339.5 56.5 c 128,-1,35
 373 97 373 97 373 164 c 0,36,37
 373 167 373 167 373 170 c 1,38,-1
 383 170 l 1,39,-1
 393 75 l 1,8,9
EndSplineSet
EndChar

StartChar: Agrave
Encoding: 192 192 128
Width: 712
GlyphClass: 2
Flags: W
LayerCount: 2
Fore
SplineSet
374 781 m 1,0,-1
 367 774 l 1,1,2
 286 812 286 812 206 859 c 1,3,4
 220 887 220 887 247 912 c 1,5,6
 310 851 310 851 374 781 c 1,0,-1
118 734 m 1,7,8
 183 761 183 761 243 761 c 0,9,10
 293 761 293 761 346 724 c 0,11,12
 375 704 375 704 411 646 c 0,13,14
 435 606 435 606 472 501 c 2,15,-1
 594 155 l 1,16,17
 636 39 636 39 679.5 -29.5 c 128,-1,18
 723 -98 723 -98 759 -132.5 c 128,-1,19
 795 -167 795 -167 834 -181 c 128,-1,20
 873 -195 873 -195 898.5 -195 c 128,-1,21
 924 -195 924 -195 944 -191 c 1,22,-1
 945 -201 l 1,23,24
 897 -217 897 -217 851 -217 c 128,-1,25
 805 -217 805 -217 759 -193.5 c 128,-1,26
 713 -170 713 -170 673 -128 c 1,27,28
 587 -41 587 -41 527 137 c 2,29,-1
 488 251 l 1,30,-1
 214 251 l 1,31,-1
 145 73 l 2,32,33
 140 61 140 61 140 49 c 128,-1,34
 140 37 140 37 150.5 23.5 c 128,-1,35
 161 10 161 10 183 10 c 2,36,-1
 191 10 l 1,37,-1
 191 0 l 1,38,-1
 -10 0 l 1,39,-1
 -10 10 l 1,40,-1
 -1 10 l 2,41,42
 23 10 23 10 46 24.5 c 128,-1,43
 69 39 69 39 84 68 c 1,44,-1
 332 662 l 1,45,46
 278 738 278 738 198 738 c 0,47,48
 162 738 162 738 121 724 c 1,49,-1
 118 734 l 1,7,8
225 281 m 1,50,-1
 478 281 l 1,51,-1
 399 514 l 2,52,53
 376 581 376 581 357 619 c 1,54,-1
 225 281 l 1,50,-1
EndSplineSet
EndChar

StartChar: Aacute
Encoding: 193 193 129
Width: 712
GlyphClass: 2
Flags: W
LayerCount: 2
Fore
SplineSet
367 774 m 1,0,-1
 360 781 l 1,1,2
 436 863 436 863 487 912 c 1,3,4
 513 885 513 885 527 859 c 1,5,6
 463 822 463 822 367 774 c 1,0,-1
118 734 m 1,7,8
 183 761 183 761 243 761 c 0,9,10
 293 761 293 761 346 724 c 0,11,12
 375 704 375 704 411 646 c 0,13,14
 435 606 435 606 472 501 c 2,15,-1
 594 155 l 1,16,17
 636 39 636 39 679.5 -29.5 c 128,-1,18
 723 -98 723 -98 759 -132.5 c 128,-1,19
 795 -167 795 -167 834 -181 c 128,-1,20
 873 -195 873 -195 898.5 -195 c 128,-1,21
 924 -195 924 -195 944 -191 c 1,22,-1
 945 -201 l 1,23,24
 897 -217 897 -217 851 -217 c 128,-1,25
 805 -217 805 -217 759 -193.5 c 128,-1,26
 713 -170 713 -170 673 -128 c 1,27,28
 587 -41 587 -41 527 137 c 2,29,-1
 488 251 l 1,30,-1
 214 251 l 1,31,-1
 145 73 l 2,32,33
 140 61 140 61 140 49 c 128,-1,34
 140 37 140 37 150.5 23.5 c 128,-1,35
 161 10 161 10 183 10 c 2,36,-1
 191 10 l 1,37,-1
 191 0 l 1,38,-1
 -10 0 l 1,39,-1
 -10 10 l 1,40,-1
 -1 10 l 2,41,42
 23 10 23 10 46 24.5 c 128,-1,43
 69 39 69 39 84 68 c 1,44,-1
 332 662 l 1,45,46
 278 739 278 739 198 739 c 0,47,48
 162 739 162 739 121 724 c 1,49,-1
 118 734 l 1,7,8
225 281 m 1,50,-1
 478 281 l 1,51,-1
 399 514 l 2,52,53
 376 581 376 581 357 619 c 1,54,-1
 225 281 l 1,50,-1
EndSplineSet
EndChar

StartChar: Acircumflex
Encoding: 194 194 130
Width: 712
GlyphClass: 2
Flags: W
LayerCount: 2
Fore
SplineSet
361 900 m 1,0,-1
 371 900 l 1,1,-1
 486 781 l 1,2,-1
 480 773 l 1,3,-1
 366 839 l 1,4,-1
 261 773 l 1,5,-1
 255 781 l 1,6,-1
 361 900 l 1,0,-1
118 734 m 1,7,8
 181 760 181 760 241 760 c 0,9,10
 264 760 264 760 288.5 755 c 128,-1,11
 313 750 313 750 341 727.5 c 128,-1,12
 369 705 369 705 386 684 c 128,-1,13
 403 663 403 663 422 625 c 0,14,15
 446 576 446 576 472 501 c 2,16,-1
 594 155 l 1,17,18
 636 39 636 39 679.5 -29.5 c 128,-1,19
 723 -98 723 -98 759 -132.5 c 128,-1,20
 795 -167 795 -167 834 -181 c 128,-1,21
 873 -195 873 -195 898.5 -195 c 128,-1,22
 924 -195 924 -195 944 -191 c 1,23,-1
 945 -201 l 1,24,25
 897 -217 897 -217 851 -217 c 128,-1,26
 805 -217 805 -217 759 -193.5 c 128,-1,27
 713 -170 713 -170 673 -128 c 1,28,29
 587 -41 587 -41 527 137 c 2,30,-1
 488 251 l 1,31,-1
 214 251 l 1,32,-1
 145 73 l 2,33,34
 140 61 140 61 140 49 c 128,-1,35
 140 37 140 37 150.5 23.5 c 128,-1,36
 161 10 161 10 183 10 c 2,37,-1
 191 10 l 1,38,-1
 191 0 l 1,39,-1
 -10 0 l 1,40,-1
 -10 10 l 1,41,-1
 -1 10 l 2,42,43
 23 10 23 10 46 24.5 c 128,-1,44
 69 39 69 39 84 68 c 1,45,-1
 332 662 l 1,46,47
 278 739 278 739 198 739 c 0,48,49
 162 739 162 739 121 724 c 1,50,-1
 118 734 l 1,7,8
225 281 m 1,51,-1
 478 281 l 1,52,-1
 399 514 l 2,53,54
 376 581 376 581 357 619 c 1,55,-1
 225 281 l 1,51,-1
EndSplineSet
EndChar

StartChar: Atilde
Encoding: 195 195 131
Width: 712
GlyphClass: 2
Flags: W
LayerCount: 2
Fore
SplineSet
437 819 m 0,0,1
 478 819 478 819 492 853 c 1,2,-1
 502 853 l 1,3,4
 498 816 498 816 481 795 c 0,5,6
 472 785 472 785 461 779.5 c 128,-1,7
 450 774 450 774 432 774 c 128,-1,8
 414 774 414 774 372.5 796 c 128,-1,9
 331 818 331 818 316 818 c 0,10,11
 279 818 279 818 262 777 c 1,12,-1
 252 777 l 1,13,14
 258 816 258 816 275 839 c 128,-1,15
 292 862 292 862 316 862 c 128,-1,16
 340 862 340 862 380.5 840.5 c 128,-1,17
 421 819 421 819 437 819 c 0,0,1
118 734 m 1,18,19
 181 760 181 760 241 760 c 0,20,21
 264 760 264 760 288.5 755 c 128,-1,22
 313 750 313 750 341 727.5 c 128,-1,23
 369 705 369 705 386 684 c 128,-1,24
 403 663 403 663 422 625 c 0,25,26
 446 576 446 576 472 501 c 2,27,-1
 594 155 l 1,28,29
 636 39 636 39 679.5 -29.5 c 128,-1,30
 723 -98 723 -98 759 -132.5 c 128,-1,31
 795 -167 795 -167 834 -181 c 128,-1,32
 873 -195 873 -195 898.5 -195 c 128,-1,33
 924 -195 924 -195 944 -191 c 1,34,-1
 945 -201 l 1,35,36
 897 -217 897 -217 851 -217 c 128,-1,37
 805 -217 805 -217 759 -193.5 c 128,-1,38
 713 -170 713 -170 673 -128 c 1,39,40
 587 -41 587 -41 527 137 c 2,41,-1
 488 251 l 1,42,-1
 214 251 l 1,43,-1
 145 73 l 2,44,45
 140 61 140 61 140 49 c 128,-1,46
 140 37 140 37 150.5 23.5 c 128,-1,47
 161 10 161 10 183 10 c 2,48,-1
 191 10 l 1,49,-1
 191 0 l 1,50,-1
 -10 0 l 1,51,-1
 -10 10 l 1,52,-1
 -1 10 l 2,53,54
 23 10 23 10 46 24.5 c 128,-1,55
 69 39 69 39 84 68 c 1,56,-1
 332 662 l 1,57,58
 278 739 278 739 198 739 c 0,59,60
 162 739 162 739 121 724 c 1,61,-1
 118 734 l 1,18,19
225 281 m 1,62,-1
 478 281 l 1,63,-1
 399 514 l 2,64,65
 376 581 376 581 357 619 c 1,66,-1
 225 281 l 1,62,-1
EndSplineSet
EndChar

StartChar: Adieresis
Encoding: 196 196 132
Width: 712
GlyphClass: 2
Flags: W
LayerCount: 2
Fore
SplineSet
272.5 774 m 128,-1,1
 256 774 256 774 244.5 785.5 c 128,-1,2
 233 797 233 797 233 813 c 128,-1,3
 233 829 233 829 244.5 840.5 c 128,-1,4
 256 852 256 852 272.5 852 c 128,-1,5
 289 852 289 852 300.5 840.5 c 128,-1,6
 312 829 312 829 312 813 c 128,-1,7
 312 797 312 797 300.5 785.5 c 128,-1,0
 289 774 289 774 272.5 774 c 128,-1,1
461 774 m 128,-1,9
 445 774 445 774 433.5 785.5 c 128,-1,10
 422 797 422 797 422 813 c 128,-1,11
 422 829 422 829 433.5 840.5 c 128,-1,12
 445 852 445 852 461 852 c 128,-1,13
 477 852 477 852 488.5 840.5 c 128,-1,14
 500 829 500 829 500 813 c 128,-1,15
 500 797 500 797 488.5 785.5 c 128,-1,8
 477 774 477 774 461 774 c 128,-1,9
118 734 m 1,16,17
 183 761 183 761 243 761 c 0,18,19
 293 761 293 761 346 724 c 0,20,21
 375 704 375 704 411 646 c 0,22,23
 435 606 435 606 472 501 c 2,24,-1
 594 155 l 1,25,26
 636 39 636 39 679.5 -29.5 c 128,-1,27
 723 -98 723 -98 759 -132.5 c 128,-1,28
 795 -167 795 -167 834 -181 c 128,-1,29
 873 -195 873 -195 898.5 -195 c 128,-1,30
 924 -195 924 -195 944 -191 c 1,31,-1
 945 -201 l 1,32,33
 897 -217 897 -217 851 -217 c 128,-1,34
 805 -217 805 -217 759 -193.5 c 128,-1,35
 713 -170 713 -170 673 -128 c 1,36,37
 587 -41 587 -41 527 137 c 2,38,-1
 488 251 l 1,39,-1
 214 251 l 1,40,-1
 145 73 l 2,41,42
 140 61 140 61 140 49 c 128,-1,43
 140 37 140 37 150.5 23.5 c 128,-1,44
 161 10 161 10 183 10 c 2,45,-1
 191 10 l 1,46,-1
 191 0 l 1,47,-1
 -10 0 l 1,48,-1
 -10 10 l 1,49,-1
 -1 10 l 2,50,51
 23 10 23 10 46 24.5 c 128,-1,52
 69 39 69 39 84 68 c 1,53,-1
 332 662 l 1,54,55
 278 739 278 739 198 739 c 0,56,57
 162 739 162 739 121 724 c 1,58,-1
 118 734 l 1,16,17
225 281 m 1,59,-1
 478 281 l 1,60,-1
 399 514 l 2,61,62
 376 581 376 581 357 619 c 1,63,-1
 225 281 l 1,59,-1
EndSplineSet
EndChar

StartChar: Aring
Encoding: 197 197 133
Width: 712
GlyphClass: 2
Flags: W
LayerCount: 2
Fore
SplineSet
300 903 m 128,-1,1
 327 924 327 924 367.5 924 c 128,-1,2
 408 924 408 924 434.5 904 c 128,-1,3
 461 884 461 884 461 856 c 128,-1,4
 461 828 461 828 448 811 c 1,5,6
 423 774 423 774 375 774 c 128,-1,7
 327 774 327 774 300 795.5 c 128,-1,8
 273 817 273 817 273 849.5 c 128,-1,0
 273 882 273 882 300 903 c 128,-1,1
366.5 907 m 128,-1,10
 345 907 345 907 331.5 891.5 c 128,-1,11
 318 876 318 876 318 849 c 128,-1,12
 318 822 318 822 331.5 807 c 128,-1,13
 345 792 345 792 366.5 792 c 128,-1,14
 388 792 388 792 402 807 c 128,-1,15
 416 822 416 822 416 849 c 128,-1,16
 416 876 416 876 402 891.5 c 128,-1,9
 388 907 388 907 366.5 907 c 128,-1,10
118 734 m 1,17,18
 183 761 183 761 243 761 c 0,19,20
 293 761 293 761 346 724 c 0,21,22
 375 704 375 704 411 646 c 0,23,24
 435 606 435 606 472 501 c 2,25,-1
 594 155 l 1,26,27
 636 39 636 39 679.5 -29.5 c 128,-1,28
 723 -98 723 -98 759 -132.5 c 128,-1,29
 795 -167 795 -167 834 -181 c 128,-1,30
 873 -195 873 -195 898.5 -195 c 128,-1,31
 924 -195 924 -195 944 -191 c 1,32,-1
 945 -201 l 1,33,34
 897 -217 897 -217 851 -217 c 128,-1,35
 805 -217 805 -217 759 -193.5 c 128,-1,36
 713 -170 713 -170 673 -128 c 1,37,38
 587 -41 587 -41 527 137 c 2,39,-1
 488 251 l 1,40,-1
 214 251 l 1,41,-1
 145 73 l 2,42,43
 140 61 140 61 140 49 c 128,-1,44
 140 37 140 37 150.5 23.5 c 128,-1,45
 161 10 161 10 183 10 c 2,46,-1
 191 10 l 1,47,-1
 191 0 l 1,48,-1
 -10 0 l 1,49,-1
 -10 10 l 1,50,-1
 -1 10 l 2,51,52
 23 10 23 10 46 24.5 c 128,-1,53
 69 39 69 39 84 68 c 1,54,-1
 332 662 l 1,55,56
 278 739 278 739 198 739 c 0,57,58
 162 739 162 739 121 724 c 1,59,-1
 118 734 l 1,17,18
225 281 m 1,60,-1
 478 281 l 1,61,-1
 399 514 l 2,62,63
 376 581 376 581 357 619 c 1,64,-1
 225 281 l 1,60,-1
EndSplineSet
EndChar

StartChar: AE
Encoding: 198 198 134
Width: 872
GlyphClass: 2
Flags: W
LayerCount: 2
Fore
SplineSet
-53 -76 m 0,0,1
 -79 -88 -79 -88 -104.5 -92 c 128,-1,2
 -130 -96 -130 -96 -153.5 -96 c 128,-1,3
 -177 -96 -177 -96 -200 -91 c 1,4,-1
 -199 -81 l 1,5,6
 -127 -78 -127 -78 -71 -40.5 c 128,-1,7
 -15 -3 -15 -3 37 79 c 2,8,-1
 403 655 l 1,9,10
 409 668 409 668 402.5 679 c 128,-1,11
 396 690 396 690 382 690 c 2,12,-1
 378 690 l 1,13,-1
 378 700 l 1,14,-1
 531 700 l 2,15,16
 562 700 562 700 599 706 c 128,-1,17
 636 712 636 712 650 718 c 1,18,-1
 650 605 l 1,19,-1
 640 605 l 1,20,-1
 640 620 l 2,21,22
 640 640 640 640 626 654.5 c 128,-1,23
 612 669 612 669 592 669 c 2,24,-1
 471 669 l 1,25,-1
 471 350 l 1,26,-1
 665 350 l 1,27,28
 685 351 685 351 699 365 c 128,-1,29
 713 379 713 379 713 400 c 2,30,-1
 713 414 l 1,31,-1
 723 414 l 1,32,-1
 723 256 l 1,33,-1
 713 256 l 1,34,-1
 713 271 l 2,35,36
 713 291 713 291 699 305 c 128,-1,37
 685 319 685 319 666 320 c 1,38,-1
 471 320 l 1,39,-1
 471 31 l 1,40,-1
 705 31 l 1,41,42
 813 32 813 32 858 139 c 1,43,-1
 868 139 l 1,44,-1
 812 0 l 1,45,-1
 346 0 l 1,46,-1
 347 10 l 1,47,-1
 356 10 l 2,48,49
 376 10 376 10 390.5 24 c 128,-1,50
 405 38 405 38 406 58 c 1,51,-1
 406 320 l 1,52,-1
 245 320 l 1,53,-1
 90 55 l 2,54,55
 37 -37 37 -37 -53 -76 c 0,0,1
406 350 m 1,56,-1
 406 597 l 1,57,-1
 262 350 l 1,58,-1
 406 350 l 1,56,-1
EndSplineSet
EndChar

StartChar: Ccedilla
Encoding: 199 199 135
Width: 821
GlyphClass: 2
Flags: W
LayerCount: 2
Fore
SplineSet
474 -117 m 0,0,1
 474 -73 474 -73 423 -73 c 0,2,3
 407 -73 407 -73 390 -81 c 1,4,-1
 385 -71 l 1,5,-1
 429 -14 l 1,6,7
 261 -9 261 -9 153 94.5 c 128,-1,8
 45 198 45 198 45 351 c 0,9,10
 45 453 45 453 95 536 c 128,-1,11
 145 619 145 619 233 666.5 c 128,-1,12
 321 714 321 714 429 714 c 0,13,14
 497 714 497 714 567.5 695.5 c 128,-1,15
 638 677 638 677 685 646 c 1,16,-1
 705 505 l 1,17,-1
 696 505 l 1,18,19
 675 589 675 589 599 636.5 c 128,-1,20
 523 684 523 684 430 684 c 0,21,22
 297 684 297 684 208.5 589.5 c 128,-1,23
 120 495 120 495 120 352 c 128,-1,24
 120 209 120 209 211.5 112.5 c 128,-1,25
 303 16 303 16 451 16 c 128,-1,26
 599 16 599 16 692.5 112 c 128,-1,27
 786 208 786 208 786 375 c 1,28,-1
 796 375 l 1,29,30
 797 363 797 363 797 332.5 c 128,-1,31
 797 302 797 302 788 253.5 c 128,-1,32
 779 205 779 205 759 162.5 c 128,-1,33
 739 120 739 120 709 87 c 128,-1,34
 679 54 679 54 641 33 c 0,35,36
 563 -11 563 -11 456 -14 c 1,37,-1
 419 -57 l 1,38,39
 462 -42 462 -42 496 -61 c 0,40,41
 524 -77 524 -77 524 -119.5 c 128,-1,42
 524 -162 524 -162 480 -183 c 0,43,44
 455 -195 455 -195 430 -195 c 128,-1,45
 405 -195 405 -195 383 -188 c 1,46,-1
 384 -178 l 1,47,48
 420 -178 420 -178 447 -162.5 c 128,-1,49
 474 -147 474 -147 474 -117 c 0,0,1
EndSplineSet
EndChar

StartChar: Egrave
Encoding: 200 200 136
Width: 607
GlyphClass: 2
Flags: W
LayerCount: 2
Fore
SplineSet
255 771 m 1,0,-1
 248 764 l 1,1,2
 168 802 168 802 87 849 c 1,3,4
 102 877 102 877 128 902 c 1,5,6
 192 841 192 841 255 771 c 1,0,-1
73 10 m 2,7,8
 99 10 99 10 117.5 28.5 c 128,-1,9
 136 47 136 47 137 73 c 1,10,-1
 137 633 l 2,11,12
 137 657 137 657 118 673.5 c 128,-1,13
 99 690 99 690 73 690 c 2,14,-1
 61 690 l 1,15,-1
 60 700 l 1,16,-1
 263 700 l 2,17,18
 294 700 294 700 330.5 706 c 128,-1,19
 367 712 367 712 382 718 c 1,20,-1
 382 592 l 1,21,-1
 372 592 l 1,22,-1
 372 610 l 2,23,24
 372 634 372 634 355.5 651 c 128,-1,25
 339 668 339 668 316 669 c 1,26,-1
 202 669 l 1,27,-1
 202 360 l 1,28,-1
 392 360 l 1,29,30
 412 361 412 361 426 375 c 128,-1,31
 440 389 440 389 440 410 c 2,32,-1
 440 424 l 1,33,-1
 450 424 l 1,34,-1
 450 266 l 1,35,-1
 440 266 l 1,36,-1
 440 281 l 2,37,38
 440 301 440 301 426.5 315 c 128,-1,39
 413 329 413 329 393 330 c 1,40,-1
 202 330 l 1,41,-1
 202 31 l 1,42,-1
 415 31 l 2,43,44
 489 31 489 31 528 64 c 128,-1,45
 567 97 567 97 593 162 c 1,46,-1
 603 162 l 1,47,-1
 545 0 l 1,48,-1
 60 0 l 1,49,-1
 60 10 l 1,50,-1
 73 10 l 2,7,8
EndSplineSet
EndChar

StartChar: Eacute
Encoding: 201 201 137
Width: 607
GlyphClass: 2
Flags: W
LayerCount: 2
Fore
SplineSet
248 764 m 1,0,-1
 241 771 l 1,1,2
 317 853 317 853 368 902 c 1,3,4
 395 875 395 875 409 849 c 1,5,6
 345 812 345 812 248 764 c 1,0,-1
73 10 m 2,7,8
 99 10 99 10 117.5 28.5 c 128,-1,9
 136 47 136 47 137 73 c 1,10,-1
 137 633 l 2,11,12
 137 657 137 657 118 673.5 c 128,-1,13
 99 690 99 690 73 690 c 2,14,-1
 61 690 l 1,15,-1
 60 700 l 1,16,-1
 263 700 l 2,17,18
 306 700 306 700 339.5 707 c 128,-1,19
 373 714 373 714 382 718 c 1,20,-1
 382 592 l 1,21,-1
 372 592 l 1,22,-1
 372 610 l 2,23,24
 372 634 372 634 355.5 651 c 128,-1,25
 339 668 339 668 316 669 c 1,26,-1
 202 669 l 1,27,-1
 202 360 l 1,28,-1
 392 360 l 1,29,30
 412 361 412 361 426 375 c 128,-1,31
 440 389 440 389 440 410 c 2,32,-1
 440 424 l 1,33,-1
 450 424 l 1,34,-1
 450 266 l 1,35,-1
 440 266 l 1,36,-1
 440 281 l 2,37,38
 440 301 440 301 426.5 315 c 128,-1,39
 413 329 413 329 393 330 c 1,40,-1
 202 330 l 1,41,-1
 202 31 l 1,42,-1
 415 31 l 2,43,44
 489 31 489 31 528 64 c 128,-1,45
 567 97 567 97 593 162 c 1,46,-1
 603 162 l 1,47,-1
 545 0 l 1,48,-1
 60 0 l 1,49,-1
 60 10 l 1,50,-1
 73 10 l 2,7,8
EndSplineSet
EndChar

StartChar: Ecircumflex
Encoding: 202 202 138
Width: 607
GlyphClass: 2
Flags: W
LayerCount: 2
Fore
SplineSet
243 890 m 1,0,-1
 253 890 l 1,1,-1
 367 771 l 1,2,-1
 361 763 l 1,3,-1
 248 829 l 1,4,-1
 143 763 l 1,5,-1
 137 771 l 1,6,-1
 243 890 l 1,0,-1
73 10 m 2,7,8
 99 10 99 10 117.5 28.5 c 128,-1,9
 136 47 136 47 137 73 c 1,10,-1
 137 633 l 2,11,12
 137 657 137 657 118 673.5 c 128,-1,13
 99 690 99 690 73 690 c 2,14,-1
 61 690 l 1,15,-1
 60 700 l 1,16,-1
 263 700 l 2,17,18
 294 700 294 700 330.5 706 c 128,-1,19
 367 712 367 712 382 718 c 1,20,-1
 382 592 l 1,21,-1
 372 592 l 1,22,-1
 372 610 l 2,23,24
 372 634 372 634 355.5 651 c 128,-1,25
 339 668 339 668 316 669 c 1,26,-1
 202 669 l 1,27,-1
 202 360 l 1,28,-1
 392 360 l 1,29,30
 412 361 412 361 426 375 c 128,-1,31
 440 389 440 389 440 410 c 2,32,-1
 440 424 l 1,33,-1
 450 424 l 1,34,-1
 450 266 l 1,35,-1
 440 266 l 1,36,-1
 440 281 l 2,37,38
 440 301 440 301 426.5 315 c 128,-1,39
 413 329 413 329 393 330 c 1,40,-1
 202 330 l 1,41,-1
 202 31 l 1,42,-1
 415 31 l 2,43,44
 466 31 466 31 501.5 49 c 128,-1,45
 537 67 537 67 556.5 93 c 128,-1,46
 576 119 576 119 593 162 c 1,47,-1
 603 162 l 1,48,-1
 545 0 l 1,49,-1
 60 0 l 1,50,-1
 60 10 l 1,51,-1
 73 10 l 2,7,8
EndSplineSet
EndChar

StartChar: Edieresis
Encoding: 203 203 139
Width: 607
GlyphClass: 2
Flags: W
LayerCount: 2
Fore
SplineSet
154 764 m 128,-1,1
 138 764 138 764 126.5 775.5 c 128,-1,2
 115 787 115 787 115 803 c 128,-1,3
 115 819 115 819 126.5 830.5 c 128,-1,4
 138 842 138 842 154 842 c 128,-1,5
 170 842 170 842 181.5 830.5 c 128,-1,6
 193 819 193 819 193 803 c 128,-1,7
 193 787 193 787 181.5 775.5 c 128,-1,0
 170 764 170 764 154 764 c 128,-1,1
342.5 764 m 128,-1,9
 326 764 326 764 314.5 775.5 c 128,-1,10
 303 787 303 787 303 803 c 128,-1,11
 303 819 303 819 314.5 830.5 c 128,-1,12
 326 842 326 842 342.5 842 c 128,-1,13
 359 842 359 842 370.5 830.5 c 128,-1,14
 382 819 382 819 382 803 c 128,-1,15
 382 787 382 787 370.5 775.5 c 128,-1,8
 359 764 359 764 342.5 764 c 128,-1,9
73 10 m 2,16,17
 99 10 99 10 117.5 28.5 c 128,-1,18
 136 47 136 47 137 73 c 1,19,-1
 137 633 l 2,20,21
 137 657 137 657 118 673.5 c 128,-1,22
 99 690 99 690 73 690 c 2,23,-1
 61 690 l 1,24,-1
 60 700 l 1,25,-1
 263 700 l 2,26,27
 306 700 306 700 339.5 707 c 128,-1,28
 373 714 373 714 382 718 c 1,29,-1
 382 592 l 1,30,-1
 372 592 l 1,31,-1
 372 610 l 2,32,33
 372 634 372 634 355.5 651 c 128,-1,34
 339 668 339 668 316 669 c 1,35,-1
 202 669 l 1,36,-1
 202 360 l 1,37,-1
 392 360 l 1,38,39
 412 361 412 361 426 375 c 128,-1,40
 440 389 440 389 440 410 c 2,41,-1
 440 424 l 1,42,-1
 450 424 l 1,43,-1
 450 266 l 1,44,-1
 440 266 l 1,45,-1
 440 281 l 2,46,47
 440 301 440 301 426.5 315 c 128,-1,48
 413 329 413 329 393 330 c 1,49,-1
 202 330 l 1,50,-1
 202 31 l 1,51,-1
 415 31 l 2,52,53
 489 31 489 31 528 64 c 128,-1,54
 567 97 567 97 593 162 c 1,55,-1
 603 162 l 1,56,-1
 545 0 l 1,57,-1
 60 0 l 1,58,-1
 60 10 l 1,59,-1
 73 10 l 2,16,17
EndSplineSet
EndChar

StartChar: Igrave
Encoding: 204 204 140
Width: 393
GlyphClass: 2
Flags: W
LayerCount: 2
Fore
SplineSet
231 771 m 1,0,-1
 224 764 l 1,1,2
 144 802 144 802 64 849 c 1,3,4
 78 877 78 877 104 902 c 1,5,6
 168 841 168 841 231 771 c 1,0,-1
321 10 m 2,7,-1
 334 10 l 1,8,-1
 334 0 l 1,9,-1
 115 0 l 1,10,-1
 115 10 l 1,11,-1
 128 10 l 2,12,13
 154 10 154 10 173 28.5 c 128,-1,14
 192 47 192 47 192 73 c 2,15,-1
 192 673 l 1,16,-1
 85 667 l 2,17,18
 -16 661 -16 661 -16 594 c 0,19,20
 -16 567 -16 567 1.5 547.5 c 128,-1,21
 19 528 19 528 57 527 c 1,22,-1
 57 521 l 1,23,24
 43 518 43 518 29 518 c 0,25,26
 -15 518 -15 518 -37 553 c 0,27,28
 -50 573 -50 573 -50 597 c 0,29,30
 -50 682 -50 682 79 696 c 0,31,32
 80 696 80 696 178.5 702.5 c 128,-1,33
 277 709 277 709 334 720 c 1,34,-1
 336 710 l 1,35,36
 293 703 293 703 275 681 c 128,-1,37
 257 659 257 659 257 620 c 2,38,-1
 257 73 l 1,39,40
 258 47 258 47 276.5 28.5 c 128,-1,41
 295 10 295 10 321 10 c 2,7,-1
EndSplineSet
EndChar

StartChar: Iacute
Encoding: 205 205 141
Width: 393
GlyphClass: 2
Flags: W
LayerCount: 2
Fore
SplineSet
224 764 m 1,0,-1
 217 771 l 1,1,2
 293 853 293 853 344 902 c 1,3,4
 371 875 371 875 385 849 c 1,5,6
 321 812 321 812 224 764 c 1,0,-1
321 10 m 2,7,-1
 334 10 l 1,8,-1
 334 0 l 1,9,-1
 115 0 l 1,10,-1
 115 10 l 1,11,-1
 128 10 l 2,12,13
 154 10 154 10 173 28.5 c 128,-1,14
 192 47 192 47 192 73 c 2,15,-1
 192 673 l 1,16,-1
 85 667 l 2,17,18
 -16 661 -16 661 -16 594 c 0,19,20
 -16 567 -16 567 1.5 548 c 128,-1,21
 19 529 19 529 57 527 c 1,22,-1
 57 521 l 1,23,24
 42 518 42 518 21.5 518 c 128,-1,25
 1 518 1 518 -24.5 538 c 128,-1,26
 -50 558 -50 558 -50 597 c 0,27,28
 -50 682 -50 682 79 696 c 0,29,30
 80 696 80 696 178.5 702.5 c 128,-1,31
 277 709 277 709 334 720 c 1,32,-1
 336 710 l 1,33,34
 293 703 293 703 275 681 c 128,-1,35
 257 659 257 659 257 620 c 2,36,-1
 257 73 l 1,37,38
 258 47 258 47 276.5 28.5 c 128,-1,39
 295 10 295 10 321 10 c 2,7,-1
EndSplineSet
EndChar

StartChar: Icircumflex
Encoding: 206 206 142
Width: 393
GlyphClass: 2
Flags: W
LayerCount: 2
Fore
SplineSet
219 890 m 1,0,-1
 229 890 l 1,1,-1
 343 771 l 1,2,-1
 337 763 l 1,3,-1
 224 829 l 1,4,-1
 119 763 l 1,5,-1
 113 771 l 1,6,-1
 219 890 l 1,0,-1
321 10 m 2,7,-1
 334 10 l 1,8,-1
 334 0 l 1,9,-1
 115 0 l 1,10,-1
 115 10 l 1,11,-1
 128 10 l 2,12,13
 154 10 154 10 173 28.5 c 128,-1,14
 192 47 192 47 192 73 c 2,15,-1
 192 673 l 1,16,-1
 85 667 l 2,17,18
 -16 661 -16 661 -16 594 c 0,19,20
 -16 567 -16 567 1.5 548 c 128,-1,21
 19 529 19 529 57 527 c 1,22,-1
 57 521 l 1,23,24
 42 518 42 518 21.5 518 c 128,-1,25
 1 518 1 518 -24.5 538 c 128,-1,26
 -50 558 -50 558 -50 597 c 0,27,28
 -50 682 -50 682 79 696 c 0,29,30
 80 696 80 696 178.5 702.5 c 128,-1,31
 277 709 277 709 334 720 c 1,32,-1
 336 710 l 1,33,34
 293 703 293 703 275 681 c 128,-1,35
 257 659 257 659 257 620 c 2,36,-1
 257 73 l 1,37,38
 258 47 258 47 276.5 28.5 c 128,-1,39
 295 10 295 10 321 10 c 2,7,-1
EndSplineSet
EndChar

StartChar: Idieresis
Encoding: 207 207 143
Width: 393
GlyphClass: 2
Flags: W
LayerCount: 2
Fore
SplineSet
130 764 m 128,-1,1
 114 764 114 764 102.5 775.5 c 128,-1,2
 91 787 91 787 91 803 c 128,-1,3
 91 819 91 819 102.5 830.5 c 128,-1,4
 114 842 114 842 130 842 c 128,-1,5
 146 842 146 842 157.5 830.5 c 128,-1,6
 169 819 169 819 169 803 c 128,-1,7
 169 787 169 787 157.5 775.5 c 128,-1,0
 146 764 146 764 130 764 c 128,-1,1
318.5 764 m 128,-1,9
 302 764 302 764 290.5 775.5 c 128,-1,10
 279 787 279 787 279 803 c 128,-1,11
 279 819 279 819 290.5 830.5 c 128,-1,12
 302 842 302 842 318.5 842 c 128,-1,13
 335 842 335 842 346.5 830.5 c 128,-1,14
 358 819 358 819 358 803 c 128,-1,15
 358 787 358 787 346.5 775.5 c 128,-1,8
 335 764 335 764 318.5 764 c 128,-1,9
321 10 m 2,16,-1
 334 10 l 1,17,-1
 334 0 l 1,18,-1
 115 0 l 1,19,-1
 115 10 l 1,20,-1
 128 10 l 2,21,22
 154 10 154 10 173 28.5 c 128,-1,23
 192 47 192 47 192 73 c 2,24,-1
 192 673 l 1,25,-1
 85 667 l 2,26,27
 -16 661 -16 661 -16 594 c 0,28,29
 -16 567 -16 567 1.5 548 c 128,-1,30
 19 529 19 529 57 527 c 1,31,-1
 57 521 l 1,32,33
 43 518 43 518 29 518 c 0,34,35
 -15 518 -15 518 -37 553 c 0,36,37
 -50 573 -50 573 -50 597 c 0,38,39
 -50 682 -50 682 79 696 c 0,40,41
 80 696 80 696 178.5 702.5 c 128,-1,42
 277 709 277 709 334 720 c 1,43,-1
 336 710 l 1,44,45
 293 703 293 703 275 681 c 128,-1,46
 257 659 257 659 257 620 c 2,47,-1
 257 73 l 1,48,49
 258 47 258 47 276.5 28.5 c 128,-1,50
 295 10 295 10 321 10 c 2,16,-1
EndSplineSet
EndChar

StartChar: Eth
Encoding: 208 208 144
Width: 817
GlyphClass: 2
Flags: W
LayerCount: 2
Fore
SplineSet
-121 554 m 1,0,1
 -93 638 -93 638 -25.5 670.5 c 128,-1,2
 42 703 42 703 216 703 c 0,3,4
 256 703 256 703 399 700 c 0,5,6
 505 697 505 697 586 654 c 128,-1,7
 667 611 667 611 712.5 532.5 c 128,-1,8
 758 454 758 454 758 350 c 0,9,10
 758 193 758 193 658.5 96.5 c 128,-1,11
 559 0 559 0 399 0 c 2,12,-1
 60 0 l 1,13,-1
 61 10 l 1,14,-1
 73 10 l 2,15,16
 98 10 98 10 116 26.5 c 128,-1,17
 134 43 134 43 137 67 c 1,18,-1
 137 335 l 1,19,-1
 60 335 l 1,20,-1
 60 365 l 1,21,-1
 137 365 l 1,22,-1
 137 669 l 1,23,24
 12 664 12 664 -40 629 c 0,25,26
 -67 611 -67 611 -81 594 c 128,-1,27
 -95 577 -95 577 -110 550 c 1,28,-1
 -121 554 l 1,0,1
202 335 m 1,29,-1
 202 30 l 1,30,-1
 399 30 l 2,31,32
 483 30 483 30 547.5 69.5 c 128,-1,33
 612 109 612 109 647.5 182 c 128,-1,34
 683 255 683 255 683 350 c 0,35,36
 683 494 683 494 605 582 c 128,-1,37
 527 670 527 670 399 670 c 2,38,-1
 202 670 l 1,39,-1
 202 365 l 1,40,-1
 370 365 l 1,41,-1
 370 335 l 1,42,-1
 202 335 l 1,29,-1
EndSplineSet
EndChar

StartChar: Ntilde
Encoding: 209 209 145
Width: 841
GlyphClass: 2
Flags: W
LayerCount: 2
Fore
SplineSet
496 809 m 0,0,1
 538 809 538 809 552 843 c 1,2,-1
 562 843 l 1,3,4
 556 793 556 793 527 773 c 0,5,6
 513 764 513 764 493 764 c 128,-1,7
 473 764 473 764 431.5 786 c 128,-1,8
 390 808 390 808 376 808 c 0,9,10
 338 808 338 808 321 767 c 1,11,-1
 311 767 l 1,12,13
 317 806 317 806 334 829 c 128,-1,14
 351 852 351 852 375.5 852 c 128,-1,15
 400 852 400 852 440 830.5 c 128,-1,16
 480 809 480 809 496 809 c 0,0,1
1054 -152 m 1,17,18
 1006 -167 1006 -167 970.5 -167 c 128,-1,19
 935 -167 935 -167 906.5 -159.5 c 128,-1,20
 878 -152 878 -152 850 -139.5 c 128,-1,21
 822 -127 822 -127 794 -105 c 0,22,23
 747 -67 747 -67 698 -14 c 2,24,-1
 171 570 l 1,25,-1
 171 70 l 2,26,27
 171 45 171 45 189 27.5 c 128,-1,28
 207 10 207 10 232 10 c 2,29,-1
 251 10 l 1,30,-1
 251 0 l 1,31,-1
 45 0 l 1,32,-1
 45 10 l 1,33,-1
 64 10 l 2,34,35
 89 10 89 10 107 27.5 c 128,-1,36
 125 45 125 45 125 71 c 2,37,-1
 125 620 l 1,38,39
 120 627 120 627 105 646.5 c 128,-1,40
 90 666 90 666 80 678 c 128,-1,41
 70 690 70 690 53 709.5 c 128,-1,42
 36 729 36 729 21.5 741 c 128,-1,43
 7 753 7 753 -12 769 c 1,44,45
 -42 792 -42 792 -76 802 c 128,-1,46
 -110 812 -110 812 -133.5 812 c 128,-1,47
 -157 812 -157 812 -184 804 c 1,48,-1
 -188 814 l 1,49,50
 -139 834 -139 834 -92 834 c 0,51,52
 -7 834 -7 834 75 768 c 0,53,54
 112 737 112 737 167 676 c 2,55,-1
 671 116 l 1,56,-1
 671 629 l 1,57,58
 670 655 670 655 652 672.5 c 128,-1,59
 634 690 634 690 609 690 c 2,60,-1
 590 690 l 1,61,-1
 590 700 l 1,62,-1
 796 700 l 1,63,-1
 796 690 l 1,64,-1
 778 690 l 2,65,66
 753 690 753 690 735 672.5 c 128,-1,67
 717 655 717 655 716 630 c 1,68,-1
 716 65 l 1,69,70
 726 54 726 54 744.5 32 c 128,-1,71
 763 10 763 10 770.5 1 c 128,-1,72
 778 -8 778 -8 793 -25 c 128,-1,73
 808 -42 808 -42 818.5 -51.5 c 128,-1,74
 829 -61 829 -61 844.5 -75.5 c 128,-1,75
 860 -90 860 -90 873.5 -98.5 c 128,-1,76
 887 -107 887 -107 904 -118 c 0,77,78
 928 -132 928 -132 958.5 -139 c 128,-1,79
 989 -146 989 -146 1008.5 -146 c 128,-1,80
 1028 -146 1028 -146 1050 -142 c 1,81,-1
 1054 -152 l 1,17,18
EndSplineSet
EndChar

StartChar: Ograve
Encoding: 210 210 146
Width: 929
GlyphClass: 2
Flags: W
LayerCount: 2
Fore
SplineSet
476 771 m 1,0,-1
 469 764 l 1,1,2
 389 802 389 802 308 849 c 1,3,4
 323 877 323 877 349 902 c 1,5,6
 413 841 413 841 476 771 c 1,0,-1
277 467 m 1,7,8
 273 480 273 480 273 489.5 c 128,-1,9
 273 499 273 499 274 511 c 128,-1,10
 275 523 275 523 278.5 544 c 128,-1,11
 282 565 282 565 292 585.5 c 128,-1,12
 302 606 302 606 315 624.5 c 128,-1,13
 328 643 328 643 348.5 659.5 c 128,-1,14
 369 676 369 676 394 688 c 0,15,16
 447 714 447 714 536 714 c 128,-1,17
 625 714 625 714 704.5 667 c 128,-1,18
 784 620 784 620 826.5 539.5 c 128,-1,19
 869 459 869 459 869 355 c 128,-1,20
 869 251 869 251 817 165.5 c 128,-1,21
 765 80 765 80 673 33 c 128,-1,22
 581 -14 581 -14 466.5 -14 c 128,-1,23
 352 -14 352 -14 259.5 32.5 c 128,-1,24
 167 79 167 79 113.5 164.5 c 128,-1,25
 60 250 60 250 60 358.5 c 128,-1,26
 60 467 60 467 110 550 c 128,-1,27
 160 633 160 633 253 680 c 1,28,-1
 259 671 l 1,29,30
 194 628 194 628 165.5 547 c 128,-1,31
 137 466 137 466 137 378 c 128,-1,32
 137 290 137 290 162 221.5 c 128,-1,33
 187 153 187 153 232 108 c 0,34,35
 323 16 323 16 466 16 c 128,-1,36
 609 16 609 16 700.5 111.5 c 128,-1,37
 792 207 792 207 792 363 c 0,38,39
 792 494 792 494 723 586 c 0,40,41
 690 631 690 631 636 657.5 c 128,-1,42
 582 684 582 684 519 684 c 128,-1,43
 456 684 456 684 408 663 c 0,44,45
 321 626 321 626 293 541 c 0,46,47
 285 516 285 516 285 498 c 128,-1,48
 285 480 285 480 287 469 c 1,49,-1
 277 467 l 1,7,8
EndSplineSet
EndChar

StartChar: Oacute
Encoding: 211 211 147
Width: 929
GlyphClass: 2
Flags: W
LayerCount: 2
Fore
SplineSet
469 764 m 1,0,-1
 462 771 l 1,1,2
 538 853 538 853 589 902 c 1,3,4
 616 875 616 875 630 849 c 1,5,6
 565 812 565 812 469 764 c 1,0,-1
277 467 m 1,7,8
 273 480 273 480 273 489.5 c 128,-1,9
 273 499 273 499 274 511 c 128,-1,10
 275 523 275 523 278.5 544 c 128,-1,11
 282 565 282 565 292 585.5 c 128,-1,12
 302 606 302 606 315 625 c 128,-1,13
 328 644 328 644 348.5 660 c 128,-1,14
 369 676 369 676 394 688 c 0,15,16
 447 714 447 714 536 714 c 128,-1,17
 625 714 625 714 704.5 667 c 128,-1,18
 784 620 784 620 826.5 539.5 c 128,-1,19
 869 459 869 459 869 355 c 128,-1,20
 869 251 869 251 817 165.5 c 128,-1,21
 765 80 765 80 673 33 c 128,-1,22
 581 -14 581 -14 466.5 -14 c 128,-1,23
 352 -14 352 -14 259.5 32.5 c 128,-1,24
 167 79 167 79 113.5 164.5 c 128,-1,25
 60 250 60 250 60 358.5 c 128,-1,26
 60 467 60 467 110 550 c 128,-1,27
 160 633 160 633 253 680 c 1,28,-1
 259 671 l 1,29,30
 194 628 194 628 165.5 547 c 128,-1,31
 137 466 137 466 137 378 c 128,-1,32
 137 290 137 290 162 221.5 c 128,-1,33
 187 153 187 153 232 108 c 0,34,35
 323 16 323 16 466 16 c 128,-1,36
 609 16 609 16 700.5 111.5 c 128,-1,37
 792 207 792 207 792 363 c 0,38,39
 792 494 792 494 723 586 c 0,40,41
 690 631 690 631 636 657.5 c 128,-1,42
 582 684 582 684 519 684 c 128,-1,43
 456 684 456 684 408 663 c 0,44,45
 321 626 321 626 293 541 c 0,46,47
 285 516 285 516 285 498 c 128,-1,48
 285 480 285 480 287 469 c 1,49,-1
 277 467 l 1,7,8
EndSplineSet
EndChar

StartChar: Ocircumflex
Encoding: 212 212 148
Width: 929
GlyphClass: 2
Flags: W
LayerCount: 2
Fore
SplineSet
464 890 m 1,0,-1
 474 890 l 1,1,-1
 588 771 l 1,2,-1
 582 763 l 1,3,-1
 468 829 l 1,4,-1
 364 763 l 1,5,-1
 358 771 l 1,6,-1
 464 890 l 1,0,-1
277 467 m 1,7,8
 273 480 273 480 273 489.5 c 128,-1,9
 273 499 273 499 274 511 c 128,-1,10
 275 523 275 523 278.5 544 c 128,-1,11
 282 565 282 565 292 585.5 c 128,-1,12
 302 606 302 606 315 625 c 128,-1,13
 328 644 328 644 348.5 660 c 128,-1,14
 369 676 369 676 394 688 c 0,15,16
 447 714 447 714 536 714 c 128,-1,17
 625 714 625 714 704.5 667 c 128,-1,18
 784 620 784 620 826.5 539.5 c 128,-1,19
 869 459 869 459 869 355 c 128,-1,20
 869 251 869 251 817 165.5 c 128,-1,21
 765 80 765 80 673 33 c 128,-1,22
 581 -14 581 -14 466 -14 c 0,23,24
 380 -14 380 -14 305.5 13 c 128,-1,25
 231 40 231 40 176.5 88.5 c 128,-1,26
 122 137 122 137 91 207.5 c 128,-1,27
 60 278 60 278 60 372.5 c 128,-1,28
 60 467 60 467 110 550 c 128,-1,29
 160 633 160 633 253 680 c 1,30,-1
 259 671 l 1,31,32
 194 628 194 628 165.5 547 c 128,-1,33
 137 466 137 466 137 378 c 128,-1,34
 137 290 137 290 162 221.5 c 128,-1,35
 187 153 187 153 232 108 c 0,36,37
 323 16 323 16 464 16 c 0,38,39
 559 16 559 16 633.5 59 c 128,-1,40
 708 102 708 102 750 181 c 128,-1,41
 792 260 792 260 792 363 c 0,42,43
 792 494 792 494 723 586 c 0,44,45
 690 631 690 631 636 657.5 c 128,-1,46
 582 684 582 684 519 684 c 128,-1,47
 456 684 456 684 408 663 c 0,48,49
 321 626 321 626 293 541 c 0,50,51
 285 516 285 516 285 498 c 128,-1,52
 285 480 285 480 287 469 c 1,53,-1
 277 467 l 1,7,8
EndSplineSet
EndChar

StartChar: Otilde
Encoding: 213 213 149
Width: 929
GlyphClass: 2
Flags: W
LayerCount: 2
Fore
SplineSet
539 809 m 0,0,1
 581 809 581 809 595 843 c 1,2,-1
 605 843 l 1,3,4
 599 793 599 793 570 773 c 0,5,6
 557 764 557 764 536.5 764 c 128,-1,7
 516 764 516 764 475 786 c 128,-1,8
 434 808 434 808 419 808 c 0,9,10
 381 808 381 808 365 767 c 1,11,-1
 355 767 l 1,12,13
 360 806 360 806 377.5 829 c 128,-1,14
 395 852 395 852 419 852 c 128,-1,15
 443 852 443 852 483 830.5 c 128,-1,16
 523 809 523 809 539 809 c 0,0,1
277 467 m 1,17,18
 273 480 273 480 273 489.5 c 128,-1,19
 273 499 273 499 274 511 c 128,-1,20
 275 523 275 523 278.5 544 c 128,-1,21
 282 565 282 565 292 585.5 c 128,-1,22
 302 606 302 606 315 625 c 128,-1,23
 328 644 328 644 348.5 660 c 128,-1,24
 369 676 369 676 394 688 c 0,25,26
 447 714 447 714 536 714 c 128,-1,27
 625 714 625 714 704.5 667 c 128,-1,28
 784 620 784 620 826.5 539.5 c 128,-1,29
 869 459 869 459 869 355 c 128,-1,30
 869 251 869 251 817 165.5 c 128,-1,31
 765 80 765 80 673 33 c 128,-1,32
 581 -14 581 -14 466.5 -14 c 128,-1,33
 352 -14 352 -14 259.5 32.5 c 128,-1,34
 167 79 167 79 113.5 164.5 c 128,-1,35
 60 250 60 250 60 358.5 c 128,-1,36
 60 467 60 467 110 550 c 128,-1,37
 160 633 160 633 253 680 c 1,38,-1
 259 671 l 1,39,40
 215 642 215 642 186 589 c 0,41,42
 137 500 137 500 137 375 c 0,43,44
 137 290 137 290 162 221.5 c 128,-1,45
 187 153 187 153 232 108 c 0,46,47
 323 16 323 16 464 16 c 0,48,49
 559 16 559 16 633.5 59 c 128,-1,50
 708 102 708 102 750 181 c 128,-1,51
 792 260 792 260 792 363 c 0,52,53
 792 494 792 494 723 586 c 0,54,55
 690 631 690 631 636 657.5 c 128,-1,56
 582 684 582 684 519 684 c 128,-1,57
 456 684 456 684 408 663 c 0,58,59
 321 626 321 626 293 541 c 0,60,61
 285 516 285 516 285 498 c 128,-1,62
 285 480 285 480 287 469 c 1,63,-1
 277 467 l 1,17,18
EndSplineSet
EndChar

StartChar: Odieresis
Encoding: 214 214 150
Width: 929
GlyphClass: 2
Flags: W
LayerCount: 2
Fore
SplineSet
375 764 m 128,-1,1
 359 764 359 764 347.5 775.5 c 128,-1,2
 336 787 336 787 336 803 c 128,-1,3
 336 819 336 819 347.5 830.5 c 128,-1,4
 359 842 359 842 375 842 c 128,-1,5
 391 842 391 842 402.5 830.5 c 128,-1,6
 414 819 414 819 414 803 c 128,-1,7
 414 787 414 787 402.5 775.5 c 128,-1,0
 391 764 391 764 375 764 c 128,-1,1
563 764 m 128,-1,9
 547 764 547 764 535.5 775.5 c 128,-1,10
 524 787 524 787 524 803 c 128,-1,11
 524 819 524 819 535.5 830.5 c 128,-1,12
 547 842 547 842 563 842 c 128,-1,13
 579 842 579 842 590.5 830.5 c 128,-1,14
 602 819 602 819 602 803 c 128,-1,15
 602 787 602 787 590.5 775.5 c 128,-1,8
 579 764 579 764 563 764 c 128,-1,9
277 467 m 1,16,17
 273 480 273 480 273 489.5 c 128,-1,18
 273 499 273 499 274 511 c 128,-1,19
 275 523 275 523 278.5 544 c 128,-1,20
 282 565 282 565 292 585.5 c 128,-1,21
 302 606 302 606 315 625 c 128,-1,22
 328 644 328 644 348.5 660 c 128,-1,23
 369 676 369 676 394 688 c 0,24,25
 447 714 447 714 536 714 c 128,-1,26
 625 714 625 714 704.5 667 c 128,-1,27
 784 620 784 620 826.5 539.5 c 128,-1,28
 869 459 869 459 869 355 c 128,-1,29
 869 251 869 251 817 165.5 c 128,-1,30
 765 80 765 80 673 33 c 128,-1,31
 581 -14 581 -14 466.5 -14 c 128,-1,32
 352 -14 352 -14 259.5 32.5 c 128,-1,33
 167 79 167 79 113.5 164.5 c 128,-1,34
 60 250 60 250 60 358.5 c 128,-1,35
 60 467 60 467 110 550 c 128,-1,36
 160 633 160 633 253 680 c 1,37,-1
 259 671 l 1,38,39
 194 628 194 628 165.5 547 c 128,-1,40
 137 466 137 466 137 378 c 128,-1,41
 137 290 137 290 162 221.5 c 128,-1,42
 187 153 187 153 232 108 c 0,43,44
 323 16 323 16 466 16 c 128,-1,45
 609 16 609 16 700.5 111.5 c 128,-1,46
 792 207 792 207 792 363 c 0,47,48
 792 494 792 494 723 586 c 0,49,50
 690 631 690 631 636 657.5 c 128,-1,51
 582 684 582 684 519 684 c 128,-1,52
 456 684 456 684 408 663 c 0,53,54
 321 626 321 626 293 541 c 0,55,56
 285 516 285 516 285 498 c 128,-1,57
 285 480 285 480 287 469 c 1,58,-1
 277 467 l 1,16,17
EndSplineSet
EndChar

StartChar: multiply
Encoding: 215 215 151
Width: 415
GlyphClass: 2
Flags: W
LayerCount: 2
Fore
SplineSet
366 436 m 1,0,-1
 240 310 l 1,1,-1
 366 184 l 1,2,-1
 334 152 l 1,3,-1
 208 278 l 1,4,-1
 82 152 l 1,5,-1
 50 184 l 1,6,-1
 176 310 l 1,7,-1
 50 436 l 1,8,-1
 82 468 l 1,9,-1
 208 342 l 1,10,-1
 334 468 l 1,11,-1
 366 436 l 1,0,-1
EndSplineSet
EndChar

StartChar: Oslash
Encoding: 216 216 152
Width: 929
GlyphClass: 2
Flags: W
LayerCount: 2
Fore
SplineSet
738 644 m 1,0,1
 869 542 869 542 869 350 c 0,2,3
 869 252 869 252 815.5 166 c 128,-1,4
 762 80 762 80 669 33 c 128,-1,5
 576 -14 576 -14 455.5 -14 c 128,-1,6
 335 -14 335 -14 238 43 c 1,7,-1
 183 -23 l 1,8,-1
 158 -1 l 1,9,-1
 209 61 l 1,10,11
 139 111 139 111 99.5 188 c 128,-1,12
 60 265 60 265 60 366 c 128,-1,13
 60 467 60 467 110 550 c 128,-1,14
 160 633 160 633 253 680 c 1,15,-1
 259 671 l 1,16,17
 194 628 194 628 165.5 547 c 128,-1,18
 137 466 137 466 137 375 c 0,19,20
 137 195 137 195 240 98 c 1,21,-1
 682 629 l 1,22,23
 613 684 613 684 515 684 c 0,24,25
 456 684 456 684 408 663 c 0,26,27
 321 626 321 626 293 541 c 0,28,29
 285 516 285 516 285 498 c 128,-1,30
 285 480 285 480 287 469 c 1,31,-1
 277 467 l 1,32,33
 273 480 273 480 273 489.5 c 128,-1,34
 273 499 273 499 274 511 c 128,-1,35
 275 523 275 523 278.5 544 c 128,-1,36
 282 565 282 565 292 585.5 c 128,-1,37
 302 606 302 606 315 625 c 128,-1,38
 328 644 328 644 348.5 660 c 128,-1,39
 369 676 369 676 394 688 c 0,40,41
 447 714 447 714 523 714 c 0,42,43
 628 714 628 714 710 663 c 1,44,-1
 759 722 l 1,45,-1
 785 700 l 1,46,-1
 738 644 l 1,0,1
459 16 m 0,47,48
 605 16 605 16 698.5 112 c 128,-1,49
 792 208 792 208 792 363 c 0,50,51
 792 460 792 460 754 537 c 0,52,53
 735 576 735 576 706 606 c 1,54,-1
 265 76 l 1,55,56
 346 16 346 16 459 16 c 0,47,48
EndSplineSet
EndChar

StartChar: Ugrave
Encoding: 217 217 153
Width: 783
GlyphClass: 2
Flags: W
LayerCount: 2
Fore
SplineSet
429 771 m 1,0,-1
 422 764 l 1,1,2
 341 802 341 802 261 849 c 1,3,4
 275 877 275 877 302 902 c 1,5,6
 365 841 365 841 429 771 c 1,0,-1
887 872 m 0,7,8
 895 872 895 872 904 872 c 1,9,-1
 904 862 l 1,10,11
 794 862 794 862 730 789.5 c 128,-1,12
 666 717 666 717 666 580 c 2,13,-1
 666 247 l 2,14,15
 666 130 666 130 592 58 c 128,-1,16
 518 -14 518 -14 395 -14 c 128,-1,17
 272 -14 272 -14 195.5 57.5 c 128,-1,18
 119 129 119 129 119 246 c 2,19,-1
 119 640 l 2,20,21
 119 662 119 662 103.5 676 c 128,-1,22
 88 690 88 690 66 690 c 2,23,-1
 50 690 l 1,24,-1
 50 700 l 1,25,-1
 253 700 l 1,26,-1
 253 690 l 1,27,-1
 237 690 l 2,28,29
 215 690 215 690 200 676.5 c 128,-1,30
 185 663 185 663 184 642 c 1,31,-1
 184 260 l 2,32,33
 184 151 184 151 242.5 84 c 128,-1,34
 301 17 301 17 396 17 c 0,35,36
 497 17 497 17 558 80.5 c 128,-1,37
 619 144 619 144 619 247 c 2,38,-1
 619 579 l 2,39,40
 619 726 619 726 693.5 799 c 128,-1,41
 768 872 768 872 887 872 c 0,7,8
EndSplineSet
EndChar

StartChar: Uacute
Encoding: 218 218 154
Width: 783
GlyphClass: 2
Flags: W
LayerCount: 2
Fore
SplineSet
422 764 m 1,0,-1
 415 771 l 1,1,2
 491 853 491 853 542 902 c 1,3,4
 568 875 568 875 582 849 c 1,5,6
 518 812 518 812 422 764 c 1,0,-1
887 872 m 0,7,8
 895 872 895 872 904 872 c 1,9,-1
 904 862 l 1,10,11
 794 862 794 862 730 789.5 c 128,-1,12
 666 717 666 717 666 580 c 2,13,-1
 666 247 l 2,14,15
 666 130 666 130 592 58 c 128,-1,16
 518 -14 518 -14 395 -14 c 128,-1,17
 272 -14 272 -14 195.5 57.5 c 128,-1,18
 119 129 119 129 119 246 c 2,19,-1
 119 641 l 2,20,21
 119 662 119 662 103.5 676 c 128,-1,22
 88 690 88 690 66 690 c 2,23,-1
 50 690 l 1,24,-1
 50 700 l 1,25,-1
 253 700 l 1,26,-1
 253 690 l 1,27,-1
 237 690 l 2,28,29
 207 690 207 690 192 667 c 0,30,31
 185 656 185 656 184 642 c 1,32,-1
 184 260 l 2,33,34
 184 151 184 151 242.5 84.5 c 128,-1,35
 301 18 301 18 399 18 c 128,-1,36
 497 18 497 18 558 81 c 128,-1,37
 619 144 619 144 619 247 c 2,38,-1
 619 579 l 2,39,40
 619 726 619 726 693.5 799 c 128,-1,41
 768 872 768 872 887 872 c 0,7,8
EndSplineSet
EndChar

StartChar: Ucircumflex
Encoding: 219 219 155
Width: 783
GlyphClass: 2
Flags: W
LayerCount: 2
Fore
SplineSet
416 890 m 1,0,-1
 426 890 l 1,1,-1
 541 771 l 1,2,-1
 535 763 l 1,3,-1
 421 829 l 1,4,-1
 316 763 l 1,5,-1
 310 771 l 1,6,-1
 416 890 l 1,0,-1
887 872 m 0,7,8
 895 872 895 872 904 872 c 1,9,-1
 904 862 l 1,10,11
 794 862 794 862 730 789.5 c 128,-1,12
 666 717 666 717 666 580 c 2,13,-1
 666 247 l 2,14,15
 666 130 666 130 592 58 c 128,-1,16
 518 -14 518 -14 395 -14 c 128,-1,17
 272 -14 272 -14 195.5 57.5 c 128,-1,18
 119 129 119 129 119 246 c 2,19,-1
 119 641 l 2,20,21
 119 670 119 670 93 684 c 0,22,23
 81 690 81 690 66 690 c 2,24,-1
 50 690 l 1,25,-1
 50 700 l 1,26,-1
 253 700 l 1,27,-1
 253 690 l 1,28,-1
 237 690 l 2,29,30
 215 690 215 690 200 676.5 c 128,-1,31
 185 663 185 663 184 642 c 1,32,-1
 184 260 l 2,33,34
 184 151 184 151 242.5 84.5 c 128,-1,35
 301 18 301 18 399 18 c 128,-1,36
 497 18 497 18 558 81 c 128,-1,37
 619 144 619 144 619 247 c 2,38,-1
 619 579 l 2,39,40
 619 726 619 726 693.5 799 c 128,-1,41
 768 872 768 872 887 872 c 0,7,8
EndSplineSet
EndChar

StartChar: Udieresis
Encoding: 220 220 156
Width: 783
GlyphClass: 2
Flags: W
LayerCount: 2
Fore
SplineSet
887 872 m 0,0,1
 895 872 895 872 904 872 c 1,2,-1
 904 862 l 1,3,4
 794 862 794 862 730 789.5 c 128,-1,5
 666 717 666 717 666 580 c 2,6,-1
 666 247 l 2,7,8
 666 130 666 130 592 58 c 128,-1,9
 518 -14 518 -14 395 -14 c 128,-1,10
 272 -14 272 -14 195.5 57.5 c 128,-1,11
 119 129 119 129 119 246 c 2,12,-1
 119 641 l 2,13,14
 119 670 119 670 93 684 c 0,15,16
 81 690 81 690 66 690 c 2,17,-1
 50 690 l 1,18,-1
 50 700 l 1,19,-1
 253 700 l 1,20,-1
 253 690 l 1,21,-1
 237 690 l 2,22,23
 215 690 215 690 200 676.5 c 128,-1,24
 185 663 185 663 184 642 c 1,25,-1
 184 260 l 2,26,27
 184 151 184 151 242.5 84.5 c 128,-1,28
 301 18 301 18 396 18 c 0,29,30
 497 18 497 18 558 81 c 128,-1,31
 619 144 619 144 619 247 c 2,32,-1
 619 579 l 2,33,34
 619 726 619 726 693.5 799 c 128,-1,35
 768 872 768 872 887 872 c 0,0,1
327.5 764 m 128,-1,37
 311 764 311 764 299.5 775.5 c 128,-1,38
 288 787 288 787 288 803 c 128,-1,39
 288 819 288 819 299.5 830.5 c 128,-1,40
 311 842 311 842 327.5 842 c 128,-1,41
 344 842 344 842 355.5 830.5 c 128,-1,42
 367 819 367 819 367 803 c 128,-1,43
 367 787 367 787 355.5 775.5 c 128,-1,36
 344 764 344 764 327.5 764 c 128,-1,37
516 764 m 128,-1,45
 500 764 500 764 488.5 775.5 c 128,-1,46
 477 787 477 787 477 803 c 128,-1,47
 477 819 477 819 488.5 830.5 c 128,-1,48
 500 842 500 842 516 842 c 128,-1,49
 532 842 532 842 543.5 830.5 c 128,-1,50
 555 819 555 819 555 803 c 128,-1,51
 555 787 555 787 543.5 775.5 c 128,-1,44
 532 764 532 764 516 764 c 128,-1,45
EndSplineSet
EndChar

StartChar: Yacute
Encoding: 221 221 157
Width: 618
GlyphClass: 2
Flags: W
LayerCount: 2
Fore
SplineSet
331 764 m 1,0,-1
 324 771 l 1,1,2
 400 853 400 853 451 902 c 1,3,4
 478 875 478 875 492 849 c 1,5,6
 428 812 428 812 331 764 c 1,0,-1
-40 757 m 1,7,8
 -33 757 -33 757 -15 757 c 128,-1,9
 3 757 3 757 34 751 c 128,-1,10
 65 745 65 745 91.5 733.5 c 128,-1,11
 118 722 118 722 143.5 700.5 c 128,-1,12
 169 679 169 679 187 660.5 c 128,-1,13
 205 642 205 642 223.5 612 c 128,-1,14
 242 582 242 582 253.5 561 c 128,-1,15
 265 540 265 540 279 506 c 0,16,17
 297 463 297 463 308.5 430.5 c 128,-1,18
 320 398 320 398 321 394 c 0,19,20
 325 384 325 384 328 376 c 1,21,22
 331 383 331 383 340 407.5 c 128,-1,23
 349 432 349 432 356.5 451 c 128,-1,24
 364 470 364 470 378.5 505 c 128,-1,25
 393 540 393 540 404 560 c 128,-1,26
 415 580 415 580 432.5 610.5 c 128,-1,27
 450 641 450 641 466 659 c 128,-1,28
 482 677 482 677 504.5 698 c 128,-1,29
 527 719 527 719 549 730 c 0,30,31
 603 757 603 757 659 757 c 1,32,-1
 659 747 l 1,33,34
 603 747 603 747 544.5 688 c 128,-1,35
 486 629 486 629 444.5 545.5 c 128,-1,36
 403 462 403 462 376.5 372.5 c 128,-1,37
 350 283 350 283 350 220 c 2,38,-1
 350 73 l 2,39,40
 350 48 350 48 368.5 29 c 128,-1,41
 387 10 387 10 414 10 c 2,42,-1
 426 10 l 1,43,-1
 426 0 l 1,44,-1
 208 0 l 1,45,-1
 208 10 l 1,46,-1
 221 10 l 2,47,48
 246 10 246 10 265 28 c 128,-1,49
 284 46 284 46 285 72 c 1,50,-1
 285 221 l 2,51,52
 285 288 285 288 257 378 c 128,-1,53
 229 468 229 468 185 550.5 c 128,-1,54
 141 633 141 633 80 690 c 128,-1,55
 19 747 19 747 -40 747 c 1,56,-1
 -40 757 l 1,7,8
EndSplineSet
EndChar

StartChar: Thorn
Encoding: 222 222 158
Width: 554
GlyphClass: 2
Flags: W
LayerCount: 2
Fore
SplineSet
505 354.5 m 128,-1,1
 505 310 505 310 487 273 c 1,2,3
 455 202 455 202 374 174 c 0,4,5
 345 164 345 164 325 164 c 0,6,7
 263 164 263 164 219 187 c 1,8,-1
 219 197 l 1,9,10
 291 181 291 181 354 213 c 0,11,12
 408 240 408 240 428 305 c 0,13,14
 435 325 435 325 435 342.5 c 128,-1,15
 435 360 435 360 435 365 c 0,16,17
 433 435 433 435 398 476.5 c 128,-1,18
 363 518 363 518 300 518 c 2,19,-1
 185 518 l 1,20,-1
 185 73 l 2,21,22
 185 36 185 36 217 18 c 0,23,24
 231 10 231 10 249 10 c 2,25,-1
 261 10 l 1,26,-1
 261 0 l 1,27,-1
 43 0 l 1,28,-1
 43 10 l 1,29,-1
 55 10 l 2,30,31
 82 10 82 10 100.5 28.5 c 128,-1,32
 119 47 119 47 120 73 c 1,33,-1
 120 628 l 1,34,35
 119 654 119 654 100.5 672 c 128,-1,36
 82 690 82 690 56 690 c 2,37,-1
 43 690 l 1,38,-1
 43 700 l 1,39,-1
 261 700 l 1,40,-1
 261 690 l 1,41,-1
 249 690 l 2,42,43
 223 690 223 690 204 672 c 128,-1,44
 185 654 185 654 185 628 c 2,45,-1
 185 548 l 1,46,-1
 304 548 l 2,47,48
 451 548 451 548 492 435 c 0,49,0
 505 399 505 399 505 354.5 c 128,-1,1
EndSplineSet
EndChar

StartChar: germandbls
Encoding: 223 223 159
Width: 952
GlyphClass: 2
Flags: W
LayerCount: 2
Fore
SplineSet
61 41 m 1,0,1
 58 55 58 55 58 95 c 128,-1,2
 58 135 58 135 73 180 c 1,3,-1
 82 180 l 1,4,5
 81 169 81 169 81 158 c 0,6,7
 81 97 81 97 118 56.5 c 128,-1,8
 155 16 155 16 216 16 c 0,9,10
 279 16 279 16 319.5 54 c 128,-1,11
 360 92 360 92 360 149.5 c 128,-1,12
 360 207 360 207 321 243 c 2,13,-1
 129 421 l 2,14,15
 75 471 75 471 75 542 c 128,-1,16
 75 613 75 613 122.5 663.5 c 128,-1,17
 170 714 170 714 251 714 c 0,18,19
 289 714 289 714 337 704 c 1,20,-1
 376 704 l 1,21,-1
 376 581 l 1,22,-1
 367 581 l 1,23,24
 367 628 367 628 334.5 656 c 128,-1,25
 302 684 302 684 251 684 c 128,-1,26
 200 684 200 684 165.5 650 c 128,-1,27
 131 616 131 616 131 565 c 128,-1,28
 131 514 131 514 171 477 c 2,29,-1
 368 295 l 2,30,31
 418 249 418 249 418 169 c 128,-1,32
 418 89 418 89 367 37.5 c 128,-1,33
 316 -14 316 -14 231 -14 c 0,34,35
 187 -14 187 -14 137.5 -0.5 c 128,-1,36
 88 13 88 13 61 41 c 1,0,1
537 41 m 1,37,38
 534 55 534 55 534 95 c 128,-1,39
 534 135 534 135 549 180 c 1,40,-1
 558 180 l 1,41,42
 557 169 557 169 557 158 c 0,43,44
 557 97 557 97 594 56.5 c 128,-1,45
 631 16 631 16 692 16 c 0,46,47
 755 16 755 16 795.5 54 c 128,-1,48
 836 92 836 92 836 149.5 c 128,-1,49
 836 207 836 207 797 243 c 2,50,-1
 605 421 l 2,51,52
 551 471 551 471 551 542 c 128,-1,53
 551 613 551 613 598.5 663.5 c 128,-1,54
 646 714 646 714 727 714 c 0,55,56
 765 714 765 714 812 704 c 1,57,-1
 852 704 l 1,58,-1
 852 581 l 1,59,-1
 842 581 l 1,60,61
 843 628 843 628 810.5 656 c 128,-1,62
 778 684 778 684 736 684 c 128,-1,63
 694 684 694 684 666 668 c 0,64,65
 607 635 607 635 607 574.5 c 128,-1,66
 607 514 607 514 647 477 c 2,67,-1
 844 295 l 2,68,69
 894 249 894 249 894 169 c 128,-1,70
 894 89 894 89 843 37.5 c 128,-1,71
 792 -14 792 -14 707 -14 c 0,72,73
 662 -14 662 -14 613 -0.5 c 128,-1,74
 564 13 564 13 537 41 c 1,37,38
EndSplineSet
EndChar

StartChar: agrave
Encoding: 224 224 160
Width: 712
GlyphClass: 2
Flags: W
LayerCount: 2
Fore
SplineSet
363 771 m 1,0,-1
 356 764 l 1,1,2
 275 802 275 802 195 849 c 1,3,4
 210 877 210 877 236 902 c 1,5,6
 299 841 299 841 363 771 c 1,0,-1
715 10 m 2,7,-1
 723 10 l 1,8,-1
 723 0 l 1,9,-1
 498 0 l 1,10,-1
 498 10 l 1,11,-1
 507 10 l 2,12,13
 528 10 528 10 538.5 23.5 c 128,-1,14
 549 37 549 37 549 49 c 128,-1,15
 549 61 549 61 545 73 c 2,16,-1
 481 243 l 1,17,-1
 211 243 l 1,18,-1
 144 72 l 2,19,20
 140 60 140 60 140 52 c 128,-1,21
 140 44 140 44 143.5 34.5 c 128,-1,22
 147 25 147 25 158 17.5 c 128,-1,23
 169 10 169 10 182 10 c 2,24,-1
 191 10 l 1,25,-1
 191 0 l 1,26,-1
 -10 0 l 1,27,-1
 -10 10 l 1,28,-1
 -1 10 l 2,29,30
 24 10 24 10 48 26 c 128,-1,31
 72 42 72 42 87 73 c 1,32,-1
 313 611 l 1,33,34
 350 692 350 692 350 714 c 1,35,-1
 359 714 l 1,36,-1
 627 73 l 1,37,38
 646 31 646 31 683 16 c 0,39,40
 699 10 699 10 715 10 c 2,7,-1
223 273 m 1,41,-1
 469 273 l 1,42,-1
 349 594 l 1,43,-1
 223 273 l 1,41,-1
EndSplineSet
EndChar

StartChar: aacute
Encoding: 225 225 161
Width: 712
GlyphClass: 2
Flags: W
LayerCount: 2
Fore
SplineSet
356 764 m 1,0,-1
 349 771 l 1,1,2
 425 853 425 853 476 902 c 1,3,4
 503 875 503 875 517 849 c 1,5,6
 452 812 452 812 356 764 c 1,0,-1
715 10 m 2,7,-1
 723 10 l 1,8,-1
 723 0 l 1,9,-1
 498 0 l 1,10,-1
 498 10 l 1,11,-1
 507 10 l 2,12,13
 528 10 528 10 538.5 23.5 c 128,-1,14
 549 37 549 37 549 49 c 128,-1,15
 549 61 549 61 545 73 c 2,16,-1
 481 243 l 1,17,-1
 211 243 l 1,18,-1
 144 72 l 2,19,20
 140 60 140 60 140 48.5 c 128,-1,21
 140 37 140 37 150.5 23.5 c 128,-1,22
 161 10 161 10 182 10 c 2,23,-1
 191 10 l 1,24,-1
 191 0 l 1,25,-1
 -10 0 l 1,26,-1
 -10 10 l 1,27,-1
 -1 10 l 2,28,29
 24 10 24 10 48 26 c 128,-1,30
 72 42 72 42 87 73 c 1,31,-1
 313 611 l 1,32,33
 350 692 350 692 350 714 c 1,34,-1
 359 714 l 1,35,-1
 627 73 l 2,36,37
 641 42 641 42 665 26 c 128,-1,38
 689 10 689 10 715 10 c 2,7,-1
223 273 m 1,39,-1
 469 273 l 1,40,-1
 349 594 l 1,41,-1
 223 273 l 1,39,-1
EndSplineSet
EndChar

StartChar: acircumflex
Encoding: 226 226 162
Width: 712
GlyphClass: 2
Flags: W
LayerCount: 2
Fore
SplineSet
351 890 m 1,0,-1
 361 890 l 1,1,-1
 475 771 l 1,2,-1
 469 763 l 1,3,-1
 355 829 l 1,4,-1
 251 763 l 1,5,-1
 245 771 l 1,6,-1
 351 890 l 1,0,-1
715 10 m 2,7,-1
 723 10 l 1,8,-1
 723 0 l 1,9,-1
 498 0 l 1,10,-1
 498 10 l 1,11,-1
 507 10 l 2,12,13
 528 10 528 10 538.5 23.5 c 128,-1,14
 549 37 549 37 549 49 c 128,-1,15
 549 61 549 61 545 73 c 2,16,-1
 481 243 l 1,17,-1
 211 243 l 1,18,-1
 144 72 l 2,19,20
 140 60 140 60 140 48.5 c 128,-1,21
 140 37 140 37 150.5 23.5 c 128,-1,22
 161 10 161 10 182 10 c 2,23,-1
 191 10 l 1,24,-1
 191 0 l 1,25,-1
 -10 0 l 1,26,-1
 -10 10 l 1,27,-1
 -1 10 l 2,28,29
 24 10 24 10 48 26 c 128,-1,30
 72 42 72 42 87 73 c 1,31,-1
 313 611 l 1,32,33
 350 692 350 692 350 714 c 1,34,-1
 359 714 l 1,35,-1
 627 73 l 2,36,37
 641 42 641 42 665 26 c 128,-1,38
 689 10 689 10 715 10 c 2,7,-1
223 273 m 1,39,-1
 469 273 l 1,40,-1
 349 594 l 1,41,-1
 223 273 l 1,39,-1
EndSplineSet
EndChar

StartChar: atilde
Encoding: 227 227 163
Width: 712
GlyphClass: 2
Flags: W
LayerCount: 2
Fore
SplineSet
426 809 m 0,0,1
 468 809 468 809 482 843 c 1,2,-1
 492 843 l 1,3,4
 486 793 486 793 457 773 c 0,5,6
 443 764 443 764 423 764 c 128,-1,7
 403 764 403 764 361.5 786 c 128,-1,8
 320 808 320 808 306 808 c 0,9,10
 268 808 268 808 252 767 c 1,11,-1
 242 767 l 1,12,13
 247 806 247 806 264 829 c 128,-1,14
 281 852 281 852 305.5 852 c 128,-1,15
 330 852 330 852 370 830.5 c 128,-1,16
 410 809 410 809 426 809 c 0,0,1
715 10 m 2,17,-1
 723 10 l 1,18,-1
 723 0 l 1,19,-1
 498 0 l 1,20,-1
 498 10 l 1,21,-1
 507 10 l 2,22,23
 528 10 528 10 538.5 23.5 c 128,-1,24
 549 37 549 37 549 49 c 128,-1,25
 549 61 549 61 545 73 c 2,26,-1
 481 243 l 1,27,-1
 211 243 l 1,28,-1
 144 72 l 2,29,30
 140 60 140 60 140 48.5 c 128,-1,31
 140 37 140 37 150.5 23.5 c 128,-1,32
 161 10 161 10 182 10 c 2,33,-1
 191 10 l 1,34,-1
 191 0 l 1,35,-1
 -10 0 l 1,36,-1
 -10 10 l 1,37,-1
 -1 10 l 2,38,39
 24 10 24 10 48 26 c 128,-1,40
 72 42 72 42 87 73 c 1,41,-1
 313 611 l 1,42,43
 350 692 350 692 350 714 c 1,44,-1
 359 714 l 1,45,-1
 627 73 l 2,46,47
 641 42 641 42 665 26 c 128,-1,48
 689 10 689 10 715 10 c 2,17,-1
223 273 m 1,49,-1
 469 273 l 1,50,-1
 349 594 l 1,51,-1
 223 273 l 1,49,-1
EndSplineSet
EndChar

StartChar: adieresis
Encoding: 228 228 164
Width: 712
GlyphClass: 2
Flags: W
LayerCount: 2
Fore
SplineSet
262 764 m 128,-1,1
 246 764 246 764 234.5 775.5 c 128,-1,2
 223 787 223 787 223 803 c 128,-1,3
 223 819 223 819 234.5 830.5 c 128,-1,4
 246 842 246 842 262 842 c 128,-1,5
 278 842 278 842 289.5 830.5 c 128,-1,6
 301 819 301 819 301 803 c 128,-1,7
 301 787 301 787 289.5 775.5 c 128,-1,0
 278 764 278 764 262 764 c 128,-1,1
450 764 m 128,-1,9
 434 764 434 764 422.5 775.5 c 128,-1,10
 411 787 411 787 411 803 c 128,-1,11
 411 819 411 819 422.5 830.5 c 128,-1,12
 434 842 434 842 450 842 c 128,-1,13
 466 842 466 842 477.5 830.5 c 128,-1,14
 489 819 489 819 489 803 c 128,-1,15
 489 787 489 787 477.5 775.5 c 128,-1,8
 466 764 466 764 450 764 c 128,-1,9
715 10 m 2,16,-1
 723 10 l 1,17,-1
 723 0 l 1,18,-1
 498 0 l 1,19,-1
 498 10 l 1,20,-1
 507 10 l 2,21,22
 528 10 528 10 538.5 23.5 c 128,-1,23
 549 37 549 37 549 49 c 128,-1,24
 549 61 549 61 545 73 c 2,25,-1
 481 243 l 1,26,-1
 211 243 l 1,27,-1
 144 72 l 1,28,29
 130 30 130 30 164 14 c 0,30,31
 173 10 173 10 182 10 c 2,32,-1
 191 10 l 1,33,-1
 191 0 l 1,34,-1
 -10 0 l 1,35,-1
 -10 10 l 1,36,-1
 -1 10 l 2,37,38
 24 10 24 10 48 26 c 128,-1,39
 72 42 72 42 87 73 c 1,40,-1
 313 611 l 1,41,42
 350 692 350 692 350 714 c 1,43,-1
 359 714 l 1,44,-1
 627 73 l 2,45,46
 641 42 641 42 665 26 c 128,-1,47
 689 10 689 10 715 10 c 2,16,-1
223 273 m 1,48,-1
 469 273 l 1,49,-1
 349 594 l 1,50,-1
 223 273 l 1,48,-1
EndSplineSet
EndChar

StartChar: aring
Encoding: 229 229 165
Width: 712
GlyphClass: 2
Flags: W
LayerCount: 2
Fore
SplineSet
308.5 904.5 m 128,-1,1
 330 914 330 914 363.5 914 c 128,-1,2
 397 914 397 914 423.5 894 c 128,-1,3
 450 874 450 874 450 839 c 0,4,5
 450 795 450 795 404 774 c 0,6,7
 383 764 383 764 349.5 764 c 128,-1,8
 316 764 316 764 289 785.5 c 128,-1,9
 262 807 262 807 262 834 c 128,-1,10
 262 861 262 861 274.5 878 c 128,-1,0
 287 895 287 895 308.5 904.5 c 128,-1,1
356.5 897 m 128,-1,12
 335 897 335 897 321 881.5 c 128,-1,13
 307 866 307 866 307 839 c 128,-1,14
 307 812 307 812 321 797 c 128,-1,15
 335 782 335 782 356.5 782 c 128,-1,16
 378 782 378 782 391.5 797 c 128,-1,17
 405 812 405 812 405 839 c 128,-1,18
 405 866 405 866 391.5 881.5 c 128,-1,11
 378 897 378 897 356.5 897 c 128,-1,12
715 10 m 2,19,-1
 723 10 l 1,20,-1
 723 0 l 1,21,-1
 498 0 l 1,22,-1
 498 10 l 1,23,-1
 507 10 l 2,24,25
 528 10 528 10 538.5 23.5 c 128,-1,26
 549 37 549 37 549 49 c 128,-1,27
 549 61 549 61 545 73 c 2,28,-1
 481 243 l 1,29,-1
 211 243 l 1,30,-1
 144 72 l 2,31,32
 140 60 140 60 140 48.5 c 128,-1,33
 140 37 140 37 150.5 23.5 c 128,-1,34
 161 10 161 10 182 10 c 2,35,-1
 191 10 l 1,36,-1
 191 0 l 1,37,-1
 -10 0 l 1,38,-1
 -10 10 l 1,39,-1
 -1 10 l 2,40,41
 24 10 24 10 48 26 c 128,-1,42
 72 42 72 42 87 73 c 1,43,-1
 313 611 l 1,44,45
 350 692 350 692 350 714 c 1,46,-1
 359 714 l 1,47,-1
 627 73 l 2,48,49
 641 42 641 42 665 26 c 128,-1,50
 689 10 689 10 715 10 c 2,19,-1
223 273 m 1,51,-1
 469 273 l 1,52,-1
 349 594 l 1,53,-1
 223 273 l 1,51,-1
EndSplineSet
EndChar

StartChar: ae
Encoding: 230 230 166
Width: 901
GlyphClass: 2
Flags: W
LayerCount: 2
Fore
SplineSet
416 10 m 2,0,1
 436 10 436 10 450.5 24 c 128,-1,2
 465 38 465 38 466 58 c 1,3,-1
 466 320 l 1,4,-1
 302 320 l 1,5,-1
 152 67 l 2,6,7
 145 54 145 54 145 44.5 c 128,-1,8
 145 35 145 35 148 27 c 0,9,10
 156 10 156 10 176 10 c 0,11,12
 178 10 178 10 179 10 c 2,13,-1
 189 10 l 1,14,-1
 189 0 l 1,15,-1
 -10 0 l 1,16,-1
 -10 10 l 1,17,-1
 -3 10 l 2,18,19
 21 10 21 10 47.5 28.5 c 128,-1,20
 74 47 74 47 89 71 c 2,21,-1
 463 655 l 1,22,23
 469 668 469 668 462.5 679 c 128,-1,24
 456 690 456 690 442 690 c 2,25,-1
 438 690 l 1,26,-1
 438 700 l 1,27,-1
 681 700 l 2,28,29
 712 700 712 700 749 706 c 128,-1,30
 786 712 786 712 800 718 c 1,31,-1
 800 605 l 1,32,-1
 790 605 l 1,33,-1
 790 620 l 2,34,35
 790 640 790 640 776 654.5 c 128,-1,36
 762 669 762 669 742 669 c 2,37,-1
 531 669 l 1,38,-1
 531 350 l 1,39,-1
 700 350 l 1,40,41
 720 351 720 351 734 365 c 128,-1,42
 748 379 748 379 748 400 c 2,43,-1
 748 414 l 1,44,-1
 758 414 l 1,45,-1
 758 256 l 1,46,-1
 748 256 l 1,47,-1
 748 271 l 2,48,49
 748 291 748 291 734 305 c 128,-1,50
 720 319 720 319 701 320 c 1,51,-1
 531 320 l 1,52,-1
 531 31 l 1,53,-1
 695 31 l 1,54,55
 803 32 803 32 848 139 c 1,56,-1
 858 139 l 1,57,-1
 802 0 l 1,58,-1
 406 0 l 1,59,-1
 407 10 l 1,60,-1
 416 10 l 2,0,1
466 350 m 1,61,-1
 466 598 l 1,62,-1
 319 350 l 1,63,-1
 466 350 l 1,61,-1
EndSplineSet
EndChar

StartChar: ccedilla
Encoding: 231 231 167
Width: 760
GlyphClass: 2
Flags: W
LayerCount: 2
Fore
SplineSet
394 -61 m 1,0,1
 425 -50 425 -50 450 -57 c 0,2,3
 499 -70 499 -70 499 -118 c 128,-1,4
 499 -166 499 -166 455 -187 c 0,5,6
 430 -199 430 -199 405.5 -199 c 128,-1,7
 381 -199 381 -199 358 -192 c 1,8,-1
 359 -182 l 1,9,10
 395 -182 395 -182 422 -167 c 128,-1,11
 449 -152 449 -152 449 -121 c 0,12,13
 449 -77 449 -77 398 -77 c 0,14,15
 382 -77 382 -77 365 -85 c 1,16,-1
 360 -75 l 1,17,-1
 407 -14 l 1,18,19
 253 -9 253 -9 156.5 90.5 c 128,-1,20
 60 190 60 190 60 352 c 128,-1,21
 60 514 60 514 159.5 614 c 128,-1,22
 259 714 259 714 423 714 c 0,23,24
 557 714 557 714 660 646 c 1,25,-1
 680 505 l 1,26,-1
 671 505 l 1,27,28
 649 591 649 591 582 637.5 c 128,-1,29
 515 684 515 684 423 684 c 0,30,31
 292 684 292 684 213.5 593 c 128,-1,32
 135 502 135 502 135 352 c 128,-1,33
 135 202 135 202 212.5 110.5 c 128,-1,34
 290 19 290 19 417 16 c 1,35,36
 529 16 529 16 604 77 c 0,37,38
 685 143 685 143 702 292 c 1,39,-1
 710 292 l 1,40,-1
 698 135 l 1,41,42
 644 46 644 46 549 9 c 0,43,44
 497 -12 497 -12 435 -14 c 1,45,-1
 394 -61 l 1,0,1
EndSplineSet
EndChar

StartChar: egrave
Encoding: 232 232 168
Width: 577
GlyphClass: 2
Flags: W
LayerCount: 2
Fore
SplineSet
304 771 m 1,0,-1
 297 764 l 1,1,2
 217 802 217 802 136 849 c 1,3,4
 151 877 151 877 177 902 c 1,5,6
 240 841 240 841 304 771 c 1,0,-1
73 10 m 2,7,8
 99 10 99 10 117.5 28.5 c 128,-1,9
 136 47 136 47 137 73 c 1,10,-1
 137 633 l 2,11,12
 137 657 137 657 118 673.5 c 128,-1,13
 99 690 99 690 73 690 c 2,14,-1
 61 690 l 1,15,-1
 60 700 l 1,16,-1
 353 700 l 2,17,18
 396 700 396 700 429.5 707 c 128,-1,19
 463 714 463 714 472 718 c 1,20,-1
 472 592 l 1,21,-1
 462 592 l 1,22,-1
 462 610 l 2,23,24
 462 634 462 634 445.5 651 c 128,-1,25
 429 668 429 668 406 669 c 1,26,-1
 202 669 l 1,27,-1
 202 360 l 1,28,-1
 371 360 l 1,29,30
 391 361 391 361 405 375 c 128,-1,31
 419 389 419 389 419 410 c 2,32,-1
 419 424 l 1,33,-1
 429 424 l 1,34,-1
 429 266 l 1,35,-1
 419 266 l 1,36,-1
 419 281 l 2,37,38
 419 312 419 312 390 326 c 0,39,40
 382 330 382 330 372 330 c 2,41,-1
 202 330 l 1,42,-1
 202 31 l 1,43,-1
 345 31 l 2,44,45
 419 31 419 31 458 64 c 128,-1,46
 497 97 497 97 523 162 c 1,47,-1
 533 161 l 1,48,-1
 475 0 l 1,49,-1
 60 0 l 1,50,-1
 60 10 l 1,51,-1
 73 10 l 2,7,8
EndSplineSet
EndChar

StartChar: eacute
Encoding: 233 233 169
Width: 577
GlyphClass: 2
Flags: W
LayerCount: 2
Fore
SplineSet
297 764 m 1,0,-1
 290 771 l 1,1,2
 366 853 366 853 417 902 c 1,3,4
 444 875 444 875 458 849 c 1,5,6
 393 812 393 812 297 764 c 1,0,-1
73 10 m 2,7,8
 99 10 99 10 117.5 28.5 c 128,-1,9
 136 47 136 47 137 73 c 1,10,-1
 137 633 l 2,11,12
 137 657 137 657 118 673.5 c 128,-1,13
 99 690 99 690 73 690 c 2,14,-1
 61 690 l 1,15,-1
 60 700 l 1,16,-1
 353 700 l 2,17,18
 396 700 396 700 429.5 707 c 128,-1,19
 463 714 463 714 472 718 c 1,20,-1
 472 592 l 1,21,-1
 462 592 l 1,22,-1
 462 610 l 2,23,24
 462 634 462 634 445.5 651 c 128,-1,25
 429 668 429 668 406 669 c 1,26,-1
 202 669 l 1,27,-1
 202 360 l 1,28,-1
 371 360 l 1,29,30
 391 361 391 361 405 375 c 128,-1,31
 419 389 419 389 419 410 c 2,32,-1
 419 424 l 1,33,-1
 429 424 l 1,34,-1
 429 266 l 1,35,-1
 419 266 l 1,36,-1
 419 281 l 2,37,38
 419 301 419 301 405.5 315 c 128,-1,39
 392 329 392 329 372 330 c 1,40,-1
 202 330 l 1,41,-1
 202 31 l 1,42,-1
 345 31 l 2,43,44
 419 31 419 31 458 64 c 128,-1,45
 497 97 497 97 523 162 c 1,46,-1
 533 162 l 1,47,-1
 475 0 l 1,48,-1
 60 0 l 1,49,-1
 60 10 l 1,50,-1
 73 10 l 2,7,8
EndSplineSet
EndChar

StartChar: ecircumflex
Encoding: 234 234 170
Width: 577
GlyphClass: 2
Flags: W
LayerCount: 2
Fore
SplineSet
292 890 m 1,0,-1
 302 890 l 1,1,-1
 416 771 l 1,2,-1
 410 763 l 1,3,-1
 296 829 l 1,4,-1
 192 763 l 1,5,-1
 186 771 l 1,6,-1
 292 890 l 1,0,-1
73 10 m 2,7,8
 99 10 99 10 117.5 28.5 c 128,-1,9
 136 47 136 47 137 73 c 1,10,-1
 137 633 l 2,11,12
 137 657 137 657 118 673.5 c 128,-1,13
 99 690 99 690 73 690 c 2,14,-1
 61 690 l 1,15,-1
 60 700 l 1,16,-1
 353 700 l 2,17,18
 396 700 396 700 429.5 707 c 128,-1,19
 463 714 463 714 472 718 c 1,20,-1
 472 592 l 1,21,-1
 462 592 l 1,22,-1
 462 610 l 2,23,24
 462 634 462 634 445.5 651 c 128,-1,25
 429 668 429 668 406 669 c 1,26,-1
 202 669 l 1,27,-1
 202 360 l 1,28,-1
 371 360 l 1,29,30
 391 361 391 361 405 375 c 128,-1,31
 419 389 419 389 419 410 c 2,32,-1
 419 424 l 1,33,-1
 429 424 l 1,34,-1
 429 266 l 1,35,-1
 419 266 l 1,36,-1
 419 281 l 2,37,38
 419 301 419 301 405.5 315 c 128,-1,39
 392 329 392 329 372 330 c 1,40,-1
 202 330 l 1,41,-1
 202 31 l 1,42,-1
 345 31 l 2,43,44
 419 31 419 31 458 64 c 128,-1,45
 497 97 497 97 523 162 c 1,46,-1
 533 162 l 1,47,-1
 475 0 l 1,48,-1
 60 0 l 1,49,-1
 60 10 l 1,50,-1
 73 10 l 2,7,8
EndSplineSet
EndChar

StartChar: edieresis
Encoding: 235 235 171
Width: 577
GlyphClass: 2
Flags: W
LayerCount: 2
Fore
SplineSet
203 764 m 128,-1,1
 187 764 187 764 175.5 775.5 c 128,-1,2
 164 787 164 787 164 803 c 128,-1,3
 164 819 164 819 175.5 830.5 c 128,-1,4
 187 842 187 842 203 842 c 128,-1,5
 219 842 219 842 230.5 830.5 c 128,-1,6
 242 819 242 819 242 803 c 128,-1,7
 242 787 242 787 230.5 775.5 c 128,-1,0
 219 764 219 764 203 764 c 128,-1,1
391 764 m 128,-1,9
 375 764 375 764 363.5 775.5 c 128,-1,10
 352 787 352 787 352 803 c 128,-1,11
 352 819 352 819 363.5 830.5 c 128,-1,12
 375 842 375 842 391 842 c 128,-1,13
 407 842 407 842 418.5 830.5 c 128,-1,14
 430 819 430 819 430 803 c 128,-1,15
 430 787 430 787 418.5 775.5 c 128,-1,8
 407 764 407 764 391 764 c 128,-1,9
73 10 m 2,16,17
 99 10 99 10 117.5 28.5 c 128,-1,18
 136 47 136 47 137 73 c 1,19,-1
 137 633 l 2,20,21
 137 657 137 657 118 673.5 c 128,-1,22
 99 690 99 690 73 690 c 2,23,-1
 61 690 l 1,24,-1
 60 700 l 1,25,-1
 353 700 l 2,26,27
 396 700 396 700 429.5 707 c 128,-1,28
 463 714 463 714 472 718 c 1,29,-1
 472 592 l 1,30,-1
 462 592 l 1,31,-1
 462 610 l 2,32,33
 462 634 462 634 445.5 651 c 128,-1,34
 429 668 429 668 406 669 c 1,35,-1
 202 669 l 1,36,-1
 202 360 l 1,37,-1
 371 360 l 1,38,39
 391 361 391 361 405 375 c 128,-1,40
 419 389 419 389 419 410 c 2,41,-1
 419 424 l 1,42,-1
 429 424 l 1,43,-1
 429 266 l 1,44,-1
 419 266 l 1,45,-1
 419 281 l 2,46,47
 419 312 419 312 390 326 c 0,48,49
 382 330 382 330 372 330 c 2,50,-1
 202 330 l 1,51,-1
 202 31 l 1,52,-1
 345 31 l 2,53,54
 419 31 419 31 458 64 c 128,-1,55
 497 97 497 97 523 162 c 1,56,-1
 533 162 l 1,57,-1
 475 0 l 1,58,-1
 60 0 l 1,59,-1
 60 10 l 1,60,-1
 73 10 l 2,16,17
EndSplineSet
EndChar

StartChar: igrave
Encoding: 236 236 172
Width: 338
GlyphClass: 2
Flags: W
LayerCount: 2
Fore
SplineSet
177 771 m 1,0,-1
 170 764 l 1,1,2
 89 802 89 802 9 849 c 1,3,4
 23 877 23 877 50 902 c 1,5,6
 113 841 113 841 177 771 c 1,0,-1
73 10 m 2,7,8
 99 10 99 10 117.5 28.5 c 128,-1,9
 136 47 136 47 137 73 c 1,10,-1
 137 628 l 1,11,12
 136 654 136 654 117.5 672 c 128,-1,13
 99 690 99 690 73 690 c 2,14,-1
 60 690 l 1,15,-1
 60 700 l 1,16,-1
 279 700 l 1,17,-1
 279 690 l 1,18,-1
 266 690 l 2,19,20
 240 690 240 690 221.5 672 c 128,-1,21
 203 654 203 654 202 628 c 1,22,-1
 202 73 l 2,23,24
 202 47 202 47 221 28.5 c 128,-1,25
 240 10 240 10 266 10 c 2,26,-1
 279 10 l 1,27,-1
 279 0 l 1,28,-1
 60 0 l 1,29,-1
 60 10 l 1,30,-1
 73 10 l 2,7,8
EndSplineSet
EndChar

StartChar: iacute
Encoding: 237 237 173
Width: 338
GlyphClass: 2
Flags: W
LayerCount: 2
Fore
SplineSet
170 764 m 1,0,-1
 163 771 l 1,1,2
 239 853 239 853 289 902 c 1,3,4
 316 875 316 875 330 849 c 1,5,6
 266 812 266 812 170 764 c 1,0,-1
73 10 m 2,7,8
 99 10 99 10 117.5 28.5 c 128,-1,9
 136 47 136 47 137 73 c 1,10,-1
 137 628 l 1,11,12
 136 654 136 654 117.5 672 c 128,-1,13
 99 690 99 690 73 690 c 2,14,-1
 60 690 l 1,15,-1
 60 700 l 1,16,-1
 279 700 l 1,17,-1
 279 690 l 1,18,-1
 266 690 l 2,19,20
 240 690 240 690 221.5 672 c 128,-1,21
 203 654 203 654 202 628 c 1,22,-1
 202 73 l 2,23,24
 202 47 202 47 221 28.5 c 128,-1,25
 240 10 240 10 266 10 c 2,26,-1
 279 10 l 1,27,-1
 279 0 l 1,28,-1
 60 0 l 1,29,-1
 60 10 l 1,30,-1
 73 10 l 2,7,8
EndSplineSet
EndChar

StartChar: icircumflex
Encoding: 238 238 174
Width: 338
GlyphClass: 2
Flags: W
LayerCount: 2
Fore
SplineSet
164 890 m 1,0,-1
 174 890 l 1,1,-1
 289 771 l 1,2,-1
 283 763 l 1,3,-1
 169 829 l 1,4,-1
 64 763 l 1,5,-1
 58 771 l 1,6,-1
 164 890 l 1,0,-1
73 10 m 2,7,8
 99 10 99 10 117.5 28.5 c 128,-1,9
 136 47 136 47 137 73 c 1,10,-1
 137 628 l 1,11,12
 136 654 136 654 117.5 672 c 128,-1,13
 99 690 99 690 73 690 c 2,14,-1
 60 690 l 1,15,-1
 60 700 l 1,16,-1
 279 700 l 1,17,-1
 279 690 l 1,18,-1
 266 690 l 2,19,20
 240 690 240 690 221.5 672 c 128,-1,21
 203 654 203 654 202 628 c 1,22,-1
 202 73 l 2,23,24
 202 47 202 47 221 28.5 c 128,-1,25
 240 10 240 10 266 10 c 2,26,-1
 279 10 l 1,27,-1
 279 0 l 1,28,-1
 60 0 l 1,29,-1
 60 10 l 1,30,-1
 73 10 l 2,7,8
EndSplineSet
EndChar

StartChar: idieresis
Encoding: 239 239 175
Width: 338
GlyphClass: 2
Flags: W
LayerCount: 2
Fore
SplineSet
75.5 764 m 128,-1,1
 59 764 59 764 47.5 775.5 c 128,-1,2
 36 787 36 787 36 803 c 128,-1,3
 36 819 36 819 47.5 830.5 c 128,-1,4
 59 842 59 842 75.5 842 c 128,-1,5
 92 842 92 842 103 830.5 c 128,-1,6
 114 819 114 819 114 803 c 128,-1,7
 114 787 114 787 103 775.5 c 128,-1,0
 92 764 92 764 75.5 764 c 128,-1,1
264 764 m 128,-1,9
 248 764 248 764 236.5 775.5 c 128,-1,10
 225 787 225 787 225 803 c 128,-1,11
 225 819 225 819 236.5 830.5 c 128,-1,12
 248 842 248 842 264 842 c 128,-1,13
 280 842 280 842 291.5 830.5 c 128,-1,14
 303 819 303 819 303 803 c 128,-1,15
 303 787 303 787 291.5 775.5 c 128,-1,8
 280 764 280 764 264 764 c 128,-1,9
73 10 m 2,16,17
 99 10 99 10 117.5 28.5 c 128,-1,18
 136 47 136 47 137 73 c 1,19,-1
 137 628 l 1,20,21
 136 654 136 654 117.5 672 c 128,-1,22
 99 690 99 690 73 690 c 2,23,-1
 60 690 l 1,24,-1
 60 700 l 1,25,-1
 279 700 l 1,26,-1
 279 690 l 1,27,-1
 266 690 l 2,28,29
 240 690 240 690 221.5 672 c 128,-1,30
 203 654 203 654 202 628 c 1,31,-1
 202 73 l 2,32,33
 202 47 202 47 221 28.5 c 128,-1,34
 240 10 240 10 266 10 c 2,35,-1
 279 10 l 1,36,-1
 279 0 l 1,37,-1
 60 0 l 1,38,-1
 60 10 l 1,39,-1
 73 10 l 2,16,17
EndSplineSet
EndChar

StartChar: eth
Encoding: 240 240 176
Width: 817
GlyphClass: 2
Flags: W
LayerCount: 2
Fore
SplineSet
660.5 603.5 m 128,-1,1
 758 507 758 507 758 349.5 c 128,-1,2
 758 192 758 192 660.5 96 c 128,-1,3
 563 0 563 0 403 0 c 2,4,-1
 65 0 l 1,5,-1
 65 10 l 1,6,-1
 78 10 l 2,7,8
 104 10 104 10 122.5 28.5 c 128,-1,9
 141 47 141 47 142 73 c 1,10,-1
 142 335 l 1,11,-1
 60 335 l 1,12,-1
 60 365 l 1,13,-1
 142 365 l 1,14,-1
 142 633 l 2,15,16
 142 657 142 657 122.5 673.5 c 128,-1,17
 103 690 103 690 78 690 c 2,18,-1
 65 690 l 1,19,-1
 65 700 l 1,20,-1
 403 700 l 2,21,0
 563 700 563 700 660.5 603.5 c 128,-1,1
207 335 m 1,22,-1
 207 30 l 1,23,-1
 403 30 l 2,24,25
 531 30 531 30 609.5 118 c 128,-1,26
 688 206 688 206 688 350 c 128,-1,27
 688 494 688 494 609.5 582 c 128,-1,28
 531 670 531 670 403 670 c 2,29,-1
 207 670 l 1,30,-1
 207 365 l 1,31,-1
 370 365 l 1,32,-1
 370 335 l 1,33,-1
 207 335 l 1,22,-1
EndSplineSet
EndChar

StartChar: ntilde
Encoding: 241 241 177
Width: 841
GlyphClass: 2
Flags: W
LayerCount: 2
Fore
SplineSet
496 809 m 0,0,1
 538 809 538 809 552 843 c 1,2,-1
 562 843 l 1,3,4
 556 793 556 793 527 773 c 0,5,6
 513 764 513 764 493 764 c 128,-1,7
 473 764 473 764 431.5 786 c 128,-1,8
 390 808 390 808 376 808 c 0,9,10
 338 808 338 808 321 767 c 1,11,-1
 311 767 l 1,12,13
 317 806 317 806 334 829 c 128,-1,14
 351 852 351 852 375.5 852 c 128,-1,15
 400 852 400 852 440 830.5 c 128,-1,16
 480 809 480 809 496 809 c 0,0,1
778 690 m 2,17,18
 753 690 753 690 735 672.5 c 128,-1,19
 717 655 717 655 716 630 c 1,20,-1
 716 114 l 2,21,22
 716 56 716 56 723 4 c 1,23,-1
 725 -14 l 1,24,-1
 716 -14 l 1,25,-1
 171 568 l 1,26,-1
 171 70 l 2,27,28
 171 45 171 45 189 27.5 c 128,-1,29
 207 10 207 10 232 10 c 2,30,-1
 251 10 l 1,31,-1
 251 0 l 1,32,-1
 45 0 l 1,33,-1
 45 10 l 1,34,-1
 64 10 l 2,35,36
 89 10 89 10 107 27.5 c 128,-1,37
 125 45 125 45 125 71 c 2,38,-1
 125 590 l 2,39,40
 125 651 125 651 118 699 c 2,41,-1
 116 715 l 1,42,-1
 126 715 l 1,43,-1
 671 133 l 1,44,-1
 671 629 l 1,45,46
 670 655 670 655 652 672.5 c 128,-1,47
 634 690 634 690 609 690 c 2,48,-1
 590 690 l 1,49,-1
 590 700 l 1,50,-1
 796 700 l 1,51,-1
 796 690 l 1,52,-1
 778 690 l 2,17,18
EndSplineSet
EndChar

StartChar: ograve
Encoding: 242 242 178
Width: 848
GlyphClass: 2
Flags: W
LayerCount: 2
Fore
SplineSet
432 771 m 1,0,-1
 425 764 l 1,1,2
 345 802 345 802 265 849 c 1,3,4
 279 877 279 877 305 902 c 1,5,6
 369 841 369 841 432 771 c 1,0,-1
424.5 714 m 128,-1,8
 595 714 595 714 702 613.5 c 128,-1,9
 809 513 809 513 809 350 c 128,-1,10
 809 187 809 187 702 86.5 c 128,-1,11
 595 -14 595 -14 424.5 -14 c 128,-1,12
 254 -14 254 -14 147 86.5 c 128,-1,13
 40 187 40 187 40 350 c 128,-1,14
 40 513 40 513 147 613.5 c 128,-1,7
 254 714 254 714 424.5 714 c 128,-1,8
424 16 m 128,-1,16
 562 16 562 16 646.5 108 c 128,-1,17
 731 200 731 200 731 350 c 128,-1,18
 731 500 731 500 646.5 592 c 128,-1,19
 562 684 562 684 424 684 c 128,-1,20
 286 684 286 684 201.5 592 c 128,-1,21
 117 500 117 500 117 350 c 128,-1,22
 117 200 117 200 201.5 108 c 128,-1,15
 286 16 286 16 424 16 c 128,-1,16
EndSplineSet
EndChar

StartChar: oacute
Encoding: 243 243 179
Width: 848
GlyphClass: 2
Flags: W
LayerCount: 2
Fore
SplineSet
425 764 m 1,0,-1
 418 771 l 1,1,2
 495 853 495 853 545 902 c 1,3,4
 572 875 572 875 586 849 c 1,5,6
 522 812 522 812 425 764 c 1,0,-1
424.5 714 m 128,-1,8
 595 714 595 714 702 613.5 c 128,-1,9
 809 513 809 513 809 350 c 0,10,11
 809 242 809 242 760.5 159 c 128,-1,12
 712 76 712 76 624.5 31 c 128,-1,13
 537 -14 537 -14 424 -14 c 0,14,15
 254 -14 254 -14 147 86.5 c 128,-1,16
 40 187 40 187 40 350 c 128,-1,17
 40 513 40 513 147 613.5 c 128,-1,7
 254 714 254 714 424.5 714 c 128,-1,8
424 16 m 128,-1,19
 562 16 562 16 646.5 108 c 128,-1,20
 731 200 731 200 731 350 c 128,-1,21
 731 500 731 500 646.5 592 c 128,-1,22
 562 684 562 684 424 684 c 128,-1,23
 286 684 286 684 201.5 592 c 128,-1,24
 117 500 117 500 117 350 c 128,-1,25
 117 200 117 200 201.5 108 c 128,-1,18
 286 16 286 16 424 16 c 128,-1,19
EndSplineSet
EndChar

StartChar: ocircumflex
Encoding: 244 244 180
Width: 848
GlyphClass: 2
Flags: W
LayerCount: 2
Fore
SplineSet
420 890 m 1,0,-1
 430 890 l 1,1,-1
 544 771 l 1,2,-1
 538 763 l 1,3,-1
 425 829 l 1,4,-1
 320 763 l 1,5,-1
 314 771 l 1,6,-1
 420 890 l 1,0,-1
424.5 714 m 128,-1,8
 595 714 595 714 702 613.5 c 128,-1,9
 809 513 809 513 809 350 c 128,-1,10
 809 187 809 187 702 86.5 c 128,-1,11
 595 -14 595 -14 424.5 -14 c 128,-1,12
 254 -14 254 -14 147 86.5 c 128,-1,13
 40 187 40 187 40 350 c 128,-1,14
 40 513 40 513 147 613.5 c 128,-1,7
 254 714 254 714 424.5 714 c 128,-1,8
424 16 m 128,-1,16
 562 16 562 16 646.5 108 c 128,-1,17
 731 200 731 200 731 350 c 128,-1,18
 731 500 731 500 646.5 592 c 128,-1,19
 562 684 562 684 424 684 c 128,-1,20
 286 684 286 684 201.5 592 c 128,-1,21
 117 500 117 500 117 350 c 128,-1,22
 117 200 117 200 201.5 108 c 128,-1,15
 286 16 286 16 424 16 c 128,-1,16
EndSplineSet
EndChar

StartChar: otilde
Encoding: 245 245 181
Width: 848
GlyphClass: 2
Flags: W
LayerCount: 2
Fore
SplineSet
496 809 m 0,0,1
 537 809 537 809 551 843 c 1,2,-1
 561 843 l 1,3,4
 555 793 555 793 527 773 c 0,5,6
 513 764 513 764 493 764 c 128,-1,7
 473 764 473 764 431.5 786 c 128,-1,8
 390 808 390 808 375 808 c 0,9,10
 337 808 337 808 321 767 c 1,11,-1
 311 767 l 1,12,13
 317 806 317 806 334 829 c 128,-1,14
 351 852 351 852 375 852 c 128,-1,15
 399 852 399 852 439.5 830.5 c 128,-1,16
 480 809 480 809 496 809 c 0,0,1
424.5 714 m 128,-1,18
 595 714 595 714 702 613.5 c 128,-1,19
 809 513 809 513 809 350 c 128,-1,20
 809 187 809 187 702 86.5 c 128,-1,21
 595 -14 595 -14 424.5 -14 c 128,-1,22
 254 -14 254 -14 147 86.5 c 128,-1,23
 40 187 40 187 40 350 c 128,-1,24
 40 513 40 513 147 613.5 c 128,-1,17
 254 714 254 714 424.5 714 c 128,-1,18
424 16 m 128,-1,26
 562 16 562 16 646.5 108 c 128,-1,27
 731 200 731 200 731 350 c 128,-1,28
 731 500 731 500 646.5 592 c 128,-1,29
 562 684 562 684 424 684 c 128,-1,30
 286 684 286 684 201.5 592 c 128,-1,31
 117 500 117 500 117 350 c 128,-1,32
 117 200 117 200 201.5 108 c 128,-1,25
 286 16 286 16 424 16 c 128,-1,26
EndSplineSet
EndChar

StartChar: odieresis
Encoding: 246 246 182
Width: 848
GlyphClass: 2
Flags: W
LayerCount: 2
Fore
SplineSet
331 764 m 128,-1,1
 315 764 315 764 303.5 775.5 c 128,-1,2
 292 787 292 787 292 803 c 128,-1,3
 292 819 292 819 303.5 830.5 c 128,-1,4
 315 842 315 842 331 842 c 128,-1,5
 347 842 347 842 358.5 830.5 c 128,-1,6
 370 819 370 819 370 803 c 128,-1,7
 370 787 370 787 358.5 775.5 c 128,-1,0
 347 764 347 764 331 764 c 128,-1,1
519.5 764 m 128,-1,9
 503 764 503 764 492 775.5 c 128,-1,10
 481 787 481 787 481 803 c 128,-1,11
 481 819 481 819 492 830.5 c 128,-1,12
 503 842 503 842 519.5 842 c 128,-1,13
 536 842 536 842 547.5 830.5 c 128,-1,14
 559 819 559 819 559 803 c 128,-1,15
 559 787 559 787 547.5 775.5 c 128,-1,8
 536 764 536 764 519.5 764 c 128,-1,9
424.5 714 m 128,-1,17
 595 714 595 714 702 613.5 c 128,-1,18
 809 513 809 513 809 350 c 0,19,20
 809 242 809 242 760.5 159 c 128,-1,21
 712 76 712 76 624.5 31 c 128,-1,22
 537 -14 537 -14 424 -14 c 0,23,24
 254 -14 254 -14 147 86.5 c 128,-1,25
 40 187 40 187 40 350 c 128,-1,26
 40 513 40 513 147 613.5 c 128,-1,16
 254 714 254 714 424.5 714 c 128,-1,17
424 16 m 128,-1,28
 562 16 562 16 646.5 108 c 128,-1,29
 731 200 731 200 731 350 c 128,-1,30
 731 500 731 500 646.5 592 c 128,-1,31
 562 684 562 684 424 684 c 128,-1,32
 286 684 286 684 201.5 592 c 128,-1,33
 117 500 117 500 117 350 c 128,-1,34
 117 200 117 200 201.5 108 c 128,-1,27
 286 16 286 16 424 16 c 128,-1,28
EndSplineSet
EndChar

StartChar: divide
Encoding: 247 247 183
Width: 481
GlyphClass: 2
Flags: W
LayerCount: 2
Fore
SplineSet
240.5 433 m 128,-1,1
 226 433 226 433 215.5 443.5 c 128,-1,2
 205 454 205 454 205 468.5 c 128,-1,3
 205 483 205 483 215.5 493 c 128,-1,4
 226 503 226 503 240.5 503 c 128,-1,5
 255 503 255 503 265.5 493 c 128,-1,6
 276 483 276 483 276 468.5 c 128,-1,7
 276 454 276 454 265.5 443.5 c 128,-1,0
 255 433 255 433 240.5 433 c 128,-1,1
40 287 m 1,8,-1
 40 332 l 1,9,-1
 442 332 l 1,10,-1
 442 287 l 1,11,-1
 40 287 l 1,8,-1
240.5 117 m 128,-1,13
 226 117 226 117 215.5 127.5 c 128,-1,14
 205 138 205 138 205 152.5 c 128,-1,15
 205 167 205 167 215.5 177 c 128,-1,16
 226 187 226 187 240.5 187 c 128,-1,17
 255 187 255 187 265.5 177 c 128,-1,18
 276 167 276 167 276 152.5 c 128,-1,19
 276 138 276 138 265.5 127.5 c 128,-1,12
 255 117 255 117 240.5 117 c 128,-1,13
EndSplineSet
EndChar

StartChar: oslash
Encoding: 248 248 184
Width: 848
GlyphClass: 2
Flags: W
LayerCount: 2
Fore
SplineSet
673 638 m 1,0,1
 809 536 809 536 809 342 c 0,2,3
 809 242 809 242 760.5 159 c 128,-1,4
 712 76 712 76 624.5 31 c 128,-1,5
 537 -14 537 -14 424 -14 c 0,6,7
 286 -14 286 -14 187 54 c 1,8,-1
 123 -23 l 1,9,-1
 98 -1 l 1,10,-1
 160 74 l 1,11,12
 103 123 103 123 71.5 193.5 c 128,-1,13
 40 264 40 264 40 350 c 0,14,15
 40 513 40 513 147 613.5 c 128,-1,16
 254 714 254 714 424 714 c 0,17,18
 551 714 551 714 645 657 c 1,19,-1
 699 722 l 1,20,-1
 725 700 l 1,21,-1
 673 638 l 1,0,1
424 684 m 0,22,23
 286 684 286 684 201.5 592 c 128,-1,24
 117 500 117 500 117 353.5 c 128,-1,25
 117 207 117 207 195 116 c 1,26,-1
 616 621 l 1,27,28
 537 684 537 684 424 684 c 0,22,23
218 91 m 1,29,30
 300 16 300 16 431 16 c 128,-1,31
 562 16 562 16 646.5 108 c 128,-1,32
 731 200 731 200 731 353 c 128,-1,33
 731 506 731 506 641 599 c 1,34,-1
 218 91 l 1,29,30
EndSplineSet
EndChar

StartChar: ugrave
Encoding: 249 249 185
Width: 785
GlyphClass: 2
Flags: W
LayerCount: 2
Fore
SplineSet
409 771 m 1,0,-1
 402 764 l 1,1,2
 321 802 321 802 241 849 c 1,3,4
 255 877 255 877 282 902 c 1,5,6
 345 841 345 841 409 771 c 1,0,-1
735 690 m 1,7,-1
 719 690 l 2,8,9
 698 690 698 690 682.5 676.5 c 128,-1,10
 667 663 667 663 666 643 c 1,11,-1
 666 247 l 2,12,13
 666 130 666 130 592 58 c 128,-1,14
 518 -14 518 -14 395 -14 c 128,-1,15
 272 -14 272 -14 195.5 57.5 c 128,-1,16
 119 129 119 129 119 246 c 2,17,-1
 119 640 l 2,18,19
 119 670 119 670 93 684 c 0,20,21
 81 690 81 690 66 690 c 2,22,-1
 50 690 l 1,23,-1
 50 700 l 1,24,-1
 253 700 l 1,25,-1
 253 690 l 1,26,-1
 237 690 l 2,27,28
 215 690 215 690 200 676.5 c 128,-1,29
 185 663 185 663 184 642 c 1,30,-1
 184 260 l 2,31,32
 184 151 184 151 242.5 84 c 128,-1,33
 301 17 301 17 399 17 c 128,-1,34
 497 17 497 17 558 80.5 c 128,-1,35
 619 144 619 144 619 247 c 2,36,-1
 619 642 l 1,37,38
 618 663 618 663 603 676.5 c 128,-1,39
 588 690 588 690 566 690 c 2,40,-1
 550 690 l 1,41,-1
 550 700 l 1,42,-1
 735 700 l 1,43,-1
 735 690 l 1,7,-1
EndSplineSet
EndChar

StartChar: uacute
Encoding: 250 250 186
Width: 785
GlyphClass: 2
Flags: W
LayerCount: 2
Fore
SplineSet
402 764 m 1,0,-1
 395 771 l 1,1,2
 471 853 471 853 522 902 c 1,3,4
 548 875 548 875 562 849 c 1,5,6
 498 812 498 812 402 764 c 1,0,-1
735 690 m 1,7,-1
 719 690 l 2,8,9
 698 690 698 690 682.5 676.5 c 128,-1,10
 667 663 667 663 666 643 c 1,11,-1
 666 247 l 2,12,13
 666 130 666 130 592 58 c 128,-1,14
 518 -14 518 -14 395 -14 c 128,-1,15
 272 -14 272 -14 195.5 57.5 c 128,-1,16
 119 129 119 129 119 246 c 2,17,-1
 119 641 l 2,18,19
 119 662 119 662 103.5 676 c 128,-1,20
 88 690 88 690 66 690 c 2,21,-1
 50 690 l 1,22,-1
 50 700 l 1,23,-1
 253 700 l 1,24,-1
 253 690 l 1,25,-1
 237 690 l 2,26,27
 207 690 207 690 192 667 c 0,28,29
 185 656 185 656 184 642 c 1,30,-1
 184 260 l 2,31,32
 184 151 184 151 242.5 84 c 128,-1,33
 301 17 301 17 396 17 c 0,34,35
 497 17 497 17 558 80.5 c 128,-1,36
 619 144 619 144 619 247 c 2,37,-1
 619 642 l 1,38,39
 618 675 618 675 587 686 c 0,40,41
 577 690 577 690 566 690 c 2,42,-1
 550 690 l 1,43,-1
 550 700 l 1,44,-1
 735 700 l 1,45,-1
 735 690 l 1,7,-1
EndSplineSet
EndChar

StartChar: ucircumflex
Encoding: 251 251 187
Width: 785
GlyphClass: 2
Flags: W
LayerCount: 2
Fore
SplineSet
396 890 m 1,0,-1
 406 890 l 1,1,-1
 521 771 l 1,2,-1
 515 763 l 1,3,-1
 401 829 l 1,4,-1
 296 763 l 1,5,-1
 290 771 l 1,6,-1
 396 890 l 1,0,-1
735 690 m 1,7,-1
 719 690 l 2,8,9
 698 690 698 690 682.5 676.5 c 128,-1,10
 667 663 667 663 666 643 c 1,11,-1
 666 247 l 2,12,13
 666 130 666 130 592 58 c 128,-1,14
 518 -14 518 -14 395 -14 c 128,-1,15
 272 -14 272 -14 195.5 57.5 c 128,-1,16
 119 129 119 129 119 246 c 2,17,-1
 119 640 l 2,18,19
 119 662 119 662 103.5 676 c 128,-1,20
 88 690 88 690 66 690 c 2,21,-1
 50 690 l 1,22,-1
 50 700 l 1,23,-1
 253 700 l 1,24,-1
 253 690 l 1,25,-1
 237 690 l 2,26,27
 215 690 215 690 200 676.5 c 128,-1,28
 185 663 185 663 184 642 c 1,29,-1
 184 260 l 2,30,31
 184 151 184 151 242.5 84 c 128,-1,32
 301 17 301 17 399 17 c 128,-1,33
 497 17 497 17 558 80.5 c 128,-1,34
 619 144 619 144 619 247 c 2,35,-1
 619 642 l 1,36,37
 618 675 618 675 587 686 c 0,38,39
 577 690 577 690 566 690 c 2,40,-1
 550 690 l 1,41,-1
 550 700 l 1,42,-1
 735 700 l 1,43,-1
 735 690 l 1,7,-1
EndSplineSet
EndChar

StartChar: udieresis
Encoding: 252 252 188
Width: 785
GlyphClass: 2
Flags: W
LayerCount: 2
Fore
SplineSet
307.5 764 m 128,-1,1
 291 764 291 764 279.5 775.5 c 128,-1,2
 268 787 268 787 268 803 c 128,-1,3
 268 819 268 819 279.5 830.5 c 128,-1,4
 291 842 291 842 307.5 842 c 128,-1,5
 324 842 324 842 335.5 830.5 c 128,-1,6
 347 819 347 819 347 803 c 128,-1,7
 347 787 347 787 335.5 775.5 c 128,-1,0
 324 764 324 764 307.5 764 c 128,-1,1
496 764 m 128,-1,9
 480 764 480 764 468.5 775.5 c 128,-1,10
 457 787 457 787 457 803 c 128,-1,11
 457 819 457 819 468.5 830.5 c 128,-1,12
 480 842 480 842 496 842 c 128,-1,13
 512 842 512 842 523.5 830.5 c 128,-1,14
 535 819 535 819 535 803 c 128,-1,15
 535 787 535 787 523.5 775.5 c 128,-1,8
 512 764 512 764 496 764 c 128,-1,9
735 690 m 1,16,-1
 719 690 l 2,17,18
 698 690 698 690 682.5 676.5 c 128,-1,19
 667 663 667 663 666 643 c 1,20,-1
 666 247 l 2,21,22
 666 130 666 130 592 58 c 128,-1,23
 518 -14 518 -14 395 -14 c 128,-1,24
 272 -14 272 -14 195.5 57.5 c 128,-1,25
 119 129 119 129 119 246 c 2,26,-1
 119 640 l 2,27,28
 119 670 119 670 93 684 c 0,29,30
 81 690 81 690 66 690 c 2,31,-1
 50 690 l 1,32,-1
 50 700 l 1,33,-1
 253 700 l 1,34,-1
 253 690 l 1,35,-1
 237 690 l 2,36,37
 207 690 207 690 192 667 c 0,38,39
 185 656 185 656 184 642 c 1,40,-1
 184 260 l 2,41,42
 184 151 184 151 242.5 84 c 128,-1,43
 301 17 301 17 396 17 c 0,44,45
 497 17 497 17 558 80.5 c 128,-1,46
 619 144 619 144 619 247 c 2,47,-1
 619 642 l 1,48,49
 618 675 618 675 587 686 c 0,50,51
 577 690 577 690 566 690 c 2,52,-1
 550 690 l 1,53,-1
 550 700 l 1,54,-1
 735 700 l 1,55,-1
 735 690 l 1,16,-1
EndSplineSet
EndChar

StartChar: yacute
Encoding: 253 253 189
Width: 661
GlyphClass: 2
Flags: W
LayerCount: 2
Fore
SplineSet
343 764 m 1,0,-1
 336 771 l 1,1,2
 413 853 413 853 463 902 c 1,3,4
 490 875 490 875 504 849 c 1,5,6
 440 812 440 812 343 764 c 1,0,-1
672 690 m 1,7,-1
 658 690 l 2,8,9
 628 690 628 690 601.5 673.5 c 128,-1,10
 575 657 575 657 557 632 c 1,11,-1
 360 312 l 1,12,-1
 360 73 l 2,13,14
 360 47 360 47 378.5 28.5 c 128,-1,15
 397 10 397 10 424 10 c 2,16,-1
 436 10 l 1,17,-1
 436 0 l 1,18,-1
 218 0 l 1,19,-1
 218 10 l 1,20,-1
 231 10 l 2,21,22
 257 10 257 10 275.5 28 c 128,-1,23
 294 46 294 46 295 72 c 1,24,-1
 295 313 l 1,25,-1
 104 632 l 2,26,27
 89 656 89 656 61.5 673 c 128,-1,28
 34 690 34 690 4 690 c 2,29,-1
 -10 690 l 1,30,-1
 -10 700 l 1,31,-1
 236 700 l 1,32,-1
 236 690 l 1,33,-1
 223 690 l 2,34,35
 201 690 201 690 189 670 c 0,36,37
 183 659 183 659 183 648.5 c 128,-1,38
 183 638 183 638 188 628 c 2,39,-1
 338 348 l 1,40,-1
 498 629 l 2,41,42
 503 639 503 639 503 649 c 128,-1,43
 503 659 503 659 496 670 c 0,44,45
 484 690 484 690 462 690 c 2,46,-1
 450 690 l 1,47,-1
 450 700 l 1,48,-1
 672 700 l 1,49,-1
 672 690 l 1,7,-1
EndSplineSet
EndChar

StartChar: thorn
Encoding: 254 254 190
Width: 554
GlyphClass: 2
Flags: W
LayerCount: 2
Fore
SplineSet
505 354.5 m 128,-1,1
 505 310 505 310 487 273 c 1,2,3
 455 202 455 202 374 174 c 0,4,5
 345 164 345 164 325 164 c 0,6,7
 263 164 263 164 219 187 c 1,8,-1
 219 197 l 1,9,10
 291 181 291 181 354 213 c 0,11,12
 408 240 408 240 428 305 c 0,13,14
 435 325 435 325 435 342.5 c 128,-1,15
 435 360 435 360 435 365 c 0,16,17
 433 435 433 435 398 476.5 c 128,-1,18
 363 518 363 518 300 518 c 2,19,-1
 185 518 l 1,20,-1
 185 73 l 2,21,22
 185 36 185 36 217 18 c 0,23,24
 231 10 231 10 249 10 c 2,25,-1
 261 10 l 1,26,-1
 261 0 l 1,27,-1
 43 0 l 1,28,-1
 43 10 l 1,29,-1
 55 10 l 2,30,31
 82 10 82 10 100.5 28.5 c 128,-1,32
 119 47 119 47 120 73 c 1,33,-1
 120 628 l 1,34,35
 119 654 119 654 100.5 672 c 128,-1,36
 82 690 82 690 56 690 c 2,37,-1
 43 690 l 1,38,-1
 43 700 l 1,39,-1
 261 700 l 1,40,-1
 261 690 l 1,41,-1
 249 690 l 2,42,43
 223 690 223 690 204 672 c 128,-1,44
 185 654 185 654 185 628 c 2,45,-1
 185 548 l 1,46,-1
 304 548 l 2,47,48
 451 548 451 548 492 435 c 0,49,0
 505 399 505 399 505 354.5 c 128,-1,1
EndSplineSet
EndChar

StartChar: ydieresis
Encoding: 255 255 191
Width: 661
GlyphClass: 2
Flags: W
LayerCount: 2
Fore
SplineSet
249 764 m 128,-1,1
 233 764 233 764 221.5 775.5 c 128,-1,2
 210 787 210 787 210 803 c 128,-1,3
 210 819 210 819 221.5 830.5 c 128,-1,4
 233 842 233 842 249 842 c 128,-1,5
 265 842 265 842 276.5 830.5 c 128,-1,6
 288 819 288 819 288 803 c 128,-1,7
 288 787 288 787 276.5 775.5 c 128,-1,0
 265 764 265 764 249 764 c 128,-1,1
437.5 764 m 128,-1,9
 421 764 421 764 410 775.5 c 128,-1,10
 399 787 399 787 399 803 c 128,-1,11
 399 819 399 819 410 830.5 c 128,-1,12
 421 842 421 842 437.5 842 c 128,-1,13
 454 842 454 842 465.5 830.5 c 128,-1,14
 477 819 477 819 477 803 c 128,-1,15
 477 787 477 787 465.5 775.5 c 128,-1,8
 454 764 454 764 437.5 764 c 128,-1,9
672 690 m 1,16,-1
 658 690 l 2,17,18
 628 690 628 690 601.5 673.5 c 128,-1,19
 575 657 575 657 557 632 c 1,20,-1
 360 312 l 1,21,-1
 360 73 l 2,22,23
 360 47 360 47 378.5 28.5 c 128,-1,24
 397 10 397 10 424 10 c 2,25,-1
 436 10 l 1,26,-1
 436 0 l 1,27,-1
 218 0 l 1,28,-1
 218 10 l 1,29,-1
 231 10 l 2,30,31
 257 10 257 10 275.5 28 c 128,-1,32
 294 46 294 46 295 72 c 1,33,-1
 295 313 l 1,34,-1
 104 632 l 2,35,36
 89 656 89 656 61.5 673 c 128,-1,37
 34 690 34 690 4 690 c 2,38,-1
 -10 690 l 1,39,-1
 -10 700 l 1,40,-1
 236 700 l 1,41,-1
 236 690 l 1,42,-1
 223 690 l 2,43,44
 201 690 201 690 189 670 c 0,45,46
 183 659 183 659 183 648.5 c 128,-1,47
 183 638 183 638 188 628 c 2,48,-1
 338 348 l 1,49,-1
 498 629 l 2,50,51
 503 639 503 639 503 649 c 128,-1,52
 503 659 503 659 496 670 c 0,53,54
 484 690 484 690 462 690 c 2,55,-1
 450 690 l 1,56,-1
 450 700 l 1,57,-1
 672 700 l 1,58,-1
 672 690 l 1,16,-1
EndSplineSet
EndChar

StartChar: Amacron
Encoding: 256 256 192
Width: 712
GlyphClass: 2
Flags: W
LayerCount: 2
Fore
SplineSet
244 805 m 1,0,-1
 244 840 l 1,1,-1
 494 840 l 1,2,-1
 494 805 l 1,3,-1
 244 805 l 1,0,-1
118 734 m 1,4,5
 183 761 183 761 243 761 c 0,6,7
 293 761 293 761 346 724 c 0,8,9
 375 704 375 704 411 646 c 0,10,11
 435 606 435 606 472 501 c 2,12,-1
 594 155 l 1,13,14
 636 39 636 39 679.5 -29.5 c 128,-1,15
 723 -98 723 -98 759 -132.5 c 128,-1,16
 795 -167 795 -167 834 -181 c 128,-1,17
 873 -195 873 -195 898.5 -195 c 128,-1,18
 924 -195 924 -195 944 -191 c 1,19,-1
 945 -201 l 1,20,21
 897 -217 897 -217 851 -217 c 128,-1,22
 805 -217 805 -217 759 -193.5 c 128,-1,23
 713 -170 713 -170 673 -128 c 1,24,25
 587 -41 587 -41 527 137 c 2,26,-1
 488 251 l 1,27,-1
 214 251 l 1,28,-1
 145 73 l 2,29,30
 140 61 140 61 140 49 c 128,-1,31
 140 37 140 37 150.5 23.5 c 128,-1,32
 161 10 161 10 183 10 c 2,33,-1
 191 10 l 1,34,-1
 191 0 l 1,35,-1
 -10 0 l 1,36,-1
 -10 10 l 1,37,-1
 -1 10 l 2,38,39
 23 10 23 10 46 24.5 c 128,-1,40
 69 39 69 39 84 68 c 1,41,-1
 332 662 l 1,42,43
 278 739 278 739 198 739 c 0,44,45
 162 739 162 739 121 724 c 1,46,-1
 118 734 l 1,4,5
225 281 m 1,47,-1
 478 281 l 1,48,-1
 399 514 l 2,49,50
 376 581 376 581 357 619 c 1,51,-1
 225 281 l 1,47,-1
EndSplineSet
EndChar

StartChar: amacron
Encoding: 257 257 193
Width: 712
GlyphClass: 2
Flags: W
LayerCount: 2
Fore
SplineSet
234 795 m 1,0,-1
 234 830 l 1,1,-1
 484 830 l 1,2,-1
 484 795 l 1,3,-1
 234 795 l 1,0,-1
715 10 m 2,4,-1
 723 10 l 1,5,-1
 723 0 l 1,6,-1
 498 0 l 1,7,-1
 498 10 l 1,8,-1
 507 10 l 2,9,10
 528 10 528 10 538.5 23.5 c 128,-1,11
 549 37 549 37 549 49 c 128,-1,12
 549 61 549 61 545 73 c 2,13,-1
 481 243 l 1,14,-1
 211 243 l 1,15,-1
 144 72 l 2,16,17
 140 60 140 60 140 48.5 c 128,-1,18
 140 37 140 37 150.5 23.5 c 128,-1,19
 161 10 161 10 182 10 c 2,20,-1
 191 10 l 1,21,-1
 191 0 l 1,22,-1
 -10 0 l 1,23,-1
 -10 10 l 1,24,-1
 -1 10 l 2,25,26
 24 10 24 10 48 26 c 128,-1,27
 72 42 72 42 87 73 c 1,28,-1
 313 611 l 1,29,30
 350 692 350 692 350 714 c 1,31,-1
 359 714 l 1,32,-1
 627 73 l 2,33,34
 641 42 641 42 665 26 c 128,-1,35
 689 10 689 10 715 10 c 2,4,-1
223 273 m 1,36,-1
 469 273 l 1,37,-1
 349 594 l 1,38,-1
 223 273 l 1,36,-1
EndSplineSet
EndChar

StartChar: Abreve
Encoding: 258 258 194
Width: 712
GlyphClass: 2
Flags: W
LayerCount: 2
Fore
SplineSet
470 878 m 1,0,1
 470 850 470 850 456 826 c 128,-1,2
 442 802 442 802 418 788 c 128,-1,3
 394 774 394 774 359.5 774 c 128,-1,4
 325 774 325 774 294.5 805 c 128,-1,5
 264 836 264 836 264 878 c 1,6,-1
 274 878 l 1,7,8
 282 856 282 856 308 840 c 128,-1,9
 334 824 334 824 361.5 824 c 128,-1,10
 389 824 389 824 409 832 c 0,11,12
 449 848 449 848 460 878 c 1,13,-1
 470 878 l 1,0,1
118 734 m 1,14,15
 183 761 183 761 243 761 c 0,16,17
 293 761 293 761 346 724 c 0,18,19
 375 704 375 704 411 646 c 0,20,21
 435 606 435 606 472 501 c 2,22,-1
 594 155 l 1,23,24
 636 39 636 39 679.5 -29.5 c 128,-1,25
 723 -98 723 -98 759 -132.5 c 128,-1,26
 795 -167 795 -167 834 -181 c 128,-1,27
 873 -195 873 -195 898.5 -195 c 128,-1,28
 924 -195 924 -195 944 -191 c 1,29,-1
 945 -201 l 1,30,31
 897 -217 897 -217 851 -217 c 128,-1,32
 805 -217 805 -217 759 -193.5 c 128,-1,33
 713 -170 713 -170 673 -128 c 1,34,35
 587 -41 587 -41 527 137 c 2,36,-1
 488 251 l 1,37,-1
 214 251 l 1,38,-1
 144 73 l 2,39,40
 140 61 140 61 140 49 c 128,-1,41
 140 37 140 37 150.5 23.5 c 128,-1,42
 161 10 161 10 182 10 c 2,43,-1
 191 10 l 1,44,-1
 191 0 l 1,45,-1
 -10 0 l 1,46,-1
 -10 10 l 1,47,-1
 -1 10 l 2,48,49
 23 10 23 10 46 24.5 c 128,-1,50
 69 39 69 39 84 68 c 1,51,-1
 332 662 l 1,52,53
 278 739 278 739 198 739 c 0,54,55
 162 739 162 739 121 724 c 1,56,-1
 118 734 l 1,14,15
225 281 m 1,57,-1
 478 281 l 1,58,-1
 399 514 l 2,59,60
 376 581 376 581 357 619 c 1,61,-1
 225 281 l 1,57,-1
EndSplineSet
EndChar

